<svg width="140" height="140" viewBox="0 0 140 140" fill="none" xmlns="http://www.w3.org/2000/svg">
<path d="M33.1961 84.6545C32.8724 83.9576 32.3489 83.3727 31.6921 82.974C31.0352 82.5752 30.2747 82.3808 29.5071 82.4152C28.9975 82.4384 28.4974 82.5621 28.0357 82.7792L22.1032 85.5456L25.7208 93.3156C26.6619 93.7327 27.6309 94.0836 28.6209 94.3656C25.8405 89.9101 26.8513 89.1387 29.778 92.3307C32.5941 95.4037 36.0689 95.6634 38.4097 95.8825L33.1961 84.6545Z" fill="#FECFC4"/>
<path d="M32.4506 103.435C31.6595 103.203 30.8705 102.963 30.0839 102.717L32.9833 108.941C32.4964 107.149 32.3163 105.287 32.4506 103.435Z" fill="#FECFC4"/>
<path d="M34.4995 110.418C34.1026 110.587 33.6882 110.272 33.4355 109.885L34.5926 112.36L40.3515 109.673C38.7023 109.9 35.4704 110.298 34.4995 110.418Z" fill="#FECFC4"/>
<path d="M24.9095 100.87C23.7657 100.418 22.5953 99.9523 21.4914 99.407C20.0018 98.6755 20.0914 97.9174 21.5446 98.2632C22.0766 98.3829 22.7017 98.4627 23.7258 98.595C22.5543 98.1603 21.4125 97.6494 20.3077 97.0655C18.8048 96.215 19.0974 95.2301 20.5338 95.7495C20.9195 95.8958 21.8106 96.1744 22.848 96.4404L22.6884 96.1079C21.868 95.6418 21.0735 95.1314 20.3084 94.5791C18.9252 93.5144 19.3242 92.5834 20.6808 93.3016C20.8803 93.408 21.1862 93.541 21.5586 93.7006L18.5262 87.1836L12.607 89.95C11.91 90.2736 11.325 90.7971 10.9263 91.454C10.5276 92.1108 10.3331 92.8714 10.3677 93.639C10.3915 94.1486 10.5147 94.6484 10.7317 95.1104L19.9353 114.902C20.1503 115.365 20.4546 115.781 20.8305 116.125C21.2065 116.47 21.6468 116.738 22.1263 116.912C22.6057 117.086 23.1148 117.164 23.6244 117.141C24.134 117.118 24.634 116.994 25.0957 116.778L31.0282 114.01L24.9095 100.87Z" fill="#FECFC4"/>
<path d="M66.2347 9.6656L57.0437 13.5233L65.2106 7.8036L63.0959 3.9599C63.0267 3.83493 62.9284 3.72839 62.8095 3.64923C62.6906 3.57006 62.5544 3.52059 62.4124 3.50495C62.2703 3.48932 62.1266 3.50798 61.9933 3.55937C61.86 3.61076 61.741 3.69339 61.6462 3.8003L50.5932 16.1035C50.471 16.2416 50.3944 16.4141 50.374 16.5973C50.3535 16.7806 50.3902 16.9657 50.4791 17.1273C50.5679 17.2889 50.7045 17.4191 50.8701 17.5001C51.0358 17.5811 51.2224 17.609 51.4045 17.5798L67.7243 14.8267C67.8646 14.8039 67.9973 14.7477 68.1114 14.663C68.2256 14.5784 68.3177 14.4676 68.3802 14.3399C68.4427 14.2123 68.4738 14.0716 68.4707 13.9295C68.4677 13.7874 68.4306 13.6481 68.3627 13.5233L66.2347 9.6656Z" fill="#FECFC4"/>
<path d="M71.2887 77.8974C70.2513 78.3769 70.0118 80.2648 70.4486 82.8856C72.5517 82.7162 74.6326 82.3375 76.6604 81.7551C74.6003 78.9887 72.499 77.3388 71.2887 77.8974Z" fill="#6153BD"/>
<path d="M81.8895 92.169C79.9875 93.6768 77.7529 94.7088 75.3718 95.179C77.8729 99.1823 80.5329 101.603 82.0092 100.911C83.4855 100.229 83.3525 96.6518 81.8895 92.169Z" fill="#6153BD"/>
<path d="M131.567 21.9156C128.282 24.7485 122.323 34.2055 121.219 37.6236C121.418 39.2728 121.578 40.4432 121.685 41.4407C124.134 41.7683 126.619 41.7186 129.053 41.2944L129.027 40.2038C131.873 30.9071 131.979 26.9164 131.567 21.9156Z" fill="#6153BD"/>
<path d="M92.0906 10.5434C89.7232 14.7861 87.2494 24.5224 87.0506 28.9387C87.7427 30.0474 88.4211 31.1647 89.0855 32.2903C90.9637 30.6191 93.0966 29.2585 95.4037 28.2597C95.445 25.7852 95.7747 21.3647 92.0906 10.5434Z" fill="#6153BD"/>
<path d="M32.4506 103.435C32.2644 107.279 33.0232 110.365 34.2069 110.457C35.3269 110.551 36.4546 107.997 36.9068 104.539C35.3921 104.301 33.901 103.932 32.4506 103.435Z" fill="#6153BD"/>
<path d="M65.0909 117.188C64.2462 117.57 63.4851 118.115 62.8513 118.791C62.2174 119.468 61.7232 120.263 61.397 121.131C60.7378 122.883 60.8013 124.825 61.5737 126.531C62.346 128.236 63.764 129.565 65.5158 130.225C66.3834 130.552 67.3069 130.705 68.2335 130.675C69.1601 130.644 70.0718 130.432 70.9163 130.05L65.0909 117.188Z" fill="#6153BD"/>
<path d="M129.2 46.7215L129.24 48.6633C131.567 48.09 131.514 47.2535 129.2 46.7215Z" fill="#6153BD"/>
<path d="M89.0715 40.6161C89.369 41.132 91.0931 40.7225 93.3009 39.7117C92.9152 38.9536 92.4896 38.1717 92.0507 37.3576C90.0158 38.78 88.7705 40.0946 89.0715 40.6161Z" fill="#6153BD"/>
<path d="M100.909 33.7799C100.71 33.4341 99.8718 33.4999 98.6881 33.8863L99.7122 35.6419C100.643 34.804 101.109 34.1257 100.909 33.7799Z" fill="#6153BD"/>
<path d="M66.7667 90.3602C66.4173 91.4735 65.9538 92.5476 65.3835 93.5655L66.8066 94.2445L66.7667 90.3602Z" fill="#6153BD"/>
<path d="M58.919 79.2547L58.2806 81.2763L57.855 79.8133L58.919 79.2547Z" fill="#6153BD"/>
<path d="M117.229 47.6924C117.229 48.3308 119.144 48.8628 121.804 49.0623C121.844 47.985 121.857 47.0939 121.871 46.3225C119.171 46.5087 117.229 47.054 117.229 47.6924Z" fill="#6153BD"/>
<path d="M71.2754 65.3688C71.6401 65.1313 71.9159 64.7799 72.06 64.3693C72.2041 63.9587 72.2083 63.5119 72.072 63.0987C71.9785 62.8131 71.8214 62.5524 71.6127 62.3362C71.4039 62.12 71.1488 61.954 70.8666 61.8506C70.5844 61.7469 70.2824 61.7083 69.9832 61.7379C70.1637 61.4907 70.2781 61.2016 70.3157 60.8979C70.3854 60.378 70.2471 59.8516 69.9308 59.4332C69.6145 59.0148 69.1458 58.7382 68.6266 58.6635C68.2353 58.6089 67.8366 58.6738 67.4828 58.8497C67.6024 58.4102 67.5672 57.943 67.3831 57.5264C67.199 57.1098 66.8772 56.7692 66.4717 56.5618C66.0662 56.3544 65.6017 56.2928 65.1562 56.3873C64.7107 56.4818 64.3112 56.7266 64.0248 57.0808C64.0275 56.6022 63.8565 56.1388 63.5434 55.7768C63.2303 55.4148 62.7964 55.1787 62.3224 55.1124L62.1894 55.0858C61.7279 55.0219 61.2587 55.123 60.8644 55.3711C60.4701 55.6193 60.1761 55.9987 60.0341 56.4424C59.8788 56.0303 59.5905 55.6816 59.215 55.4515C58.8394 55.2215 58.3979 55.1231 57.9602 55.1719C57.5224 55.2207 57.1134 55.4139 56.7978 55.721C56.4821 56.0282 56.2778 56.4318 56.217 56.868C56.206 56.9249 56.2015 56.9829 56.2037 57.0409C55.9013 56.7489 55.5155 56.5583 55.0998 56.4956C54.8421 56.4589 54.5796 56.4735 54.3275 56.5387C54.0755 56.6038 53.8388 56.7182 53.6311 56.8752C53.4234 57.0322 53.2489 57.2287 53.1175 57.4535C52.986 57.6782 52.9004 57.9267 52.8654 58.1847C52.8304 58.4619 52.8542 58.7426 52.934 59.01C52.7662 58.9291 52.5866 58.8752 52.402 58.8504C52.0102 58.7961 51.6111 58.8604 51.2562 59.0351C50.9013 59.2098 50.6069 59.4869 50.411 59.8305C50.2151 60.1742 50.1267 60.5686 50.1572 60.963C50.1876 61.3574 50.3356 61.7336 50.582 62.0431C50.1164 61.9876 49.6462 62.0992 49.2551 62.3579C48.864 62.6166 48.5774 63.0058 48.4464 63.456C48.3153 63.9062 48.3482 64.3884 48.5394 64.8166C48.7305 65.2448 49.0673 65.5913 49.49 65.7944C49.0243 65.8566 48.5957 66.0822 48.2809 66.431C47.966 66.7797 47.7853 67.229 47.7709 67.6987C47.7565 68.1684 47.9094 68.6279 48.2024 68.9953C48.4953 69.3626 48.9092 69.614 49.3703 69.7046C49.0354 69.9264 48.7761 70.245 48.627 70.618C48.4778 70.9909 48.4459 71.4005 48.5355 71.7921C48.625 72.1836 48.8319 72.5386 49.1284 72.8096C49.4248 73.0806 49.7969 73.2548 50.1949 73.3089C50.358 73.3222 50.5218 73.3222 50.6849 73.3089C50.5185 73.5622 50.4095 73.8489 50.3657 74.1489C50.296 74.6688 50.4343 75.1951 50.7506 75.6136C51.0669 76.032 51.5356 76.3086 52.0548 76.3833C52.4505 76.4449 52.8555 76.3797 53.2119 76.1971C53.1142 76.5632 53.1236 76.9496 53.2392 77.3105C53.3547 77.6713 53.5714 77.9914 53.8636 78.2327C53.6133 76.9643 53.6043 75.66 53.837 74.3883C54.7547 67.7383 58.226 71.183 58.9043 73.5903C59.0639 74.0159 59.3432 74.0292 59.8353 73.2977C60.8601 71.7815 62.7354 73.8031 60.5409 75.9045C60.3148 76.1306 60.2077 77.6734 61.1009 79.3492C61.39 79.611 61.7519 79.7776 62.1383 79.828C62.4101 79.8646 62.6866 79.8446 62.9503 79.7692C63.214 79.6937 63.4592 79.5646 63.6706 79.3898C63.8818 79.2148 64.0544 78.9979 64.1775 78.7528C64.3006 78.5078 64.3716 78.2399 64.386 77.966C64.6458 78.2267 64.9733 78.4096 65.3316 78.4939C65.6898 78.5782 66.0646 78.5605 66.4133 78.4428C66.7621 78.3252 67.0709 78.1123 67.305 77.8283C67.539 77.5442 67.6889 77.2003 67.7376 76.8355C67.7739 76.5642 67.7558 76.2884 67.6844 76.0242C67.9648 76.152 68.2713 76.2124 68.5792 76.2008C68.8872 76.1891 69.1882 76.1057 69.4582 75.9572C69.7282 75.8086 69.9597 75.599 70.1344 75.3451C70.309 75.0912 70.4219 74.8 70.4641 74.4947C70.5026 74.2323 70.487 73.9648 70.4184 73.7087C70.3498 73.4525 70.2296 73.2131 70.0651 73.0051C70.5318 73.064 71.0042 72.9549 71.3978 72.6974C71.7914 72.4399 72.0805 72.0507 72.2134 71.5995C72.3454 71.1483 72.3129 70.6648 72.1216 70.2353C71.9303 69.8058 71.5927 69.4582 71.169 69.2545C71.6003 69.1991 72.0015 69.004 72.3114 68.6989C72.6212 68.3939 72.8226 67.9957 72.8847 67.5654C72.9534 67.0621 72.824 66.5518 72.5238 66.142C72.2236 65.7322 71.776 65.455 71.2754 65.3688Z" fill="#6153BD"/>
<path d="M131.487 59.3033C133.482 63.7831 134.567 68.6139 134.682 73.5161C134.797 78.4184 133.938 83.2947 132.156 87.8629C130.373 92.431 127.702 96.6003 124.298 100.129C120.893 103.658 116.823 106.477 112.321 108.422" stroke="#120071" stroke-width="2" stroke-linecap="round" stroke-linejoin="round"/>
<path d="M103.263 37.7832C110.163 38.8339 116.624 41.8177 121.897 46.389" stroke="#120071" stroke-width="2" stroke-linecap="round" stroke-linejoin="round"/>
<path d="M81.1181 41.2412C84.3364 39.6316 87.7733 38.5026 91.3192 37.8903" stroke="#120071" stroke-width="2" stroke-linecap="round" stroke-linejoin="round"/>
<path d="M59.0653 103.86L73.8556 136.5" stroke="#120071" stroke-width="2" stroke-linecap="round" stroke-linejoin="round"/>
<path d="M51.1385 86.3569L30.2701 40.3368C29.1396 37.8868 30.7356 35.7217 33.4089 36.0668L69.6395 40.8016C71.7456 41.077 73.748 41.8798 75.4612 43.1354C77.1743 44.391 78.5427 46.0589 79.4395 47.9843L120.431 136.473" stroke="#120071" stroke-width="2" stroke-linecap="round" stroke-linejoin="round"/>
<path d="M58.4899 82.1163C53.8756 85.23 48.8554 87.6951 43.5701 89.4425C40.978 89.8147 38.3671 90.0412 35.7497 90.1208" stroke="#120071" stroke-width="2" stroke-linecap="round" stroke-linejoin="round"/>
<path d="M38.3964 95.8671L33.18 84.6412C32.7438 83.7087 31.9554 82.9874 30.9878 82.6358C30.0202 82.2842 28.9527 82.331 28.0196 82.7659L12.607 89.9612C11.6743 90.3972 10.9529 91.1856 10.6012 92.1532C10.2494 93.1208 10.2961 94.1884 10.731 95.1216L19.9353 114.913C20.3714 115.846 21.1599 116.567 22.1275 116.919C23.095 117.27 24.1626 117.224 25.0957 116.789L40.3515 109.673" stroke="#120071" stroke-width="2" stroke-linecap="round" stroke-linejoin="round"/>
<path d="M20.2412 86.3835C20.2412 86.3835 9.87698 85.4301 5.62378 82.4068C1.37058 79.3835 4.90278 72.0468 10.3719 75.9423C15.9285 79.8973 20.2412 86.3835 20.2412 86.3835Z" stroke="#120071" stroke-width="2" stroke-linecap="round" stroke-linejoin="round"/>
<path d="M20.23 86.3835C20.23 86.3835 26.6742 78.218 27.412 73.0429C28.1498 67.8678 20.3987 65.3968 19.46 72.03C18.4968 78.7906 20.23 86.3835 20.23 86.3835Z" stroke="#120071" stroke-width="2" stroke-linecap="round" stroke-linejoin="round"/>
<path d="M58.2596 81.3449L58.919 79.2449C58.919 79.2449 52.7093 83.461 53.8517 74.3897C54.6714 67.8797 58.079 71.0297 58.8679 73.4244C59.0527 73.9844 59.2781 74.1615 59.8479 73.3124C60.8713 71.7955 62.7585 73.8297 60.5528 75.9192C60.1293 76.321 60.291 79.3065 62.8278 81.4793C64.4378 82.8597 69.4246 83.8201 76.6465 81.7593" stroke="#120071" stroke-width="2" stroke-linecap="round" stroke-linejoin="round"/>
<path d="M57.855 79.8133C58.2704 81.6055 58.863 83.3519 59.6239 85.0269" stroke="#120071" stroke-width="2" stroke-linecap="round" stroke-linejoin="round"/>
<path d="M61.7925 80.3852C60.1825 85.5323 55.4477 91.2513 51.737 95.907C46.326 96.3711 40.8807 96.2458 35.497 95.5339" stroke="#120071" stroke-width="2" stroke-linecap="round" stroke-linejoin="round"/>
<path d="M81.8895 92.169C79.5827 94.0009 76.7865 95.111 73.8514 95.36C70.9163 95.6091 67.9729 94.986 65.3905 93.569C63.5221 97.0716 61.4454 100.459 59.1717 103.713C58.4204 104.846 57.3029 105.686 56.0063 106.093C48.9898 108.248 41.7766 109.7 34.4729 110.429" stroke="#120071" stroke-width="2" stroke-linecap="round" stroke-linejoin="round"/>
<path d="M75.3718 95.1755C77.8729 99.1788 80.53 101.594 82.0091 100.908C86.585 98.7847 75.9374 75.7526 71.2887 77.8974C70.2513 78.3769 70.0118 80.2648 70.4486 82.8856" stroke="#120071" stroke-width="2" stroke-linecap="round" stroke-linejoin="round"/>
<path d="M117.229 47.6924C117.362 51.7888 117.867 66.5924 117.867 68.1219C115.527 68.481 97.0522 72.9232 96.0015 73.1094" stroke="#120071" stroke-width="2" stroke-linecap="round" stroke-linejoin="round"/>
<path d="M103.53 89.2962C131.581 79.4262 130.966 79.8924 131.53 72.1917C131.888 67.284 131.304 53.2119 130.958 47.6791" stroke="#120071" stroke-width="2" stroke-linecap="round" stroke-linejoin="round"/>
<path d="M89.0715 40.6161C91.0931 44.1805 99.1515 57.5078 99.8718 58.8511C99.1018 59.423 95.5759 63.2408 92.6618 65.9806" stroke="#120071" stroke-width="2" stroke-linecap="round" stroke-linejoin="round"/>
<path d="M110.273 69.7844C115.766 61.285 114.7 59.1717 113.003 55.6325C110.805 51.0587 103.559 38.1024 100.873 33.74" stroke="#120071" stroke-width="2" stroke-linecap="round" stroke-linejoin="round"/>
<path d="M92.0906 10.5434C89.7232 14.7861 87.2494 24.5224 87.0506 28.9387C87.7427 30.0474 88.4211 31.1647 89.0855 32.2903C90.9706 30.6283 93.102 29.2686 95.4037 28.2597C95.4149 27.0305 95.7747 21.3647 92.0906 10.5434Z" stroke="#120071" stroke-width="2" stroke-linecap="round" stroke-linejoin="round"/>
<path d="M30.1854 37.5235C30.9067 35.8367 32.1575 34.4306 33.7487 33.5177C35.3399 32.6047 37.1851 32.2346 39.0054 32.4632L74.5311 37.0384C76.0702 37.2355 77.5342 37.8197 78.7862 38.7364C80.0382 39.6531 81.0372 40.8723 81.69 42.28L125.329 136.475" stroke="#120071" stroke-width="2" stroke-linecap="round" stroke-linejoin="round"/>
<path d="M37.52 41.6934C38.01 42.7574 37.8392 43.8879 37.1343 44.2204C36.4294 44.5529 35.4452 43.9544 34.9531 42.8904C34.461 41.8264 34.6311 40.6903 35.3388 40.3634C36.0465 40.0365 37.03 40.6294 37.52 41.6934Z" stroke="#120071" stroke-width="2" stroke-linecap="round" stroke-linejoin="round"/>
<path d="M15.3601 47.3599L18.9112 55.0473" stroke="#120071" stroke-width="2" stroke-linecap="round" stroke-linejoin="round"/>
<path d="M20.9727 49.4214L13.2986 52.9858" stroke="#120071" stroke-width="2" stroke-linecap="round" stroke-linejoin="round"/>
<path d="M117.415 53.0257C121.907 54.5006 126.505 54.3557 131.235 53.0257" stroke="#120071" stroke-width="2" stroke-linecap="round" stroke-linejoin="round"/>
<path d="M91.7938 45.2564C96.4089 44.3763 100.564 41.892 103.524 38.2431" stroke="#120071" stroke-width="2" stroke-linecap="round" stroke-linejoin="round"/>
<path d="M66.2347 9.6656L57.0437 13.5233L65.2106 7.8036L63.0959 3.9599C63.0267 3.83493 62.9284 3.72839 62.8095 3.64923C62.6906 3.57006 62.5544 3.52059 62.4124 3.50495C62.2703 3.48932 62.1266 3.50798 61.9933 3.55937C61.86 3.61076 61.741 3.69339 61.6462 3.8003L50.5932 16.1035C50.471 16.2416 50.3944 16.4141 50.374 16.5973C50.3535 16.7806 50.3902 16.9657 50.4791 17.1273C50.5679 17.2889 50.7045 17.4191 50.8701 17.5001C51.0358 17.5811 51.2224 17.609 51.4045 17.5798L67.7243 14.8267C67.8646 14.8039 67.9973 14.7477 68.1114 14.663C68.2256 14.5784 68.3177 14.4676 68.3802 14.3399C68.4427 14.2123 68.4738 14.0716 68.4707 13.9295C68.4677 13.7874 68.4306 13.6481 68.3627 13.5233L66.2347 9.6656Z" stroke="#120071" stroke-width="2" stroke-linecap="round" stroke-linejoin="round"/>
<path d="M122.097 112.546C128.508 115.991 129.851 106.161 136.262 109.606" stroke="#120071" stroke-width="2" stroke-linecap="round" stroke-linejoin="round"/>
<path d="M29.9642 94.71C27.4119 94.1125 24.9669 93.1256 22.715 91.784C21.3584 91.0392 20.8495 91.7882 22.1697 92.9544C23.3922 93.9914 24.7207 94.8966 26.1331 95.655" stroke="#120071" stroke-width="2" stroke-linecap="round" stroke-linejoin="round"/>
<path d="M24.92 94.962C23.4811 94.5021 22.0729 93.9513 20.7039 93.3128C19.3361 92.5911 18.9364 93.5228 20.3315 94.5896C22.0244 95.7435 23.8029 96.7663 25.6515 97.6493" stroke="#120071" stroke-width="2" stroke-linecap="round" stroke-linejoin="round"/>
<path d="M23.6327 96.6385C22.5891 96.3963 21.5591 96.0988 20.5471 95.7474C19.117 95.2112 18.8195 96.2094 20.321 97.0641C21.9092 97.8893 23.5643 98.5789 25.2686 99.1256" stroke="#120071" stroke-width="2" stroke-linecap="round" stroke-linejoin="round"/>
<path d="M36.9068 104.539C36.5344 104.658 30.0034 102.864 26.1597 101.373C24.6197 100.775 23.0097 100.174 21.5047 99.4315C19.9899 98.6839 20.0795 97.9363 21.5446 98.2744C22.0759 98.3969 22.7017 98.4739 23.7258 98.6069" stroke="#120071" stroke-width="2" stroke-linecap="round" stroke-linejoin="round"/>
<path d="M32.4506 103.435C32.2644 107.279 33.0232 110.361 34.2069 110.457C37.1686 110.697 38.3369 96.0197 35.3906 95.508C33.2447 95.029 31.2878 93.9277 29.7647 92.3419C26.8478 89.1534 25.9336 89.8415 28.7007 94.297" stroke="#120071" stroke-width="2" stroke-linecap="round" stroke-linejoin="round"/>
<path d="M65.0909 117.201C63.8395 117.766 62.7801 118.684 62.0424 119.842C61.3048 121 60.9209 122.348 60.9378 123.721C60.9504 124.748 61.187 125.76 61.6313 126.686C62.0755 127.612 62.7165 128.43 63.5096 129.082C64.3027 129.735 65.2287 130.206 66.223 130.464C67.2172 130.721 68.2557 130.759 69.2659 130.573C70.2761 130.388 71.2335 129.984 72.0714 129.39C72.9093 128.796 73.6075 128.026 74.117 127.134C74.6266 126.243 74.9353 125.25 75.0215 124.227C75.1078 123.204 74.9696 122.174 74.6165 121.209C74.1124 119.839 73.196 118.658 71.9934 117.829C70.7908 117 69.3611 116.564 67.9007 116.582C66.9315 116.593 65.9751 116.804 65.0909 117.201Z" stroke="#120071" stroke-width="2" stroke-linecap="round" stroke-linejoin="round"/>
<path d="M98.6881 33.8863C99.8718 33.5006 100.707 33.4355 100.909 33.7799C101.469 34.7347 97.4043 37.4199 96.4509 38.0044C95.1909 38.7744 89.7519 41.7956 89.0715 40.6161C88.7705 40.0946 90.0158 38.7807 92.0507 37.3576" stroke="#120071" stroke-width="2" stroke-linecap="round" stroke-linejoin="round"/>
<path d="M95.403 28.2597C93.1025 29.2577 90.9746 30.6136 89.0981 32.277C90.5744 34.7774 92.1172 37.387 93.3016 39.697C95.6115 38.6384 97.7678 37.2727 99.7122 35.637L95.403 28.2597Z" stroke="#120071" stroke-width="2" stroke-linecap="round" stroke-linejoin="round"/>
<path d="M131.567 21.9156C128.282 24.7485 122.323 34.2055 121.219 37.6236C121.418 39.2728 121.578 40.4432 121.685 41.4407C124.134 41.7683 126.619 41.7186 129.053 41.2944L129.027 40.2038C131.873 30.9071 131.979 26.9164 131.567 21.9156Z" stroke="#120071" stroke-width="2" stroke-linecap="round" stroke-linejoin="round"/>
<path d="M129.053 41.2944C126.619 41.7187 124.134 41.768 121.685 41.4407C121.931 43.974 121.971 46.5227 121.804 49.0623C124.29 49.2701 126.792 49.1314 129.24 48.65C129.056 41.2223 129.09 42.5516 129.053 41.2944Z" stroke="#120071" stroke-width="2" stroke-linecap="round" stroke-linejoin="round"/>
<path d="M115.22 33.7932C115.003 33.9605 114.741 34.0596 114.468 34.078C114.194 34.0964 113.921 34.0333 113.684 33.8967C113.446 33.7601 113.255 33.5561 113.133 33.3105C113.011 33.0649 112.965 32.7888 113.001 32.5171C113.036 32.2453 113.151 31.9902 113.332 31.7839C113.512 31.5776 113.75 31.4294 114.014 31.3582C114.279 31.2869 114.559 31.2958 114.818 31.3835C115.078 31.4713 115.306 31.6342 115.473 31.8514C115.695 32.1431 115.793 32.5107 115.746 32.8743C115.698 33.2379 115.509 33.5681 115.22 33.7932Z" stroke="#120071" stroke-width="2" stroke-linecap="round" stroke-linejoin="round"/>
<path d="M72.8847 67.5633C72.8233 67.9939 72.6221 68.3925 72.3121 68.6976C72.0022 69.0028 71.6005 69.1977 71.169 69.2524C71.5934 69.4554 71.9316 69.8029 72.123 70.2326C72.3144 70.6623 72.3465 71.1462 72.2134 71.5974C72.0802 72.0484 71.7911 72.4375 71.3975 72.6949C71.004 72.9524 70.5317 73.0616 70.0651 73.003C70.2288 73.2115 70.3486 73.4509 70.4171 73.707C70.4857 73.963 70.5017 74.2302 70.4641 74.4926C70.41 74.8806 70.2421 75.2438 69.9818 75.5364C69.7214 75.8291 69.3801 76.038 69.0011 76.1369C68.7491 76.202 68.4873 76.2174 68.2297 76.1817C68.0411 76.1554 67.8574 76.1016 67.6844 76.0221C67.7551 76.2867 67.7733 76.5618 67.7376 76.8334C67.6884 77.198 67.5383 77.5415 67.3043 77.8254C67.0703 78.1092 66.7617 78.3221 66.4132 78.4399C66.0645 78.5574 65.6899 78.5751 65.3317 78.491C64.9735 78.4068 64.646 78.2243 64.386 77.9639C64.3881 78.022 64.3839 78.0801 64.3727 78.1368C64.2987 78.6563 64.0223 79.1255 63.6037 79.4419C63.1851 79.7584 62.6583 79.8964 62.1383 79.8259C61.752 79.775 61.3903 79.608 61.1009 79.3471C60.2098 77.6713 60.3134 76.1271 60.5409 75.9024C62.7109 73.7772 60.8587 71.7787 59.8353 73.2956C59.4111 73.9256 59.0849 74.1447 58.863 73.451C58.0965 71.0549 54.7456 67.8629 53.837 74.3862C53.606 75.6581 53.6144 76.9622 53.8636 78.2306C53.6025 78.0163 53.4007 77.7387 53.2773 77.4243C53.1539 77.1099 53.1131 76.7691 53.1587 76.4344C53.1692 76.3532 53.1867 76.2734 53.2119 76.195C52.8546 76.3749 52.4505 76.44 52.0548 76.3812C51.5367 76.3043 51.0694 76.0271 50.7535 75.6093C50.4377 75.1914 50.2984 74.6663 50.3657 74.1468C50.4098 73.8472 50.519 73.5602 50.6849 73.3068C50.5218 73.3201 50.358 73.3201 50.1949 73.3068C49.7964 73.2534 49.4238 73.0796 49.1268 72.8086C48.8298 72.5377 48.6226 72.1825 48.5329 71.7906C48.4433 71.3987 48.4754 70.9887 48.6251 70.6156C48.7747 70.2424 49.0347 69.9239 49.3703 69.7025C48.9092 69.612 48.4953 69.3606 48.2024 68.9932C47.9094 68.6258 47.7565 68.1663 47.7709 67.6966C47.7853 67.227 47.966 66.7777 48.2809 66.4289C48.5957 66.0801 49.0243 65.8545 49.49 65.7923C49.0681 65.5889 48.732 65.2425 48.5413 64.8147C48.3507 64.3869 48.3178 63.9054 48.4486 63.4556C48.5794 63.0059 48.8653 62.6171 49.2556 62.3582C49.646 62.0993 50.1154 61.9872 50.5806 62.0417C50.3339 61.7323 50.1856 61.3561 50.1549 60.9615C50.1242 60.567 50.2126 60.1723 50.4086 59.8285C50.6045 59.4848 50.8991 59.2076 51.2542 59.033C51.6094 58.8584 52.0087 58.7943 52.4006 58.849C52.5853 58.8736 52.7649 58.9274 52.9326 59.0086C52.8381 58.6918 52.8249 58.3562 52.8941 58.0329C52.9633 57.7096 53.1128 57.4089 53.3287 57.1585C53.5447 56.9082 53.8201 56.7161 54.1298 56.6002C54.4394 56.4842 54.7732 56.448 55.1005 56.4949C55.5163 56.5558 55.9027 56.7469 56.2044 57.0402C56.2276 56.5859 56.4065 56.1535 56.711 55.8155C57.0154 55.4776 57.427 55.2548 57.8764 55.1846C58.3258 55.1144 58.7857 55.201 59.1788 55.4299C59.5719 55.6589 59.8741 56.0161 60.0348 56.4417C60.7425 54.2549 64.0556 54.8541 64.0248 57.0801C64.3115 56.7267 64.7109 56.4826 65.1561 56.3886C65.6014 56.2945 66.0654 56.3563 66.4705 56.5635C66.8756 56.7708 67.1972 57.1109 67.3815 57.5269C67.5658 57.943 67.6016 58.4097 67.4828 58.849C67.8363 58.6722 68.2353 58.6073 68.6266 58.6628C69.1466 58.7371 69.6162 59.014 69.933 59.4331C70.2498 59.8521 70.3881 60.3794 70.3178 60.9C70.2795 61.2035 70.1651 61.4925 69.9853 61.74C70.2838 61.7127 70.5846 61.7529 70.8655 61.8574C71.1464 61.9619 71.4003 62.1282 71.6084 62.3439C71.8164 62.5596 71.9734 62.8193 72.0677 63.1038C72.162 63.3884 72.1912 63.6904 72.1532 63.9877C72.1144 64.2677 72.016 64.536 71.8646 64.7747C71.7131 65.0133 71.5122 65.2166 71.2754 65.3709C71.7759 65.4557 72.2238 65.7319 72.5242 66.1411C72.8245 66.5503 72.9539 67.0604 72.8847 67.5633Z" stroke="#120071" stroke-width="2" stroke-linecap="round" stroke-linejoin="round"/>
<path d="M18.5521 87.1815L21.5845 93.6985" stroke="#120071" stroke-width="2" stroke-linecap="round" stroke-linejoin="round"/>
<path d="M24.9228 100.868L31.0415 114.009" stroke="#120071" stroke-width="2" stroke-linecap="round" stroke-linejoin="round"/>
<path d="M22.0899 85.5323L25.7075 93.2995" stroke="#120071" stroke-width="2" stroke-linecap="round" stroke-linejoin="round"/>
<path d="M30.0839 102.717L32.9833 108.941" stroke="#120071" stroke-width="2" stroke-linecap="round" stroke-linejoin="round"/>
<path d="M33.4355 109.885L34.5793 112.36" stroke="#120071" stroke-width="2" stroke-linecap="round" stroke-linejoin="round"/>
<path d="M121.87 46.3225C120.7 46.403 116.76 46.8328 117.272 47.8779C117.808 48.965 123.012 49.1575 124.331 49.154C129.595 49.1407 133.39 47.6931 129.186 46.7082" stroke="#120071" stroke-width="2" stroke-linecap="round" stroke-linejoin="round"/>
<path d="M65.394 93.5627C65.92 92.5204 66.3915 91.4514 66.8066 90.3602V94.2571" stroke="#120071" stroke-width="2" stroke-linecap="round" stroke-linejoin="round"/>
</svg>
