<svg width="123" height="123" viewBox="0 0 123 123" fill="none" xmlns="http://www.w3.org/2000/svg">
<path d="M51.0887 46.0057C49.3009 47.5014 43.7622 48.553 38.5623 61.6753L30.9087 54.7928C27.3759 56.5856 24.6386 59.6312 23.2316 63.3346L34.7414 73.677C36.0745 74.8709 37.8269 75.4873 39.6139 75.3909C41.401 75.2945 43.0768 74.4933 44.2738 73.1629L49.0432 67.8536L47.1484 80.4193L39.3895 89.0662C41.3365 92.4845 44.337 95.1812 47.9429 96.7537L56.1575 87.616C57.3736 86.2634 58.2331 84.6288 58.6581 82.8602C60.4459 75.3572 59.8383 62.1193 60.9951 50.7148C56.3586 49.8501 54.6409 48.7984 51.0887 46.0057Z" fill="#FECFC4"/>
<path d="M114.412 46.5315L101.091 60.5886L106.373 37.3354L119.694 23.2784L114.412 46.5315Z" fill="#6153BD"/>
<path d="M72.1801 41.3784C72.0048 41.2616 71.701 41.3668 71.3037 41.6472L72.2262 42.4067C72.3787 41.8692 72.3787 41.4953 72.1801 41.3784Z" fill="#6153BD"/>
<path d="M63.9305 48.5647C63.6845 49.1957 63.7171 49.7258 63.9071 49.8501C64.0971 49.9743 64.6451 49.8501 65.0141 49.371L63.9305 48.5647Z" fill="#6153BD"/>
<path d="M69.249 41.8926C69.0737 41.7757 68.7699 41.8809 68.3726 42.1614L69.2951 42.9209C69.4458 42.3951 69.4335 42.0211 69.249 41.8926Z" fill="#6153BD"/>
<path d="M41.9159 86.1904L39.3329 89.0649C41.2799 92.4833 44.2804 95.18 47.8864 96.7524L50.5856 93.7494C47.0364 92.1044 44.0291 89.4825 41.9159 86.1904Z" fill="#6153BD"/>
<path d="M56.7793 43.8089L61.1027 50.5278L62.2479 48.4479L56.7793 43.8089Z" fill="#6153BD"/>
<path d="M61.2079 26.8657L61.8038 28.151L62.131 27.2747L61.2079 26.8657Z" fill="#6153BD"/>
<path d="M58.1114 57.7608L49.0321 67.8567L48.109 74.0497L58.1114 57.7608Z" fill="#6153BD"/>
<path d="M36.0501 96.5901C35.2737 97.4219 34.4907 98.2477 33.7014 99.0673C33.0587 102.865 33.3625 111.582 34.5894 115.637C37.8489 110.215 39.0297 106.781 40.6779 101.194C38.9023 99.9128 37.3404 98.359 36.0501 96.5901Z" fill="#6153BD"/>
<path d="M23.1855 51.7781C22.6246 51.2172 21.9819 50.5278 21.1289 49.6047C14.514 50.5395 7.23486 52.7479 4.15002 54.2086C8.85517 55.9878 13.8952 56.706 18.91 56.3119L19.1671 56.5456C20.27 54.7712 21.6235 53.1655 23.1855 51.7781Z" fill="#6153BD"/>
<path d="M33.4326 57.0013L30.9111 54.7258C27.381 56.522 24.6447 59.5664 23.2341 63.2675L25.7931 65.5695C27.5634 62.106 30.194 59.1556 33.4326 57.0013Z" fill="#6153BD"/>
<path d="M66.3492 19.2587C66.3993 18.9756 66.3469 18.6838 66.2012 18.4359C66.0556 18.1879 65.8264 17.9999 65.5547 17.9057C65.6851 17.7849 65.7875 17.637 65.8549 17.4725C65.9224 17.308 65.9531 17.1307 65.945 16.9531C65.9369 16.7755 65.8902 16.6018 65.8082 16.444C65.7261 16.2863 65.6106 16.1484 65.4698 16.0398C65.281 15.895 65.054 15.8084 64.8167 15.7908C64.8892 15.6368 64.9289 15.4694 64.9334 15.2992C64.9378 15.1291 64.9068 14.9598 64.8424 14.8023C64.778 14.6447 64.6815 14.5022 64.5592 14.3839C64.4368 14.2656 64.2912 14.174 64.1316 14.1149C63.9182 14.0356 63.687 14.0171 63.4637 14.0614C63.4928 13.8345 63.4575 13.6039 63.3616 13.3962C63.2658 13.1884 63.1134 13.0119 62.9219 12.8867C62.7306 12.7616 62.5081 12.6925 62.2796 12.6874C62.0511 12.6823 61.8258 12.7413 61.6291 12.8578C61.5978 12.6837 61.5293 12.5184 61.4284 12.3731C61.3274 12.2279 61.1964 12.1061 61.0441 12.016C60.8918 11.926 60.722 11.8698 60.546 11.8513C60.3701 11.8328 60.1922 11.8525 60.0246 11.9089C59.8005 11.9846 59.6029 12.1234 59.4557 12.3086C59.3442 12.0855 59.1702 11.8997 58.9549 11.7739C58.7396 11.6481 58.4923 11.5877 58.2432 11.6001C57.9941 11.6125 57.7541 11.6971 57.5523 11.8437C57.3505 11.9903 57.1958 12.1924 57.107 12.4255C56.9658 12.2768 56.7893 12.166 56.594 12.1033C56.3987 12.0406 56.1908 12.0281 55.9894 12.0668C55.788 12.1055 55.5995 12.1942 55.4413 12.3248C55.2832 12.4554 55.1604 12.6237 55.0843 12.8142C55.1044 12.522 55.0406 12.2302 54.9004 11.973C54.7603 11.7158 54.5496 11.5041 54.2932 11.3626C54.0368 11.2211 53.7453 11.1558 53.453 11.1743C53.1607 11.1929 52.8798 11.2945 52.6434 11.4673C52.5139 11.1684 52.2963 10.9162 52.0196 10.7444C51.7429 10.5726 51.4203 10.4894 51.095 10.5059C50.7697 10.5225 50.4572 10.6379 50.1994 10.8369C49.9415 11.0358 49.7505 11.3088 49.652 11.6192C49.3845 11.4574 49.074 11.3815 48.762 11.4016C48.4501 11.4217 48.1518 11.5369 47.9074 11.7317C47.6629 11.9264 47.484 12.1914 47.3947 12.4909C47.3053 12.7905 47.31 13.1102 47.4079 13.407C47.095 13.4424 46.8006 13.5734 46.5649 13.7822C46.3292 13.9909 46.1635 14.2673 46.0905 14.5736C46.0175 14.8799 46.0407 15.2012 46.1569 15.4939C46.2731 15.7865 46.4767 16.0362 46.74 16.209C46.4935 16.4085 46.315 16.6797 46.2291 16.9851C46.1433 17.2904 46.1544 17.6149 46.2608 17.9137C46.3673 18.2125 46.5638 18.4709 46.8234 18.6532C47.0829 18.8355 47.3926 18.9328 47.7098 18.9316C47.6458 19.2363 47.6765 19.5533 47.7977 19.8402C47.9189 20.127 48.1248 20.3699 48.3879 20.5365C48.6511 20.703 48.9588 20.7851 49.2699 20.7719C49.581 20.7586 49.8806 20.6506 50.1286 20.4623C50.2269 20.7143 50.3922 20.9347 50.6066 21.0996C50.821 21.2646 51.0763 21.3679 51.3451 21.3983C51.2956 21.5728 51.2855 21.7561 51.3157 21.935C51.3458 22.1138 51.4153 22.2838 51.5192 22.4324C51.6232 22.5811 51.7588 22.7048 51.9165 22.7945C52.0741 22.8842 52.2497 22.9377 52.4306 22.9512C52.3329 23.1578 52.2951 23.3877 52.3214 23.6147C52.3477 23.8417 52.4371 24.0568 52.5794 24.2356C52.7218 24.4145 52.9113 24.5498 53.1266 24.6264C53.342 24.703 53.5744 24.7177 53.7977 24.6689C53.7709 24.8961 53.8083 25.1262 53.9057 25.3332C54.0031 25.5402 54.1566 25.7157 54.3488 25.8399C54.5409 25.964 54.764 26.0317 54.9927 26.0354C55.2215 26.0391 55.4466 25.9786 55.6427 25.8608C55.6844 26.0939 55.7928 26.31 55.9547 26.4828C56.1166 26.6557 56.3251 26.7779 56.555 26.8348C56.7849 26.8917 57.0264 26.8807 57.2502 26.8032C57.474 26.7258 57.6706 26.5851 57.8161 26.3983C57.9635 26.6096 58.1545 26.7867 58.3763 26.9177C58.598 27.0488 58.8453 27.1306 59.1015 27.1578C59.4929 26.4507 59.7579 25.6806 59.8844 24.8823C60.0144 24.0694 59.8625 23.2366 59.4539 22.5219C57.7128 21.9494 58.4957 19.9045 59.6759 20.6991C60.2368 21.0847 60.4496 21.0601 60.4938 20.6874C60.4971 20.5797 60.5295 20.475 60.5876 20.3842C60.6456 20.2935 60.7271 20.2202 60.8235 20.172C60.9274 20.3912 61.0937 20.5747 61.3016 20.6996C61.5095 20.8244 61.7497 20.8851 61.9919 20.8738C62.2342 20.8626 62.4677 20.78 62.6631 20.6364C62.8586 20.4928 63.0072 20.2947 63.0904 20.0669C63.2035 20.1863 63.3394 20.2819 63.4901 20.3479C63.6408 20.4139 63.8031 20.4491 63.9676 20.4512C64.1321 20.4534 64.2954 20.4226 64.4478 20.3606C64.6002 20.2986 64.7386 20.2066 64.8548 20.0902C65.144 20.7712 65.3632 21.4799 65.5092 22.2052C65.7742 22.0562 65.9747 21.8142 66.0717 21.526C66.1687 21.2378 66.1554 20.9239 66.0344 20.645C65.9544 20.4601 65.8302 20.2977 65.6728 20.172C65.8487 20.0828 66.0014 19.9538 66.1189 19.7953C66.2363 19.6368 66.3152 19.4531 66.3492 19.2587Z" fill="#6153BD"/>
<path d="M91.8693 15.9168C91.7907 15.4431 91.5733 15.0033 91.2449 14.653C90.9164 14.3028 90.4914 14.0577 90.0237 13.9488C89.5164 13.8309 88.9845 13.8792 88.5067 14.0867C88.029 14.2943 87.6306 14.6499 87.3705 15.1012C87.1103 15.5525 87.0022 16.0754 87.0621 16.5929C87.1219 17.1103 87.3466 17.5948 87.7029 17.9747C88.0592 18.3547 88.5283 18.6099 89.0408 18.7029C89.5534 18.7958 90.0822 18.7214 90.5492 18.4907C91.0163 18.2601 91.3967 17.8853 91.6344 17.4218C91.8721 16.9583 91.9545 16.4307 91.8693 15.9168Z" fill="#6153BD"/>
<path d="M19.3288 70.3929L13.8486 72.1567L16.113 85.525L19.3288 70.3929Z" fill="#6153BD"/>
<path d="M95.4333 47.2794L92.29 50.1656C93.3927 50.3993 94.464 50.764 95.48 51.2523C95.9105 51.4355 96.3059 51.6926 96.6485 52.0118C97.1276 52.561 94.5575 51.7781 93.2949 51.6379H93.2832C93.5384 51.7726 93.7709 51.9454 93.9726 52.152C94.3871 52.6262 91.2168 51.553 90.9345 51.7547C92.1498 52.3039 94.0311 53.3439 94.4868 54.1532C95.0243 55.1231 92.2666 53.1944 90.4788 53.136C91.6123 53.6618 92.8509 54.3986 93.2949 55.2166C93.9025 56.3236 91.7057 54.2941 89.0883 54.2116H89.0766C91.5772 55.7307 92.7457 56.9791 89.1935 55.4386C88.5423 55.1472 87.8474 54.9656 87.1369 54.9011L79.9974 61.4299L101.077 60.6119L104.174 46.9639L95.4333 47.2794Z" fill="#6153BD"/>
<path d="M114.412 46.5315L101.091 60.5886L106.373 37.3354L119.694 23.2784L114.412 46.5315Z" stroke="#120071" stroke-width="2" stroke-linejoin="round"/>
<path d="M95.4333 47.2794L92.29 50.1656C93.3927 50.3993 94.464 50.764 95.48 51.2523C95.9105 51.4355 96.3059 51.6926 96.6485 52.0118C97.1276 52.561 94.5575 51.7781 93.2949 51.6379H93.2832C93.5384 51.7726 93.7709 51.9454 93.9726 52.152C94.3871 52.6262 91.2168 51.553 90.9345 51.7547C92.1498 52.3039 94.0311 53.3439 94.4868 54.1532C95.0243 55.1231 92.2666 53.1944 90.4788 53.136C91.6123 53.6618 92.8509 54.3986 93.2949 55.2166C93.9025 56.3236 91.7057 54.2941 89.0883 54.2116H89.0766C91.5772 55.7307 92.7457 56.9791 89.1935 55.4386C88.5423 55.1472 87.8474 54.9656 87.1369 54.9011L79.9974 61.4299L101.077 60.6119L104.174 46.9639L95.4333 47.2794Z" stroke="#120071" stroke-width="2" stroke-linejoin="round"/>
<path d="M66.3493 19.2587C66.3994 18.9756 66.3469 18.6838 66.2013 18.4359C66.0557 18.1879 65.8264 17.9999 65.5547 17.9057C65.6851 17.7849 65.7876 17.637 65.855 17.4725C65.9224 17.308 65.9532 17.1307 65.9451 16.9531C65.937 16.7755 65.8903 16.6018 65.8082 16.444C65.7262 16.2863 65.6107 16.1484 65.4699 16.0398C65.281 15.895 65.054 15.8084 64.8167 15.7908C64.8892 15.6368 64.929 15.4694 64.9334 15.2992C64.9378 15.1291 64.9069 14.9598 64.8425 14.8023C64.778 14.6447 64.6816 14.5022 64.5592 14.3839C64.4369 14.2656 64.2913 14.174 64.1316 14.1149C63.9182 14.0356 63.687 14.0171 63.4637 14.0614C63.4929 13.8345 63.4575 13.6039 63.3617 13.3962C63.2659 13.1884 63.1135 13.0119 62.9219 12.8867C62.7307 12.7616 62.5082 12.6925 62.2797 12.6874C62.0512 12.6823 61.8258 12.7413 61.6292 12.8578C61.5979 12.6837 61.5294 12.5184 61.4284 12.3731C61.3275 12.2279 61.1964 12.1061 61.0442 12.016C60.8919 11.926 60.722 11.8698 60.5461 11.8513C60.3702 11.8328 60.1923 11.8525 60.0246 11.9089C59.8005 11.9846 59.603 12.1234 59.4558 12.3086C59.3443 12.0855 59.1703 11.8997 58.955 11.7739C58.7396 11.6481 58.4923 11.5877 58.2433 11.6001C57.9942 11.6125 57.7541 11.6971 57.5524 11.8437C57.3506 11.9903 57.1959 12.1924 57.1071 12.4255C56.9658 12.2768 56.7894 12.166 56.5941 12.1033C56.3988 12.0406 56.1909 12.0281 55.9894 12.0668C55.788 12.1055 55.5996 12.1942 55.4414 12.3248C55.2832 12.4554 55.1605 12.6237 55.0844 12.8142C55.1044 12.522 55.0406 12.2302 54.9005 11.973C54.7604 11.7158 54.5497 11.5041 54.2933 11.3626C54.0368 11.2211 53.7453 11.1558 53.4531 11.1743C53.1608 11.1929 52.8799 11.2945 52.6434 11.4673C52.514 11.1684 52.2963 10.9162 52.0196 10.7444C51.7429 10.5726 51.4203 10.4894 51.0951 10.5059C50.7698 10.5225 50.4573 10.6379 50.1994 10.8369C49.9415 11.0358 49.7506 11.3088 49.6521 11.6192C49.3846 11.4574 49.074 11.3815 48.7621 11.4016C48.4502 11.4217 48.1519 11.5369 47.9074 11.7317C47.663 11.9264 47.484 12.1914 47.3947 12.4909C47.3054 12.7905 47.31 13.1102 47.4079 13.407C47.095 13.4424 46.8007 13.5734 46.565 13.7822C46.3292 13.9909 46.1636 14.2673 46.0906 14.5736C46.0176 14.8799 46.0407 15.2012 46.157 15.4939C46.2732 15.7865 46.4768 16.0362 46.74 16.209C46.4935 16.4085 46.315 16.6797 46.2292 16.9851C46.1434 17.2904 46.1544 17.6149 46.2609 17.9137C46.3673 18.2125 46.5639 18.4709 46.8234 18.6532C47.083 18.8355 47.3927 18.9328 47.7099 18.9316C47.6459 19.2363 47.6765 19.5533 47.7977 19.8402C47.9189 20.127 48.1249 20.3699 48.388 20.5365C48.6511 20.703 48.9588 20.7851 49.2699 20.7719C49.5811 20.7586 49.8807 20.6506 50.1287 20.4623C50.227 20.7143 50.3922 20.9347 50.6066 21.0996C50.821 21.2646 51.0764 21.3679 51.3452 21.3983C51.2957 21.5728 51.2856 21.7561 51.3157 21.935C51.3459 22.1138 51.4154 22.2838 51.5193 22.4324C51.6232 22.5811 51.7589 22.7047 51.9165 22.7945C52.0741 22.8842 52.2498 22.9377 52.4306 22.9512C52.333 23.1578 52.2952 23.3877 52.3215 23.6147C52.3478 23.8417 52.4372 24.0568 52.5795 24.2356C52.7218 24.4145 52.9114 24.5498 53.1267 24.6264C53.342 24.703 53.5745 24.7177 53.7978 24.6689C53.7709 24.8961 53.8084 25.1262 53.9058 25.3332C54.0032 25.5402 54.1567 25.7157 54.3488 25.8399C54.541 25.964 54.7641 26.0318 54.9928 26.0354C55.2215 26.0391 55.4467 25.9786 55.6428 25.8608C55.6845 26.0939 55.7928 26.31 55.9547 26.4828C56.1166 26.6557 56.3251 26.7779 56.5551 26.8348C56.785 26.8917 57.0264 26.8807 57.2502 26.8032C57.474 26.7258 57.6706 26.5851 57.8162 26.3983C57.9635 26.6096 58.1546 26.7867 58.3763 26.9177C58.5981 27.0488 58.8454 27.1306 59.1015 27.1578C59.493 26.4507 59.7579 25.6806 59.8844 24.8823C60.0144 24.0694 59.8625 23.2366 59.4539 22.5219C57.7129 21.9494 58.4958 19.9045 59.6759 20.6991C60.2368 21.0847 60.4496 21.0601 60.4939 20.6874C60.4972 20.5797 60.5296 20.475 60.5876 20.3842C60.6457 20.2935 60.7272 20.2202 60.8235 20.172C60.9274 20.3912 61.0938 20.5747 61.3017 20.6996C61.5096 20.8244 61.7497 20.8851 61.992 20.8738C62.2342 20.8626 62.4678 20.78 62.6632 20.6364C62.8586 20.4928 63.0073 20.2947 63.0904 20.0669C63.2035 20.1863 63.3395 20.2819 63.4901 20.3479C63.6408 20.4139 63.8032 20.4491 63.9677 20.4512C64.1322 20.4534 64.2955 20.4226 64.4478 20.3606C64.6002 20.2986 64.7386 20.2066 64.8549 20.0902C65.1441 20.7712 65.3633 21.4799 65.5092 22.2052C65.7743 22.0562 65.9747 21.8142 66.0717 21.526C66.1688 21.2378 66.1555 20.9239 66.0344 20.645C65.9544 20.4601 65.8303 20.2977 65.6728 20.172C65.8488 20.0828 66.0015 19.9538 66.1189 19.7953C66.2363 19.6368 66.3152 19.4531 66.3493 19.2587Z" stroke="#120071" stroke-width="2" stroke-linejoin="round"/>
<path d="M65.2859 26.4918L100.166 20.6259" stroke="#120071" stroke-width="2" stroke-linecap="round" stroke-linejoin="round"/>
<path d="M8.0528 36.0968L58.8825 27.5668" stroke="#120071" stroke-width="2" stroke-linecap="round" stroke-linejoin="round"/>
<path d="M61.7337 31.9837L72.1918 41.3784" stroke="#120071" stroke-width="2" stroke-linecap="round" stroke-linejoin="round"/>
<path d="M72.2385 42.4067C72.3787 41.8809 72.3793 41.5057 72.1918 41.3784C72.0171 41.2604 71.6998 41.3649 71.3037 41.6472C70.71 42.1159 70.1734 42.6525 69.7047 43.2462" stroke="#120071" stroke-width="2" stroke-linecap="round" stroke-linejoin="round"/>
<path d="M28.536 56.2534C24.5865 53.1102 24.2593 53.0167 21.1277 49.593C14.514 50.5278 7.23486 52.7363 4.15002 54.1969C8.85863 55.976 13.9018 56.6942 18.9199 56.3002L24.2833 61.1261" stroke="#120071" stroke-width="2" stroke-linecap="round" stroke-linejoin="round"/>
<path d="M58.2399 32.0071L69.2589 41.8926" stroke="#120071" stroke-width="2" stroke-linecap="round" stroke-linejoin="round"/>
<path d="M63.9071 49.8501L56.7793 43.8089L61.096 50.526" stroke="#120071" stroke-width="2" stroke-linecap="round" stroke-linejoin="round"/>
<path d="M89.3453 51.168C89.7758 51.2615 93.718 52.6391 94.5452 54.1126C95.0987 55.0935 92.3017 53.1428 90.4905 53.0843" stroke="#120071" stroke-width="2" stroke-linecap="round" stroke-linejoin="round"/>
<path d="M88.9598 52.4558C90.0582 52.8531 92.6615 53.9527 93.3417 55.1901C93.9567 56.3131 91.7427 54.2553 89.0883 54.1735" stroke="#120071" stroke-width="2" stroke-linecap="round" stroke-linejoin="round"/>
<path d="M88.6559 53.9281C91.437 55.5523 92.9695 57.056 89.1934 55.4238C87.2427 54.5806 73.019 54.1501 73.019 54.1501C71.7707 54.021 70.5786 53.5652 69.5626 52.8285L63.9305 48.5518" stroke="#120071" stroke-width="2" stroke-linecap="round" stroke-linejoin="round"/>
<path d="M68.3708 42.1613L74.0964 47.2443C74.0964 47.2443 88.4456 49.9319 89.544 50.2455C90.6424 50.5592 93.2728 51.2258 94.0427 52.1034C94.4523 52.5708 92.1977 51.7652 90.8294 51.6945" stroke="#120071" stroke-width="2" stroke-linecap="round" stroke-linejoin="round"/>
<path d="M69.3056 42.9209C69.4458 42.3951 69.4464 42.0199 69.2588 41.8926C69.0842 41.7745 68.7668 41.8797 68.3708 42.1613C66.754 43.312 64.3511 46.879 63.8487 48.8335C63.7257 49.3132 63.7478 49.7455 63.9071 49.8501C64.0916 49.9731 64.6199 49.8267 65.0141 49.3827" stroke="#120071" stroke-width="2" stroke-linecap="round" stroke-linejoin="round"/>
<path d="M46.0524 53.6594C48.8734 53.7781 51.6489 52.9152 53.9047 51.2172" stroke="#120071" stroke-width="2" stroke-linecap="round" stroke-linejoin="round"/>
<path d="M60.9976 50.7031L62.2479 48.4479" stroke="#120071" stroke-width="2" stroke-linecap="round" stroke-linejoin="round"/>
<path d="M61.5468 30.873C60.7756 31.9948 59.3617 31.504 57.4103 29.6227" stroke="#120071" stroke-width="2" stroke-linecap="round" stroke-linejoin="round"/>
<path d="M49.0303 67.8696L58.1114 57.7608L48.109 74.0497" stroke="#120071" stroke-width="2" stroke-linecap="round" stroke-linejoin="round"/>
<path d="M34.7414 73.6641C35.4009 74.2566 36.1707 74.7132 37.0068 75.0081C37.8429 75.3029 38.7289 75.4301 39.6141 75.3823C40.4994 75.3346 41.3666 75.1128 42.1661 74.7298C42.9657 74.3468 43.6819 73.8099 44.2738 73.15L49.0278 67.8696L47.1484 80.4156L39.3895 89.0625C41.3365 92.4808 44.337 95.1775 47.9429 96.75L56.1575 87.6006C57.3736 86.248 58.2331 84.6134 58.6581 82.8448C60.4465 75.3418 59.8383 62.0923 60.9951 50.6994C56.3445 49.8347 54.6268 48.783 51.0862 45.9903C48.7984 47.6625 43.6921 48.9036 38.5605 61.6636L30.9087 54.7811C27.3785 56.5773 24.6423 59.6218 23.2316 63.3229L34.7414 73.6641Z" stroke="#120071" stroke-width="2" stroke-linecap="round" stroke-linejoin="round"/>
<path d="M62.115 27.2562C61.8057 27.1408 61.5037 27.0065 61.2109 26.854L61.8044 28.1455" stroke="#120071" stroke-width="2" stroke-linecap="round" stroke-linejoin="round"/>
<path d="M62.5984 35.9215C61.7374 33.4369 61.0227 29.6381 62.1119 27.2562C66.5362 28.8792 66.1617 23.1431 64.8653 20.1117M51.0856 45.9823C51.5828 44.4198 51.9195 42.8106 52.0905 41.1798C52.3881 38.6707 53.1163 36.2317 54.243 33.9701C55.3438 31.6571 57.8715 29.5243 59.163 27.0643C59.55 26.3885 59.7958 25.6411 59.8856 24.8675C60.0159 24.0547 59.864 23.2217 59.4551 22.5072C57.714 21.9346 58.5006 19.8848 59.6771 20.6843C60.2398 21.0674 60.46 21.0465 60.4951 20.6726C60.527 20.4758 60.5664 20.2888 60.6125 20.1117" stroke="#120071" stroke-width="2" stroke-linecap="round" stroke-linejoin="round"/>
<path d="M41.9744 86.1904C44.0879 89.4832 47.0958 92.1056 50.6459 93.7506" stroke="#120071" stroke-width="2" stroke-linecap="round" stroke-linejoin="round"/>
<path d="M25.779 65.5781C27.7421 62.0111 30.1959 59.0812 33.421 57.048" stroke="#120071" stroke-width="2" stroke-linecap="round" stroke-linejoin="round"/>
<path d="M40.7825 91.1799C38.3139 94.1934 36.1054 96.5587 33.7014 99.0673C33.0587 102.865 33.3625 111.582 34.5894 115.637C37.8489 110.215 39.0297 106.768 40.6779 101.184L45.6791 95.6221" stroke="#120071" stroke-width="2" stroke-linecap="round" stroke-linejoin="round"/>
<path d="M19.1769 56.5339C20.28 54.7627 21.6339 53.1608 23.1966 51.7781" stroke="#120071" stroke-width="2" stroke-linecap="round" stroke-linejoin="round"/>
<path d="M93.3416 51.5911C94.6153 51.7197 97.2069 52.5136 96.7303 51.9651C96.384 51.6423 95.9848 51.3814 95.5501 51.1938C93.9019 50.3882 92.3251 50.1305 90.5723 49.6514L76.9808 46.3563L71.3093 41.6417" stroke="#120071" stroke-width="2" stroke-linecap="round" stroke-linejoin="round"/>
<path d="M49.8734 53.2037L39.392 68.6045L29.2611 60.5769" stroke="#120071" stroke-width="2" stroke-linecap="round" stroke-linejoin="round"/>
<path d="M78.5251 18.137C78.6039 18.6108 78.5404 19.0973 78.3424 19.5349C78.1445 19.9725 77.8211 20.3415 77.4132 20.5951C77.1085 20.7852 76.7654 20.9054 76.4087 20.9468C76.052 20.9883 75.6905 20.95 75.3504 20.8348C75.0103 20.7196 74.7 20.5303 74.4418 20.2806C74.1837 20.0309 73.9843 19.7271 73.8578 19.391C73.7314 19.055 73.6809 18.6953 73.7101 18.3375C73.7393 17.9798 73.8474 17.6329 74.0267 17.322C74.2059 17.011 74.4519 16.7436 74.7468 16.539C75.0417 16.3345 75.3783 16.1978 75.7324 16.1388C76.3676 16.0338 77.0186 16.1852 77.5423 16.5599C78.0659 16.9345 78.4194 17.5018 78.5251 18.137Z" stroke="#120071" stroke-width="2" stroke-linecap="round" stroke-linejoin="round"/>
<path d="M85.1388 17.0386C85.2177 17.5124 85.1541 17.9989 84.9561 18.4365C84.7582 18.8741 84.4348 19.2431 84.0269 19.4967C83.7222 19.6869 83.3791 19.807 83.0224 19.8484C82.6657 19.8899 82.3042 19.8516 81.9641 19.7364C81.624 19.6212 81.3137 19.4319 81.0556 19.1822C80.7974 18.9326 80.598 18.6287 80.4716 18.2926C80.3451 17.9566 80.2947 17.5969 80.3238 17.2391C80.353 16.8814 80.4611 16.5346 80.6404 16.2236C80.8196 15.9126 81.0656 15.6452 81.3605 15.4406C81.6554 15.2361 81.992 15.0994 82.3461 15.0404C82.9813 14.9354 83.6323 15.0868 84.156 15.4615C84.6797 15.8362 85.0331 16.4034 85.1388 17.0386Z" stroke="#120071" stroke-width="2" stroke-linecap="round" stroke-linejoin="round"/>
<path d="M91.8694 15.9168C91.9482 16.3906 91.8847 16.8772 91.6867 17.3148C91.4888 17.7524 91.1653 18.1214 90.7574 18.375C90.3499 18.6294 89.876 18.7571 89.3959 18.7419C88.9157 18.7268 88.4508 18.5694 88.0602 18.2899C87.6695 18.0103 87.3706 17.621 87.2013 17.1715C87.032 16.7219 87 16.2321 87.1093 15.7643C87.1993 15.3752 87.384 15.0144 87.6469 14.7138C87.9099 14.4132 88.243 14.1821 88.6167 14.0412C88.9903 13.9002 89.393 13.8537 89.789 13.9057C90.185 13.9577 90.562 14.1067 90.8866 14.3394C91.146 14.5248 91.3663 14.7596 91.535 15.0303C91.7036 15.301 91.8172 15.6022 91.8694 15.9168Z" stroke="#120071" stroke-width="2" stroke-linecap="round" stroke-linejoin="round"/>
<path d="M22.3202 7.3634L17.8566 13.6499" stroke="#120071" stroke-width="2" stroke-linecap="round" stroke-linejoin="round"/>
<path d="M23.2316 12.7385L16.9568 8.27484" stroke="#120071" stroke-width="2" stroke-linecap="round" stroke-linejoin="round"/>
<path d="M4.59406 75.1247L4.45384 75.1715L8.76561 78.9925L3.07501 85.2439L6.1248 87.9665L11.8154 81.7034L16.1149 85.525L19.3288 70.3929L4.59406 75.1247Z" stroke="#120071" stroke-width="2" stroke-linecap="round" stroke-linejoin="round"/>
<path d="M79.8455 83.7482L70.8013 80.9439L78.4082 75.6622" stroke="#120071" stroke-width="2" stroke-linecap="round" stroke-linejoin="round"/>
<path d="M87.2771 82.5564L94.8256 76.971L85.8398 74.4587" stroke="#120071" stroke-width="2" stroke-linecap="round" stroke-linejoin="round"/>
<path d="M84.4493 71.1284L81.1425 87.2304" stroke="#120071" stroke-width="2" stroke-linecap="round" stroke-linejoin="round"/>
<path d="M11.2921 56.037L17.3541 93.4117C17.5704 94.6865 18.0359 95.9061 18.724 97.0008C19.4122 98.0955 20.3095 99.0436 21.3645 99.7911C22.4195 100.539 23.6113 101.071 24.872 101.358C26.1326 101.644 27.4375 101.68 28.7119 101.463L33.5717 100.645" stroke="#120071" stroke-width="2" stroke-linecap="round" stroke-linejoin="round"/>
<path d="M105.834 55.6292L109.444 77.8824C109.661 79.1568 109.625 80.4617 109.339 81.7223C109.052 82.983 108.519 84.1748 107.772 85.2298C107.024 86.2844 106.076 87.1814 104.981 87.8696C103.887 88.5577 102.667 89.0234 101.393 89.2402L42.5433 99.1368" stroke="#120071" stroke-width="2" stroke-linecap="round" stroke-linejoin="round"/>
<path d="M46.2757 16.8984L15.6714 22.0398C14.3969 22.2565 13.1775 22.7223 12.083 23.4105C10.9885 24.0987 10.0403 24.9958 9.29266 26.0506C8.54499 27.1053 8.01249 28.2971 7.72557 29.5577C7.43865 30.8183 7.40293 32.1232 7.62047 33.3976L10.618 51.8808" stroke="#120071" stroke-width="2" stroke-linecap="round" stroke-linejoin="round"/>
<path d="M63.4748 14.0085L88.3522 9.82895C89.6266 9.61124 90.9315 9.64683 92.1922 9.93368C93.4529 10.2205 94.6447 10.753 95.6995 11.5007C96.7543 12.2484 97.6514 13.1966 98.3395 14.2912C99.0277 15.3858 99.4934 16.6053 99.71 17.8799L104.323 46.3187" stroke="#120071" stroke-width="2" stroke-linecap="round" stroke-linejoin="round"/>
<path d="M36.0501 96.5901C37.3372 98.3583 38.8995 99.9087 40.6774 101.182" stroke="#120071" stroke-width="2" stroke-linecap="round" stroke-linejoin="round"/>
</svg>
