<svg viewBox="0 0 134 134" fill="none" xmlns="http://www.w3.org/2000/svg">
<path d="M78.13 68.3038L71.564 66.738L43.095 37.3297C38.6932 39.5261 35.0656 43.0124 32.696 47.3234L44.6756 60.3342L30.901 57.0512C28.1768 61.2775 27.0057 65.721 27.618 70.4311L62.5512 79.7374C65.4757 82.9085 66.8801 84.7034 69.6673 86.3034C72.5315 87.9455 77.192 89.7693 82.3477 88.4199C82.9942 88.3321 80.2177 74.303 78.13 68.3038Z" fill="#FECFC4"/>
<path d="M94.7179 21.0601L91.1153 13.5112C90.7273 12.6955 90.1063 12.0131 89.3307 11.5502C88.5551 11.0872 87.6597 10.8646 86.7576 10.9103C86.1585 10.941 85.5714 11.0895 85.0297 11.3471L81.3125 13.1159L88.8359 28.9152L92.5538 27.1457C93.0962 26.889 93.5827 26.5279 93.9854 26.083C94.3882 25.638 94.6992 25.1181 94.9008 24.5528C95.102 23.9873 95.1894 23.3876 95.158 22.7882C95.1266 22.1888 94.9771 21.6015 94.7179 21.0601ZM90.1733 22.0149C90.1733 22.0484 90.1599 22.0812 90.1357 22.1046C90.124 22.1165 90.11 22.1259 90.0946 22.1323C90.0792 22.1387 90.0626 22.142 90.046 22.142C90.0293 22.142 90.0127 22.1387 89.9973 22.1323C89.9819 22.1259 89.9679 22.1165 89.9562 22.1046C89.9443 22.0929 89.9349 22.0789 89.9284 22.0635C89.922 22.0481 89.9187 22.0316 89.9187 22.0149V19.162L88.0219 20.0022C88.0026 20.0091 87.9819 20.0115 87.9615 20.0093C87.9411 20.007 87.9215 20 87.9042 19.9889C87.8869 19.9779 87.8724 19.963 87.8618 19.9454C87.8512 19.9278 87.8447 19.9081 87.843 19.8876V16.8465C87.8429 16.8297 87.8461 16.8131 87.8525 16.7977C87.8589 16.7822 87.8682 16.7681 87.8801 16.7563C87.8919 16.7444 87.906 16.7351 87.9215 16.7287C87.937 16.7223 87.9535 16.7191 87.9703 16.7192C88.0038 16.7192 88.0366 16.7326 88.0601 16.7567C88.0719 16.7684 88.0814 16.7824 88.0878 16.7978C88.0942 16.8132 88.0976 16.8298 88.0976 16.8465V19.698L89.995 18.8578C90.0137 18.8502 90.0339 18.8474 90.0539 18.8496C90.0739 18.8518 90.0931 18.859 90.1096 18.8705C90.1277 18.8813 90.1431 18.896 90.1538 18.9134C90.1652 18.9311 90.1719 18.9514 90.1733 18.9724V22.0149Z" fill="#FECFC4"/>
<path d="M105.004 55.3822C105.079 55.6904 105.087 56.012 105.03 56.3242C105.91 55.9325 106.712 55.3848 107.398 54.7075C106.621 55.0009 105.82 55.2267 105.004 55.3822Z" fill="#6153BD"/>
<path d="M79.9122 66.4452C78.4737 62.9572 75.5197 57.0753 72.9355 57.75C71.2424 58.1955 70.504 61.4162 70.7586 65.924L71.5479 66.7387L78.1172 68.3045C77.8708 67.4986 77.5289 66.7251 77.0988 66.0004C77.9879 66.1652 78.9929 66.3052 79.9122 66.4452Z" fill="#6153BD"/>
<path d="M31.7137 25.4265C30.6189 27.3749 30.1861 34.3764 29.0659 38.1445C28.6314 39.5318 28.3497 40.9625 28.2257 42.411C28.8271 43.4034 29.5934 44.286 30.4916 45.0207C31.658 42.1194 33.34 39.4534 35.4563 37.1515C34.1552 33.8022 34.456 29.9973 31.7137 25.4265Z" fill="#6153BD"/>
<path d="M24.9668 60.4233C22.0061 58.227 20.3941 54.9849 15.546 52.5052C15.6605 54.733 19.034 60.8943 20.0906 64.6751C20.4587 66.0793 20.984 67.4374 21.6564 68.7239C22.6952 69.2411 23.8148 69.5769 24.9668 69.7169C24.4107 66.644 24.4107 63.4962 24.9668 60.4233Z" fill="#6153BD"/>
<path d="M94.6542 55.3568C94.2595 59.0739 96.2327 59.825 98.2186 56.7061C96.9709 56.4331 95.7699 55.9784 94.6542 55.3568Z" fill="#6153BD"/>
<path d="M97.2384 49.1438C97.8749 49.4494 98.9188 49.704 99.1734 49.5257L99.5553 48.5964C98.9442 47.8581 98.0149 48.307 97.2384 49.1438Z" fill="#6153BD"/>
<path d="M109.947 46.9161C109.387 44.8445 107.846 42.3715 104.308 39.3036C103.51 42.345 102.894 45.4311 102.462 48.5455C104.135 48.1299 105.855 47.9331 107.579 47.96C107.732 47.629 108.053 47.9801 108.458 49.1438C108.471 49.182 108.508 49.2839 108.547 49.4118C108.629 49.3846 108.716 49.3759 108.801 49.3864C108.756 48.8121 108.697 48.2391 108.623 47.6678C108.248 44.6629 109.125 44.2455 109.921 47.2605C109.972 47.4514 110.074 47.9734 110.189 48.6099C110.178 48.0375 110.096 47.4688 109.947 46.9161Z" fill="#6153BD"/>
<path d="M108.238 68.5584L107.601 72.9248C107.601 72.9248 109.498 70.5061 110.16 69.3738L108.238 68.5584Z" fill="#6153BD"/>
<path d="M41.5292 100.588L54.6672 103.147L42.3567 92.1867L29.2186 89.6273L41.5292 100.588Z" fill="#6153BD"/>
<path d="M54.6418 103.147L66.8881 95.1146L52.5279 93.3705L47.4225 96.7185L54.6418 103.147Z" fill="#6153BD"/>
<path d="M41.5293 100.588L54.6673 103.147L42.3567 92.1867L29.2187 89.6273L41.5293 100.588Z" stroke="#120071" stroke-width="2" stroke-linejoin="round"/>
<path d="M54.6418 103.147L66.8881 95.1146L52.5279 93.3705L47.4225 96.7185L54.6418 103.147Z" stroke="#120071" stroke-width="2" stroke-linejoin="round"/>
<path d="M52.5668 47.1071C57.3336 45.1941 62.4959 44.4759 67.6038 45.0151C72.7117 45.5542 77.6103 47.3344 81.8726 50.2005" stroke="#120071" stroke-width="2" stroke-linecap="round" stroke-linejoin="round"/>
<path d="M38.2067 58.7939C38.9076 57.7494 39.6682 56.7463 40.4847 55.7896" stroke="#120071" stroke-width="2" stroke-linecap="round" stroke-linejoin="round"/>
<path d="M33.2159 71.9212C33.0217 73.3515 32.9238 74.7932 32.9231 76.2366C32.9128 81.4184 34.1915 86.5213 36.6443 91.0859" stroke="#120071" stroke-width="2" stroke-linecap="round" stroke-linejoin="round"/>
<path d="M94.9598 83.1222C93.8045 88.2635 91.3742 93.0314 87.8927 96.9869C84.4112 100.942 79.9903 103.958 75.0373 105.757C70.1485 107.531 64.8954 108.064 59.7499 107.306C54.6044 106.549 49.7276 104.526 45.5573 101.418" stroke="#120071" stroke-width="2" stroke-linecap="round" stroke-linejoin="round"/>
<path d="M95.3671 16.4391C97.3148 15.217 99.9124 14.6047 102.127 15.3953C105.794 16.7044 107.644 21.0996 106.736 24.7518C105.887 28.1648 103.185 31.1309 101.35 34.0454C98.2582 38.9605 96.9952 42.6133 98.817 48.2273" stroke="#120071" stroke-width="2" stroke-linecap="round" stroke-linejoin="round"/>
<path d="M92.3119 16.0063L93.8777 19.2779L94.9852 18.7419C95.2853 18.5962 95.5162 18.3385 95.6281 18.0242C95.74 17.7099 95.724 17.3642 95.5835 17.0616L95.1145 16.0686C94.9687 15.7686 94.7109 15.5379 94.3966 15.426C94.0824 15.3141 93.7368 15.33 93.4341 15.4703L92.3119 16.0063Z" stroke="#120071" stroke-width="2" stroke-linecap="round" stroke-linejoin="round"/>
<path d="M88.8487 28.9152L81.3253 13.116L73.8648 16.6683L81.3889 32.4669L88.8487 28.9152Z" stroke="#120071" stroke-width="2" stroke-linecap="round" stroke-linejoin="round"/>
<path d="M94.7306 21.0601L91.128 13.4985C90.6078 12.4047 89.6745 11.5623 88.5333 11.1564C87.3921 10.7506 86.1364 10.8146 85.0424 11.3344L81.3253 13.1159L88.8487 28.9152L92.5665 27.1457C93.1083 26.8885 93.594 26.5269 93.9959 26.0818C94.3979 25.6367 94.7081 25.1166 94.9088 24.5515C95.1101 23.9864 95.198 23.3872 95.1674 22.7881C95.1368 22.189 94.9884 21.6018 94.7306 21.0601Z" stroke="#120071" stroke-width="2" stroke-linecap="round" stroke-linejoin="round"/>
<path d="M88.2095 16.8545C88.2095 16.7879 88.1831 16.724 88.1359 16.6769C88.0888 16.6297 88.0249 16.6033 87.9583 16.6033C87.8916 16.6033 87.8277 16.6297 87.7806 16.6769C87.7335 16.724 87.707 16.7879 87.707 16.8545H88.2095ZM87.9583 19.828H87.707C87.7069 19.8692 87.717 19.9098 87.7363 19.9462C87.7556 19.9825 87.7836 20.0136 87.8178 20.0366C87.852 20.0596 87.8913 20.0738 87.9323 20.078C87.9733 20.0821 88.0146 20.0761 88.0527 20.0605L87.9583 19.828ZM90.0313 18.9905H90.2825C90.2824 18.9494 90.2722 18.909 90.2529 18.8728C90.2335 18.8366 90.2057 18.8056 90.1716 18.7827C90.1376 18.7597 90.0985 18.7454 90.0577 18.7409C90.0169 18.7365 89.9756 18.7421 89.9375 18.7573L90.0313 18.9905ZM89.78 22.0263C89.78 22.0929 89.8065 22.1568 89.8536 22.2039C89.9007 22.251 89.9646 22.2775 90.0313 22.2775C90.0979 22.2775 90.1618 22.251 90.2089 22.2039C90.256 22.1568 90.2825 22.0929 90.2825 22.0263H89.78ZM87.707 16.8545V19.828H88.2095V16.8545H87.707ZM88.0527 20.0605L90.1251 19.223L89.9375 18.7573L87.8645 19.5948L88.0527 20.0605ZM89.78 18.9905V22.0263H90.2825V18.9905H89.78Z" fill="#120071"/>
<path d="M81.3889 32.4669L73.8648 16.6683L66.405 20.2199L73.9285 36.0185L81.3889 32.4669Z" stroke="#120071" stroke-width="2" stroke-linecap="round" stroke-linejoin="round"/>
<path d="M60.7522 27.9732C60.4947 27.4315 60.3464 26.8444 60.3158 26.2453C60.2852 25.6463 60.373 25.0471 60.574 24.482C60.775 23.9169 61.0854 23.3969 61.4874 22.9517C61.8894 22.5066 62.3752 22.145 62.917 21.8876L66.405 20.22L73.9284 36.0186L70.4404 37.6862C69.8988 37.9437 69.3117 38.092 68.7128 38.1227C68.1138 38.1533 67.5147 38.0656 66.9496 37.8646C66.3846 37.6637 65.8646 37.3534 65.4195 36.9514C64.9744 36.5495 64.6128 36.0638 64.3555 35.5221L60.7522 27.9732Z" stroke="#120071" stroke-width="2" stroke-linecap="round" stroke-linejoin="round"/>
<path d="M62.5478 79.7361L27.604 70.4298C26.9929 65.7197 28.1641 61.2762 30.887 57.0499L44.6742 60.3329" stroke="#120071" stroke-width="2" stroke-linecap="round" stroke-linejoin="round"/>
<path d="M78.1173 68.3038L71.5607 66.738" stroke="#120071" stroke-width="2" stroke-linecap="round" stroke-linejoin="round"/>
<path d="M81.7199 83.7587C79.5149 84.1768 77.2374 83.9786 75.1378 83.1859C72.4129 82.2076 69.9786 80.5581 68.0599 78.39L35.9528 42.746" stroke="#120071" stroke-width="2" stroke-linecap="round" stroke-linejoin="round"/>
<path d="M27.6401 65.3887L56.0548 72.6957" stroke="#120071" stroke-width="2" stroke-linecap="round" stroke-linejoin="round"/>
<path d="M102.458 48.5837C101.618 55.2931 103.209 56.3752 107.385 54.7075" stroke="#120071" stroke-width="2" stroke-linecap="round" stroke-linejoin="round"/>
<path d="M76.715 72.0719L43.0863 37.3344C38.6882 39.5308 35.0638 43.0152 32.696 47.3235L65.5541 83.0077C66.7422 84.3115 68.1249 85.4237 69.6532 86.3047C72.5235 87.9516 77.186 89.7707 82.3463 88.4213" stroke="#120071" stroke-width="2" stroke-linecap="round" stroke-linejoin="round"/>
<path d="M101.019 56.7443C105.45 59.0223 105.068 55.6114 105.068 55.6114L105.041 55.3742" stroke="#120071" stroke-width="2" stroke-linecap="round" stroke-linejoin="round"/>
<path d="M104.839 56.8334C104.202 59.7613 92.0191 67.3364 74.1067 57.8773" stroke="#120071" stroke-width="2" stroke-linecap="round" stroke-linejoin="round"/>
<path d="M70.7587 65.9233C70.5041 61.4162 71.2417 58.1942 72.9355 57.7493C75.519 57.072 78.4737 62.9559 79.9122 66.4446C79.0593 66.2664 78.0154 66.1136 77.0982 65.999" stroke="#120071" stroke-width="2" stroke-linecap="round" stroke-linejoin="round"/>
<path d="M31.7138 25.4265C31.3701 24.841 31.0773 24.5086 30.8609 24.5354C29.5101 24.7043 29.1691 32.3657 28.0221 36.2095C27.6032 37.5094 27.3502 38.8569 27.269 40.2201C27.4363 41.0077 27.7618 41.753 28.2257 42.411C28.3408 40.9617 28.6227 39.5305 29.0659 38.1458C30.1855 34.3764 30.619 27.3749 31.7138 25.4265Z" stroke="#120071" stroke-width="2" stroke-linecap="round" stroke-linejoin="round"/>
<path d="M35.4563 37.1515C34.5907 34.9238 34.4674 32.8736 33.9033 30.7611C33.4014 28.8976 32.6657 27.1052 31.7137 25.4265C30.6189 27.3749 30.1794 34.3744 29.0659 38.1445C28.6304 39.5316 28.3486 40.9623 28.2257 42.411C28.8271 43.4034 29.5934 44.286 30.4916 45.0207C31.6578 42.1193 33.3398 39.4532 35.4563 37.1515Z" stroke="#120071" stroke-width="2" stroke-linecap="round" stroke-linejoin="round"/>
<path d="M30.4917 45.0193L32.694 47.3234" stroke="#120071" stroke-width="2" stroke-linecap="round" stroke-linejoin="round"/>
<path d="M35.4564 37.1515L38.3722 40.4238" stroke="#120071" stroke-width="2" stroke-linecap="round" stroke-linejoin="round"/>
<path d="M15.544 52.5052C14.9457 52.199 14.5129 52.0724 14.3474 52.2124C13.3049 53.0922 17.085 59.7392 18.1791 63.5931C18.5235 64.9142 19.0279 66.1884 19.6812 67.3873C20.2402 67.9667 20.9117 68.4259 21.6544 68.7367C20.9818 67.4503 20.4565 66.0921 20.0886 64.6878C19.0407 60.8923 15.6606 54.733 15.544 52.5052Z" stroke="#120071" stroke-width="2" stroke-linecap="round" stroke-linejoin="round"/>
<path d="M24.9668 60.4233C23.0446 58.9975 21.8339 57.3313 20.2433 55.8532C18.8243 54.544 17.2461 53.4185 15.546 52.5032C15.6605 54.731 19.03 60.8936 20.0906 64.6731C20.4582 66.0774 20.9834 67.4357 21.6564 68.7219C22.6952 69.2391 23.8148 69.5749 24.9668 69.7149C24.4109 66.6426 24.4109 63.4955 24.9668 60.4233Z" stroke="#120071" stroke-width="2" stroke-linecap="round" stroke-linejoin="round"/>
<path d="M24.9796 69.7169L27.602 70.4297" stroke="#120071" stroke-width="2" stroke-linecap="round" stroke-linejoin="round"/>
<path d="M24.9669 60.4233L28.6458 61.4799" stroke="#120071" stroke-width="2" stroke-linecap="round" stroke-linejoin="round"/>
<path d="M114.055 84.8535C114.43 85.6643 114.556 86.568 114.418 87.4504C114.279 88.3328 113.883 89.1544 113.278 89.8115C112.825 90.3023 112.269 90.6866 111.65 90.9367C111.031 91.1869 110.364 91.2968 109.697 91.2584C109.03 91.22 108.381 91.0344 107.794 90.7148C107.208 90.3952 106.7 89.9496 106.306 89.4102C105.824 88.749 105.531 87.9695 105.458 87.1547C105.384 86.3399 105.533 85.5204 105.889 84.7838C106.245 84.0472 106.794 83.421 107.478 82.9721C108.162 82.5233 108.955 82.2685 109.773 82.2351C110.666 82.1994 111.549 82.429 112.311 82.895C113.073 83.3611 113.68 84.0426 114.055 84.8535Z" stroke="#120071" stroke-width="2" stroke-linecap="round" stroke-linejoin="round"/>
<path d="M108.671 83.9624L109.956 86.7503L112.693 85.49" stroke="#120071" stroke-width="2" stroke-linecap="round" stroke-linejoin="round"/>
<path d="M99.5553 48.5964C99.4379 48.4524 99.2841 48.3425 99.1098 48.2782C97.9708 47.8635 96.2328 49.8695 95.2526 52.7216C94.2724 55.5738 94.4137 58.2036 95.5708 58.6029C96.336 58.8669 97.3403 58.081 98.2314 56.7061" stroke="#120071" stroke-width="2" stroke-linecap="round" stroke-linejoin="round"/>
<path d="M99.1097 48.2782C95.8522 47.5185 92.6358 46.5922 89.4731 45.5031C85.8323 44.2421 79.746 46.1523 82.6873 53.129C84.1258 56.5407 88.2885 60.4488 91.6245 62.4728" stroke="#120071" stroke-width="2" stroke-linecap="round" stroke-linejoin="round"/>
<path d="M95.5708 58.6029L86.5318 54.0328" stroke="#120071" stroke-width="2" stroke-linecap="round" stroke-linejoin="round"/>
<path d="M103.222 54.9749C102.956 55.318 102.68 55.6531 102.395 55.9799C101.156 57.3755 97.9131 57.1383 94.6415 55.3688" stroke="#120071" stroke-width="2" stroke-linecap="round" stroke-linejoin="round"/>
<path d="M99.1479 49.5003C98.8933 49.6912 97.8749 49.4366 97.2384 49.1439" stroke="#120071" stroke-width="2" stroke-linecap="round" stroke-linejoin="round"/>
<path d="M101.337 47.8327C101.35 47.6926 101.376 46.7607 101.388 46.636C101.452 44.3956 100.937 44.7795 100.141 47.0816C99.4649 48.9084 98.6915 50.6976 97.824 52.4416" stroke="#120071" stroke-width="2" stroke-linecap="round" stroke-linejoin="round"/>
<path d="M103.362 43.339C103.146 42.5497 102.511 43.2124 101.987 45.223C101.556 46.8786 101.223 48.305 100.892 49.3857" stroke="#120071" stroke-width="2" stroke-linecap="round" stroke-linejoin="round"/>
<path d="M102.407 49.0547C101.678 49.0718 100.968 49.2923 100.357 49.6912" stroke="#120071" stroke-width="2" stroke-linecap="round" stroke-linejoin="round"/>
<path d="M120.828 70.484L111.85 65.7866C112.563 61.8779 114.817 57.9952 118.014 56.0475C118.014 56.0475 125.372 60.8353 129.179 64.6664C132.939 68.4492 129.916 76.4644 120.866 74.1757C117.88 73.4159 113.921 71.081 110.16 69.3685C102.461 81.6965 88.1123 86.3965 83.628 88.0266C83.1972 88.1827 82.7684 88.3134 82.343 88.4246C83.094 88.3228 79.1216 68.9055 77.0975 66.003C82.1132 66.996 97.4789 68.8546 107.689 58.365" stroke="#120071" stroke-width="2" stroke-linecap="round" stroke-linejoin="round"/>
<path d="M112.795 52.7216C112.795 52.7216 113.584 50.7472 114.604 50.3766C115.699 49.9813 113.775 53.5725 113.879 55.5712C113.916 56.284 116.209 57.4425 116.209 57.4425" stroke="#120071" stroke-width="2" stroke-linecap="round" stroke-linejoin="round"/>
<path d="M111.446 47.6035C111.357 46.4706 111.543 42.815 112.401 46.356C112.564 47.3074 112.67 48.2688 112.719 49.233C112.901 50.8379 112.871 52.4599 112.63 54.057" stroke="#120071" stroke-width="2" stroke-linecap="round" stroke-linejoin="round"/>
<path d="M108.875 50.3659C108.824 50.2259 108.519 49.3609 108.48 49.233C107.717 47.1325 107.369 47.6799 107.487 50.1113C107.587 52.1615 107.376 55.1531 107.335 55.9551C107.181 58.9473 108.519 59.8123 112.618 62.9311" stroke="#120071" stroke-width="2" stroke-linecap="round" stroke-linejoin="round"/>
<path d="M110.555 51.1043C110.389 49.6658 110.043 47.7543 109.931 47.3362C109.133 44.3245 108.252 44.752 108.632 47.7436C108.85 49.4494 108.874 50.7351 108.976 51.8687" stroke="#120071" stroke-width="2" stroke-linecap="round" stroke-linejoin="round"/>
<path d="M109.956 47.4253C109.944 41.5963 111.095 44.0512 111.408 47.298C111.55 48.7619 111.713 49.844 111.739 50.7096" stroke="#120071" stroke-width="2" stroke-linecap="round" stroke-linejoin="round"/>
<path d="M109.958 46.971C109.422 44.8847 107.874 42.3983 104.304 39.3036C103.507 42.3454 102.891 45.4314 102.458 48.5455C104.132 48.1299 105.852 47.9331 107.576 47.96" stroke="#120071" stroke-width="2" stroke-linecap="round" stroke-linejoin="round"/>
<path d="M102.089 59.697C102.866 60.4099 103.617 61.037 105.896 60.0407" stroke="#120071" stroke-width="2" stroke-linecap="round" stroke-linejoin="round"/>
<path d="M107.398 54.7075C106.876 55.4713 105.03 56.3242 105.03 56.3242" stroke="#120071" stroke-width="2" stroke-linecap="round" stroke-linejoin="round"/>
<path d="M126.239 36.9097C126.124 37.5589 122.649 37.4457 118.473 36.6551C114.298 35.8645 111.013 34.7074 111.128 34.0581C111.242 33.4089 114.717 33.5221 118.894 34.3127C123.07 35.1033 126.353 36.2604 126.239 36.9097Z" stroke="#120071" stroke-width="2" stroke-linecap="round" stroke-linejoin="round"/>
<path d="M122.585 42.2951C122.038 42.6261 119.844 39.8537 117.684 36.0822C115.525 32.3108 114.221 28.9916 114.768 28.6606C115.316 28.3296 117.506 31.1048 119.67 34.8729C121.834 38.641 123.133 41.9641 122.585 42.2951Z" stroke="#120071" stroke-width="2" stroke-linecap="round" stroke-linejoin="round"/>
<path d="M3.34998 82.1802L9.95752 87.8832L11.7015 75.9546" stroke="#120071" stroke-width="2" stroke-linecap="round" stroke-linejoin="round"/>
<path d="M47.7797 19.367C47.7739 19.5502 47.732 19.7304 47.6566 19.8973C47.5811 20.0643 47.4735 20.2148 47.3399 20.3402C47.2063 20.4656 47.0493 20.5634 46.8779 20.6282C46.7065 20.6929 46.524 20.7232 46.3408 20.7174C46.1577 20.7116 45.9775 20.6698 45.8105 20.5943C45.6435 20.5189 45.493 20.4113 45.3676 20.2777C45.2423 20.1441 45.1444 19.9871 45.0797 19.8156C45.015 19.6442 44.9846 19.4617 44.9904 19.2786C45.0022 18.9087 45.1604 18.5586 45.4302 18.3054C45.7 18.0521 46.0594 17.9165 46.4293 17.9282C46.7991 17.9399 47.1492 18.0981 47.4025 18.3679C47.6557 18.6378 47.7914 18.9971 47.7797 19.367Z" stroke="#120071" stroke-width="2" stroke-linecap="round" stroke-linejoin="round"/>
<path d="M71.2042 117.279L76.6533 123.109" stroke="#120071" stroke-width="2" stroke-linecap="round" stroke-linejoin="round"/>
<path d="M76.8443 117.47L71.0133 122.918" stroke="#120071" stroke-width="2" stroke-linecap="round" stroke-linejoin="round"/>
<path d="M110.161 69.3651C109.527 69.0749 108.886 68.8016 108.238 68.5457L107.601 72.9248" stroke="#120071" stroke-width="2" stroke-linecap="round" stroke-linejoin="round"/>
</svg>
