<svg width="152" height="153" viewBox="0 0 152 153" fill="none" xmlns="http://www.w3.org/2000/svg">
<path d="M93.2702 83.1555C91.4569 84.28 85.7067 85.0244 83.2633 85.1613H94.2833C93.9932 84.4694 93.6546 83.7991 93.2702 83.1555Z" fill="#FECFC4"/>
<path d="M95.076 87.692H58.9464L45.6616 115.455C46.2919 116.015 46.9617 116.529 47.6657 116.993L45.676 121.21C48.5346 122 51.546 122.045 54.4266 121.34L55.1593 119.62C55.8899 119.692 56.6239 119.723 57.358 119.713L62.5609 110.128L60.9968 118.084C61.6998 118.433 62.4229 118.739 63.1621 119.002L62.5852 121.339C65.1898 122.088 67.9508 122.088 70.5561 121.339L70.8008 120.238C71.5047 120.235 72.2082 120.204 72.9098 120.147L78.6425 96.8039L80.3753 97.0655L92.4327 96.0917C94.9118 94.0514 95.9918 91.5154 95.076 87.692Z" fill="#FECFC4"/>
<path d="M49.286 64.5377C49.2424 65.0709 49.0455 65.5797 48.7194 66.0021C48.3932 66.4245 47.9519 66.7421 47.4494 66.9162C46.9468 67.0902 46.4048 67.1132 45.8894 66.9822C45.3741 66.8513 44.9079 66.5721 44.5476 66.1788C44.1874 65.7854 43.9487 65.295 43.8608 64.7674C43.773 64.2398 43.8396 63.6979 44.0527 63.2078C44.2658 62.7177 44.6161 62.3007 45.0608 62.0077C45.5055 61.7147 46.0253 61.5585 46.5568 61.558C47.3112 61.589 48.0225 61.9203 48.5343 62.4791C49.046 63.0379 49.3164 63.7783 49.286 64.5377Z" fill="#FECFC4"/>
<path d="M48.203 60.308C47.7652 60.6331 47.2302 60.7976 46.6868 60.7731C46.74 60.2284 46.9801 59.7197 47.3654 59.3342C47.8031 59.009 48.3383 58.8448 48.8816 58.869C48.8284 59.4135 48.5884 59.9223 48.203 60.308Z" fill="#FECFC4"/>
<path d="M79.9565 57.375C79.9322 57.7569 79.8555 58.1335 79.7285 58.4942L81.1148 57.186C80.738 57.2974 80.3489 57.3609 79.9565 57.375Z" fill="#6153BD"/>
<path d="M85.4726 69.6976V76.4709C85.848 76.4128 86.2235 76.3546 86.5989 76.282C86.3981 74.0605 86.0215 71.8587 85.4726 69.6976Z" fill="#6153BD"/>
<path d="M77.0541 79.7413L75.2924 79.0872C75.0882 78.9107 74.8907 78.7265 74.7004 78.5349C75.164 76.5145 76.4043 77.2703 77.0541 79.7413Z" fill="#6153BD"/>
<path d="M63.596 54.7411V73.1133C63.5956 73.784 63.3308 74.427 62.8597 74.9012C62.3886 75.3754 61.7497 75.642 61.0835 75.6424H60.1304C60.7967 75.642 61.4355 75.3754 61.9066 74.9012C62.3777 74.427 62.6426 73.784 62.643 73.1133V54.7411C62.6426 54.0705 62.3777 53.4274 61.9066 52.9532C61.4355 52.479 60.7967 52.2124 60.1304 52.212H61.0835C61.7497 52.2124 62.3886 52.479 62.8597 52.9532C63.3308 53.4274 63.5956 54.0705 63.596 54.7411Z" fill="#6153BD"/>
<path d="M54.4844 84.5233H52.6072C52.3062 84.526 52.015 84.4158 51.7903 84.2144C51.5655 84.0129 51.4232 83.7344 51.3912 83.4332L50.6 75.6585H49.647L50.7011 85.3388H55.2786C55.2808 85.2324 55.2619 85.1267 55.223 85.0278C55.1841 84.9289 55.1259 84.8388 55.0519 84.7629C54.9779 84.6869 54.8896 84.6266 54.7922 84.5854C54.6947 84.5443 54.5901 84.5232 54.4844 84.5233Z" fill="#6153BD"/>
<path d="M86.5556 52.1248C86.726 51.9186 86.8177 51.6578 86.8141 51.3896C86.8105 51.1214 86.7119 50.8633 86.536 50.6617C86.3601 50.4602 86.1186 50.3284 85.8548 50.2902C85.591 50.252 85.3224 50.3098 85.0972 50.4533C85.2198 50.2322 85.2647 49.976 85.2245 49.7261C85.1844 49.4761 85.0616 49.2472 84.876 49.0763C84.6909 48.9052 84.4539 48.8018 84.2033 48.7827C83.9527 48.7635 83.703 48.8298 83.4943 48.9707C84.1677 47.7505 82.2373 46.7078 81.5183 47.8806C81.0737 49.2047 80.5182 50.4884 79.8577 51.7178C81.706 49.1168 82.9479 51.8777 82.8324 53.5056C82.8468 53.8254 83.0057 53.9126 83.5255 53.5347C84.594 52.7498 85.3594 54.5812 83.3667 55.4824C82.7524 56.6714 82.5735 58.0402 82.8612 59.3487C82.8468 59.1452 82.6158 55.0899 87.1644 54.2469C87.3998 54.1968 87.6111 54.0671 87.7632 53.8794C87.9153 53.6916 87.999 53.4572 88.0004 53.2149C88.0022 53.038 87.9626 52.8632 87.8847 52.7046C87.8067 52.546 87.6928 52.4082 87.552 52.3023C87.4114 52.196 87.2479 52.1246 87.0748 52.0938C86.9017 52.0629 86.7239 52.0736 86.5556 52.1248Z" fill="#6153BD"/>
<path d="M81.9926 64.0725C81.9926 64.2115 81.9377 64.3448 81.8401 64.4431C81.7424 64.5414 81.61 64.5966 81.472 64.5966C81.3339 64.5966 81.2015 64.5414 81.1038 64.4431C81.0062 64.3448 80.9514 64.2115 80.9514 64.0725C80.9514 63.9336 81.0062 63.8003 81.1038 63.702C81.2015 63.6037 81.3339 63.5485 81.472 63.5485C81.61 63.5485 81.7424 63.6037 81.8401 63.702C81.9377 63.8003 81.9926 63.9336 81.9926 64.0725Z" fill="#6153BD"/>
<path d="M76.9963 68.9127C76.9963 69.0517 76.9415 69.185 76.8439 69.2833C76.7462 69.3815 76.6138 69.4367 76.4757 69.4367C76.3377 69.4367 76.2052 69.3815 76.1076 69.2833C76.01 69.185 75.9551 69.0517 75.9551 68.9127C75.9551 68.7737 76.01 68.6405 76.1076 68.5422C76.2052 68.4439 76.3377 68.3887 76.4757 68.3887C76.6138 68.3887 76.7462 68.4439 76.8439 68.5422C76.9415 68.6405 76.9963 68.7737 76.9963 68.9127Z" fill="#6153BD"/>
<path d="M80.8807 74.3924C80.8807 74.5314 80.8258 74.6647 80.7282 74.7629C80.6306 74.8612 80.4981 74.9164 80.3601 74.9164C80.222 74.9164 80.0896 74.8612 79.992 74.7629C79.8943 74.6647 79.8395 74.5314 79.8395 74.3924C79.8395 74.2534 79.8943 74.1201 79.992 74.0219C80.0896 73.9236 80.222 73.8684 80.3601 73.8684C80.4981 73.8684 80.6306 73.9236 80.7282 74.0219C80.8258 74.1201 80.8807 74.2534 80.8807 74.3924Z" fill="#6153BD"/>
<path d="M109.44 76.0349H104.242C104.058 76.0349 103.881 76.1084 103.751 76.2392C103.621 76.37 103.548 76.5475 103.548 76.7325V84.4652C103.548 84.6502 103.621 84.8276 103.751 84.9585C103.881 85.0893 104.058 85.1628 104.242 85.1628H109.44C109.623 85.1605 109.798 85.0862 109.927 84.9559C110.057 84.8255 110.131 84.6495 110.133 84.4652V76.7295C110.132 76.5452 110.058 76.3688 109.928 76.2388C109.799 76.1087 109.623 76.0355 109.44 76.0349Z" fill="#6153BD"/>
<path d="M108.68 39.2445L101.648 41.1776C101.522 41.2121 101.408 41.2791 101.316 41.3719C101.224 41.4647 101.159 41.5801 101.125 41.7066C101.091 41.8331 101.091 41.9662 101.125 42.0927C101.158 42.2192 101.224 42.3347 101.316 42.4276L107.64 48.7358C107.709 48.8053 107.791 48.8605 107.881 48.8981C107.971 48.9357 108.068 48.9551 108.165 48.9551C108.263 48.9551 108.359 48.9357 108.449 48.8981C108.539 48.8605 108.621 48.8053 108.69 48.7358C108.782 48.6432 108.848 48.5279 108.882 48.4015L110.759 41.1922L108.68 39.2445Z" fill="#6153BD"/>
<path d="M113.552 36.287C113.297 36.0349 112.954 35.8949 112.596 35.8978C112.239 35.9006 111.897 36.0461 111.646 36.3023L108.715 39.2812L110.691 41.1272L113.565 38.2056C113.812 37.9478 113.95 37.6025 113.947 37.2438C113.945 36.8851 113.803 36.5416 113.552 36.287Z" fill="#6153BD"/>
<path d="M51.5386 26.5455C51.5383 26.6677 51.5141 26.7888 51.4673 26.9016C51.4206 27.0144 51.3522 27.1169 51.2661 27.2031C51.18 27.2894 51.0779 27.3577 50.9655 27.4042C50.8532 27.4507 50.7329 27.4745 50.6114 27.4742C50.49 27.4739 50.3697 27.4495 50.2576 27.4024C50.1455 27.3554 50.0438 27.2866 49.9581 27.1999C49.8724 27.1132 49.8045 27.0104 49.7583 26.8974C49.7121 26.7843 49.6885 26.6632 49.6888 26.5409C49.6894 26.294 49.7874 26.0574 49.9613 25.8832C50.1352 25.7091 50.3707 25.6116 50.616 25.6122C50.8613 25.6128 51.0963 25.7115 51.2693 25.8865C51.4424 26.0615 51.5392 26.2986 51.5386 26.5455Z" fill="#6153BD"/>
<path d="M70.5561 121.34C67.9508 122.089 65.1905 122.089 62.5852 121.34C60.1448 122.053 55.3508 125.483 55.3508 125.483H71.4802C71.3276 124.072 71.0176 122.682 70.5561 121.34Z" fill="#6153BD"/>
<path d="M54.4266 121.34C51.5462 122.045 48.5343 122 45.676 121.21C43.0589 122.073 40.6765 123.536 38.7159 125.483H55.3363C55.1338 124.082 54.8297 122.697 54.4266 121.34Z" fill="#6153BD"/>
<path d="M83.2344 96.8344L80.3753 97.067L78.6425 96.8054L79.0035 95.3373L83.2344 96.8344Z" fill="#6153BD"/>
<path d="M133.24 85.1628H20.9836C20.6504 85.1628 20.3308 85.2961 20.0953 85.5332C19.8597 85.7704 19.7273 86.092 19.7273 86.4274C19.7273 86.7628 19.8597 87.0844 20.0953 87.3216C20.3308 87.5587 20.6504 87.6919 20.9836 87.6919H36.3683L29.2866 127.154C29.2744 127.226 29.2699 127.3 29.2721 127.372H31.8136L38.9302 87.6919H115.32L122.439 127.387H124.98C124.966 127.314 124.966 127.242 124.952 127.158L117.871 87.695H133.24C133.566 87.6836 133.874 87.5454 134.101 87.3095C134.327 87.0736 134.453 86.7584 134.453 86.4305C134.453 86.1025 134.327 85.7873 134.101 85.5514C133.874 85.3155 133.566 85.1773 133.24 85.1659V85.1628Z" fill="#6153BD"/>
<path d="M51.5386 26.5455C51.5383 26.6677 51.5141 26.7888 51.4673 26.9016C51.4206 27.0144 51.3522 27.1169 51.2661 27.2031C51.18 27.2894 51.0779 27.3577 50.9655 27.4042C50.8532 27.4507 50.7329 27.4745 50.6114 27.4742C50.49 27.4739 50.3697 27.4495 50.2576 27.4024C50.1455 27.3554 50.0438 27.2866 49.9581 27.1999C49.8724 27.1132 49.8045 27.0104 49.7583 26.8974C49.7121 26.7843 49.6885 26.6632 49.6888 26.5409C49.6894 26.294 49.7874 26.0574 49.9613 25.8832C50.1352 25.7091 50.3707 25.6116 50.616 25.6122C50.8613 25.6128 51.0963 25.7115 51.2693 25.8865C51.4424 26.0615 51.5392 26.2986 51.5386 26.5455Z" stroke="#120071" stroke-width="2"/>
<path d="M113.552 36.287C113.297 36.0349 112.954 35.8949 112.596 35.8978C112.239 35.9006 111.897 36.0461 111.646 36.3023L108.715 39.2812L110.691 41.1272L113.565 38.2056C113.812 37.9478 113.95 37.6025 113.947 37.2438C113.945 36.8851 113.803 36.5416 113.552 36.287Z" stroke="#120071" stroke-width="2" stroke-linejoin="round"/>
<path d="M133.24 85.1628H20.9836C20.6504 85.1628 20.3308 85.2961 20.0953 85.5332C19.8597 85.7704 19.7273 86.092 19.7273 86.4274C19.7273 86.7628 19.8597 87.0844 20.0953 87.3216C20.3308 87.5587 20.6504 87.6919 20.9836 87.6919H36.3683L29.2866 127.154C29.2744 127.226 29.2699 127.3 29.2721 127.372H31.8136L38.9302 87.6919H115.32L122.439 127.387H124.98C124.966 127.314 124.966 127.242 124.952 127.158L117.871 87.695H133.24C133.566 87.6836 133.874 87.5454 134.101 87.3095C134.327 87.0736 134.453 86.7584 134.453 86.4305C134.453 86.1025 134.327 85.7873 134.101 85.5514C133.874 85.3155 133.566 85.1773 133.24 85.1659V85.1628Z" stroke="#120071" stroke-width="2" stroke-linejoin="round"/>
<path d="M73.7762 83.1861C73.1768 84.0033 72.3528 84.6259 71.406 84.9772C70.4591 85.3284 69.4308 85.393 68.4479 85.1629" stroke="#120071" stroke-width="2" stroke-linecap="round" stroke-linejoin="round"/>
<path d="M41.116 80.7442C41.116 80.7442 34.0944 80.0909 33.1269 85.1629" stroke="#120071" stroke-width="2" stroke-linecap="round" stroke-linejoin="round"/>
<path d="M43.6111 81.878C43.3945 81.7617 43.2197 81.6485 43.0479 81.5437C42.2317 81.0472 41.936 80.7152 41.214 80.2355C40.5197 79.7721 39.8759 79.2362 39.2935 78.6366C37.6899 76.9804 38.225 76.689 40.03 77.7791C40.0409 77.7807 40.051 77.7858 40.0588 77.7936C41.2573 78.5243 42.5073 79.1659 43.7988 79.713" stroke="#120071" stroke-width="2" stroke-linecap="round" stroke-linejoin="round"/>
<path d="M43.0479 81.5436C41.4703 80.8412 39.8448 80.2532 38.1839 79.7841C36.784 79.3879 37.0287 79.0704 37.2597 79.0283C38.1128 78.9631 38.9704 78.9972 39.8156 79.1301" stroke="#120071" stroke-width="2" stroke-linecap="round" stroke-linejoin="round"/>
<path d="M43.3511 84.5233C43.0589 84.4843 42.7649 84.4601 42.4703 84.4506C39.9737 84.3588 40.8538 83.7996 41.7194 83.5494C42.1678 83.4202 42.9035 83.2733 43.4955 83.0698" stroke="#120071" stroke-width="2" stroke-linecap="round" stroke-linejoin="round"/>
<path d="M97.3568 98.317L101.472 127.387" stroke="#120071" stroke-width="2" stroke-linecap="round" stroke-linejoin="round"/>
<path d="M101.819 77.2122L95.0608 76.718" stroke="#120071" stroke-width="2" stroke-linecap="round" stroke-linejoin="round"/>
<path d="M70.8008 120.24L70.5561 121.34" stroke="#120071" stroke-width="2" stroke-linecap="round" stroke-linejoin="round"/>
<path d="M62.5708 121.34L63.1621 119.003" stroke="#120071" stroke-width="2" stroke-linecap="round" stroke-linejoin="round"/>
<path d="M55.1631 119.611L54.4266 121.34" stroke="#120071" stroke-width="2" stroke-linecap="round" stroke-linejoin="round"/>
<path d="M45.6616 121.224L47.6657 116.993" stroke="#120071" stroke-width="2" stroke-linecap="round" stroke-linejoin="round"/>
<path d="M62.5708 110.09L57.358 119.713C53.0601 119.861 48.8707 118.336 45.6616 115.455L58.9464 87.692" stroke="#120071" stroke-width="2" stroke-linecap="round" stroke-linejoin="round"/>
<path d="M68.7656 120.182L74.0939 94.756C74.1715 94.3846 74.3215 94.0323 74.5353 93.7197C74.7491 93.4071 75.0224 93.1403 75.3394 92.9348C75.6564 92.7293 76.0107 92.5892 76.3819 92.5226C76.7531 92.4559 77.1337 92.4641 77.5018 92.5466C81.985 93.5557 90.4134 94.4829 91.2616 87.7256" stroke="#120071" stroke-width="2" stroke-linecap="round" stroke-linejoin="round"/>
<path d="M49.9867 78.6848L66.3541 76.0073C69.0543 71.8763 72.2615 62.3077 76.9097 60.9781C77.6718 60.7825 78.366 60.3803 78.9168 59.8153" stroke="#120071" stroke-width="2" stroke-linecap="round" stroke-linejoin="round"/>
<path d="M79.9565 57.375C80.3393 57.3613 80.7193 57.3048 81.0897 57.2067L79.7217 58.4942" stroke="#120071" stroke-width="2" stroke-linecap="round" stroke-linejoin="round"/>
<path d="M83.09 59.9301C83.3135 60.3432 83.6851 60.6553 84.1297 60.8022C86.4394 61.67 88.5801 62.9387 90.4544 64.5507C92.5931 66.5259 94.4824 73.7636 95.3063 78.5334C95.5054 79.6546 95.277 80.8103 94.6667 81.7695C94.0564 82.7287 93.1091 83.4209 92.0139 83.7078C89.1572 84.5065 86.2235 84.9938 83.2633 85.1613" stroke="#120071" stroke-width="2" stroke-linecap="round" stroke-linejoin="round"/>
<path d="M88.2451 75.9477C84.0537 76.7614 79.8045 77.2377 75.5379 77.3721" stroke="#120071" stroke-width="2" stroke-linecap="round" stroke-linejoin="round"/>
<path d="M86.5845 76.2705C86.3967 74.0473 86.0199 71.8445 85.4582 69.6861V76.474" stroke="#120071" stroke-width="2" stroke-linecap="round" stroke-linejoin="round"/>
<path d="M52.4772 78.2733C53.7928 80.3033 54.2598 82.7738 53.7768 85.1483" stroke="#120071" stroke-width="2" stroke-linecap="round" stroke-linejoin="round"/>
<path d="M70.3251 79.3488C69.2132 79.843 66.3685 80.6578 64.8379 81.1512C64.1159 81.3807 65.4011 82.2122 69.7619 80.9477" stroke="#120071" stroke-width="2" stroke-linecap="round" stroke-linejoin="round"/>
<path d="M70.5416 80.4826C69.4875 81.1512 67.9576 81.9208 66.5706 82.6628C65.9208 83.0109 66.5129 83.7675 70.3539 82.1686" stroke="#120071" stroke-width="2" stroke-linecap="round" stroke-linejoin="round"/>
<path d="M70.8449 81.5436C70.2369 82.2995 69.7103 83.0323 68.6934 84.1309C68.2199 84.6427 69.0893 84.9532 72.3034 82.6774C72.8962 82.2574 73.2154 82.7179 73.9929 83.375C75.0211 84.2433 75.7112 85.2501 76.4621 85.1483" stroke="#120071" stroke-width="2" stroke-linecap="round" stroke-linejoin="round"/>
<path d="M72.7221 78.157C71.5669 75.4795 72.3178 75.3265 72.7221 76.0058C73.4075 77.1193 74.2374 78.1358 75.1898 79.0283" stroke="#120071" stroke-width="2" stroke-linecap="round" stroke-linejoin="round"/>
<path d="M74.7004 78.5349C75.0606 76.959 75.8959 77.0722 76.554 78.3712C77.314 79.8736 78.0071 85.1629 76.4187 85.1629" stroke="#120071" stroke-width="2" stroke-linecap="round" stroke-linejoin="round"/>
<path d="M77.0009 79.7214C75.3023 79.0834 72.577 77.968 71.8413 77.968C71.5669 77.968 68.4335 78.886 66.9173 79.3052C65.9209 79.5822 65.4451 80.045 67.0617 79.9884C67.7403 79.9647 68.4912 79.8721 69.1699 79.7849" stroke="#120071" stroke-width="2" stroke-linecap="round" stroke-linejoin="round"/>
<path d="M73.834 68.391C73.2078 71.469 73.2472 74.6466 73.9495 77.7079" stroke="#120071" stroke-width="2" stroke-linecap="round" stroke-linejoin="round"/>
<path d="M50.7011 85.1483H43.2789L44.2031 75.657H49.6614L50.7011 85.1483Z" stroke="#120071" stroke-width="2" stroke-linecap="round" stroke-linejoin="round"/>
<path d="M49.286 64.5377C49.2424 65.0709 49.0455 65.5797 48.7194 66.0021C48.3932 66.4245 47.9519 66.7421 47.4494 66.9162C46.9468 67.0902 46.4048 67.1132 45.8894 66.9822C45.3741 66.8513 44.9079 66.5721 44.5476 66.1788C44.1874 65.7854 43.9487 65.295 43.8608 64.7674C43.773 64.2398 43.8396 63.6979 44.0527 63.2078C44.2658 62.7177 44.6161 62.3007 45.0608 62.0077C45.5055 61.7147 46.0253 61.5585 46.5568 61.558C47.3112 61.589 48.0225 61.9203 48.5343 62.4791C49.046 63.0379 49.3164 63.7783 49.286 64.5377Z" stroke="#120071" stroke-width="2" stroke-linecap="round" stroke-linejoin="round"/>
<path d="M48.203 60.308C47.7652 60.6331 47.2302 60.7976 46.6868 60.7731C46.74 60.2284 46.9801 59.7197 47.3654 59.3342C47.8031 59.009 48.3383 58.8448 48.8816 58.869C48.8284 59.4135 48.5884 59.9223 48.203 60.308Z" stroke="#120071" stroke-width="2" stroke-linecap="round" stroke-linejoin="round"/>
<path d="M79.8555 51.7324C80.5145 50.5022 81.07 49.2186 81.5161 47.8951C81.6189 47.7434 81.7562 47.6186 81.9166 47.531C82.077 47.4434 82.2558 47.3956 82.4382 47.3915C82.6206 47.3874 82.8014 47.4271 82.9655 47.5074C83.1296 47.5876 83.2724 47.7061 83.3819 47.853C83.5278 48.0497 83.6076 48.2891 83.6099 48.5347C83.6084 48.6921 83.5688 48.8468 83.4943 48.9852C83.7031 48.845 83.9526 48.7793 84.2028 48.7988C84.453 48.8183 84.6895 48.9218 84.8743 49.0928C85.0591 49.2637 85.1816 49.4922 85.222 49.7415C85.2624 49.9908 85.2184 50.2466 85.0972 50.4678C85.3224 50.3244 85.591 50.2665 85.8548 50.3047C86.1186 50.343 86.3602 50.4747 86.536 50.6763C86.7119 50.8778 86.8105 51.1359 86.8141 51.4042C86.8177 51.6724 86.726 51.9331 86.5556 52.1393C86.6945 52.0947 86.8409 52.0784 86.9861 52.0915C87.1313 52.1046 87.2724 52.1469 87.4012 52.2157C87.5299 52.2846 87.6437 52.3787 87.7358 52.4925C87.8279 52.6063 87.8964 52.7375 87.9373 52.8783C87.9978 53.0909 87.9935 53.3168 87.9249 53.5269C87.8563 53.7369 87.7267 53.9214 87.5527 54.0564C87.437 54.1456 87.3047 54.2103 87.1636 54.2469C85.9338 54.381 84.8019 54.9848 84.0013 55.934C83.2007 56.8832 82.7924 58.1054 82.8605 59.3487" stroke="#120071" stroke-width="2" stroke-linecap="round" stroke-linejoin="round"/>
<path d="M83.09 59.9301L82.8157 62.1103L80.6063 60.3516L78.1082 61.6161L78.9169 59.8138" stroke="#120071" stroke-width="2" stroke-linecap="round" stroke-linejoin="round"/>
<path d="M80.6063 60.3516C78.7869 64.9737 78.1371 70.7732 78.1082 77.2267" stroke="#120071" stroke-width="2" stroke-linecap="round" stroke-linejoin="round"/>
<path d="M110.136 78.5204C110.684 78.5204 111.209 78.7391 111.596 79.1293C111.788 79.3221 111.941 79.5511 112.045 79.8033C112.149 80.0555 112.202 80.3258 112.202 80.5989C112.202 80.8719 112.149 81.1422 112.045 81.3944C111.941 81.6466 111.788 81.8756 111.596 82.0684C111.209 82.4586 110.684 82.6774 110.136 82.6774" stroke="#120071" stroke-width="2" stroke-linecap="round" stroke-linejoin="round"/>
<path d="M129.067 59.2324C129.067 59.4216 129.026 59.6085 128.946 59.7796C128.865 59.9507 128.748 60.1018 128.603 60.2218C128.458 60.3419 128.288 60.4279 128.105 60.4738C127.923 60.5197 127.733 60.5242 127.549 60.487C127.364 60.4504 127.19 60.373 127.039 60.2604C126.888 60.1478 126.763 60.0028 126.675 59.8359C126.586 59.669 126.535 59.4844 126.526 59.2953C126.517 59.1063 126.55 58.9175 126.622 58.7428C126.719 58.5093 126.882 58.3099 127.091 58.1695C127.3 58.0292 127.546 57.9542 127.797 57.9542C128.048 57.9541 128.294 58.0288 128.503 58.1691C128.712 58.3093 128.875 58.5086 128.972 58.742C129.036 58.8973 129.068 59.0641 129.067 59.2324Z" stroke="#120071" stroke-width="2" stroke-linecap="round" stroke-linejoin="round"/>
<path d="M118.858 81.4709L127.796 60.5115" stroke="#120071" stroke-width="2" stroke-linecap="round" stroke-linejoin="round"/>
<path d="M127.796 57.9533L114.771 43.2439" stroke="#120071" stroke-width="2" stroke-linecap="round" stroke-linejoin="round"/>
<path d="M113.212 42.241L111.003 40.8166" stroke="#120071" stroke-width="2" stroke-linecap="round" stroke-linejoin="round"/>
<path d="M105.804 46.9067C105.57 47.0912 105.293 47.2123 104.999 47.2587C104.705 47.3051 104.404 47.2752 104.125 47.1719C103.846 47.0685 103.598 46.8951 103.404 46.6681C103.21 46.4411 103.077 46.168 103.017 45.8747C102.967 45.6273 102.97 45.3717 103.028 45.1257C103.085 44.8798 103.195 44.6493 103.349 44.4503" stroke="#120071" stroke-width="2" stroke-linecap="round" stroke-linejoin="round"/>
<path d="M114.988 42.648C114.988 42.7878 114.958 42.926 114.899 43.0524C114.839 43.1789 114.753 43.2905 114.646 43.3792C114.538 43.4679 114.413 43.5314 114.278 43.5652C114.143 43.5989 114.002 43.6021 113.866 43.5744C113.636 43.5302 113.431 43.401 113.291 43.2123C113.151 43.0236 113.086 42.7891 113.109 42.5546C113.132 42.3202 113.241 42.1029 113.415 41.9454C113.589 41.7878 113.815 41.7015 114.049 41.7032C114.297 41.7068 114.534 41.8075 114.709 41.9839C114.884 42.1603 114.984 42.3985 114.988 42.648Z" stroke="#120071" stroke-width="2" stroke-linecap="round" stroke-linejoin="round"/>
<path d="M119.782 82.4158C119.782 82.5556 119.752 82.6937 119.693 82.8202C119.633 82.9467 119.547 83.0583 119.44 83.147C119.332 83.2357 119.207 83.2992 119.072 83.333C118.937 83.3667 118.796 83.3699 118.66 83.3422C118.478 83.306 118.311 83.216 118.18 83.0836C118.082 82.9847 118.007 82.8652 117.961 82.7337C117.914 82.6023 117.897 82.462 117.91 82.3231C117.924 82.1842 117.968 82.05 118.039 81.9302C118.11 81.8104 118.207 81.7079 118.322 81.6301C118.502 81.5081 118.719 81.453 118.936 81.4744C119.152 81.4957 119.354 81.5921 119.508 81.7471C119.595 81.8349 119.664 81.9392 119.711 82.0539C119.758 82.1687 119.782 82.2916 119.782 82.4158Z" stroke="#120071" stroke-width="2" stroke-linecap="round" stroke-linejoin="round"/>
<path d="M80.3753 100.308L78.6425 127.387" stroke="#120071" stroke-width="2" stroke-linecap="round" stroke-linejoin="round"/>
<path d="M52.0873 39.3921H43.4811V30.7293H52.0873V39.3921Z" stroke="#120071" stroke-width="2" stroke-linecap="round" stroke-linejoin="round"/>
<path d="M47.7842 32.706L50.2968 27.3717" stroke="#120071" stroke-width="2" stroke-linecap="round" stroke-linejoin="round"/>
<path d="M23.0196 101.812H16.4494" stroke="#120071" stroke-width="2" stroke-linecap="round" stroke-linejoin="round"/>
<path d="M19.7273 105.119V98.506" stroke="#120071" stroke-width="2" stroke-linecap="round" stroke-linejoin="round"/>
<path d="M129.327 97.6194C129.353 97.9031 129.316 98.189 129.219 98.4566C129.121 98.7241 128.966 98.9666 128.765 99.1666C128.563 99.3665 128.32 99.5189 128.053 99.6128C127.785 99.7067 127.501 99.7396 127.219 99.7093C126.843 99.6688 126.487 99.5171 126.196 99.2733C125.906 99.0295 125.693 98.7045 125.585 98.3392C125.506 98.066 125.487 97.7784 125.53 97.497C125.574 97.2157 125.679 96.9476 125.838 96.712C125.997 96.4764 126.206 96.2791 126.45 96.1344C126.693 95.9897 126.966 95.9012 127.248 95.8752C127.625 95.8359 128.006 95.9122 128.341 96.0941C128.675 96.276 128.947 96.5551 129.121 96.8949C129.236 97.1198 129.306 97.3661 129.327 97.6194Z" stroke="#120071" stroke-width="2" stroke-linecap="round" stroke-linejoin="round"/>
<path d="M3.79999 127.387H148.2" stroke="#120071" stroke-width="2" stroke-linecap="round" stroke-linejoin="round"/>
<path d="M55.3508 125.483H71.4802" stroke="#120071" stroke-width="2" stroke-linecap="round" stroke-linejoin="round"/>
<path d="M38.7015 125.483H55.3219" stroke="#120071" stroke-width="2" stroke-linecap="round" stroke-linejoin="round"/>
<path d="M55.35 125.46C55.197 124.056 54.8872 122.674 54.4266 121.34C51.5462 122.044 48.5343 121.999 45.676 121.209C42.2501 122.38 39.2321 124.52 36.9831 127.372C43.6544 127.372 48.0875 127.387 53.1126 127.372" stroke="#120071" stroke-width="2" stroke-linecap="round" stroke-linejoin="round"/>
<path d="M70.5561 121.34C67.9508 122.089 65.1905 122.089 62.5852 121.34C58.9889 122.39 54.3871 126.09 53.1126 127.372C60.7369 127.372 65.531 127.3 71.5236 127.3C71.5765 125.27 71.2482 123.248 70.5561 121.34Z" stroke="#120071" stroke-width="2" stroke-linecap="round" stroke-linejoin="round"/>
<path d="M78.6425 96.8054L79.0035 95.3373L83.2344 96.8344" stroke="#120071" stroke-width="2" stroke-linecap="round" stroke-linejoin="round"/>
<path d="M78.6425 96.8054L80.3753 97.067L95.9682 95.7849" stroke="#120071" stroke-width="2" stroke-linecap="round" stroke-linejoin="round"/>
<path d="M97.9777 95.9333L93.0681 95.5699" stroke="#120071" stroke-width="2" stroke-linecap="round" stroke-linejoin="round"/>
<path d="M52.6216 119.175L64.8379 98.5496" stroke="#120071" stroke-width="2" stroke-linecap="round" stroke-linejoin="round"/>
<path d="M79.2779 77.1395C80.5775 79.0727 80.9096 81.7471 80.2454 85.1628" stroke="#120071" stroke-width="2" stroke-linecap="round" stroke-linejoin="round"/>
<path d="M77.8483 100.018L80.3753 100.308L96.1833 98.9856C96.5152 98.9596 96.8305 98.8291 97.0845 98.6126C97.3385 98.396 97.5184 98.1044 97.5985 97.7792L104.429 64.4505C104.542 63.9112 104.476 63.3494 104.241 62.8514C104.006 62.3535 103.616 61.9469 103.129 61.6942C102.807 61.5257 102.452 61.4297 102.089 61.4126L83.581 60.5115" stroke="#120071" stroke-width="2" stroke-linecap="round" stroke-linejoin="round"/>
<path d="M71.8557 87.2559C70.3768 87.5427 69.0165 88.2672 67.949 89.3365C66.8814 90.4059 66.1552 91.7716 65.8631 93.2588L60.9991 118.085C64.7092 119.852 68.8283 120.566 72.9121 120.15C72.9121 120.078 77.3345 102.126 78.6448 96.8069" stroke="#120071" stroke-width="2" stroke-linecap="round" stroke-linejoin="round"/>
<path d="M60.1305 52.212C60.7967 52.2124 61.4355 52.479 61.9067 52.9532C62.3778 53.4274 62.6426 54.0705 62.643 54.7411V73.1279C62.643 73.7988 62.3783 74.4422 61.9072 74.9168C61.436 75.3913 60.797 75.6581 60.1305 75.6585H35.1637C34.4968 75.6581 33.8573 75.3917 33.3851 74.9177C32.9129 74.4437 32.6465 73.8007 32.6443 73.1294V54.7411C32.6437 54.4092 32.7081 54.0804 32.8339 53.7736C32.9597 53.4668 33.1443 53.1879 33.3773 52.953C33.6102 52.7181 33.8869 52.5318 34.1915 52.4046C34.4961 52.2775 34.8226 52.212 35.1523 52.212H60.1305Z" stroke="#120071" stroke-width="2" stroke-linecap="round" stroke-linejoin="round"/>
<path d="M63.596 54.7411V73.1133C63.5956 73.784 63.3308 74.427 62.8597 74.9012C62.3886 75.3754 61.7497 75.642 61.0835 75.6424H60.1304C60.7967 75.642 61.4355 75.3754 61.9066 74.9012C62.3777 74.427 62.6426 73.784 62.643 73.1133V54.7411C62.6426 54.0705 62.3777 53.4274 61.9066 52.9532C61.4355 52.479 60.7967 52.2124 60.1304 52.212H61.0835C61.7497 52.2124 62.3886 52.479 62.8597 52.9532C63.3308 53.4274 63.5956 54.0705 63.596 54.7411Z" stroke="#120071" stroke-width="2" stroke-linecap="round" stroke-linejoin="round"/>
<path d="M83.524 53.55C84.588 52.7605 85.348 54.585 83.3651 55.4977C83.0893 55.6247 82.2388 58.4192 83.0908 59.9347C81.7304 60.3853 80.0872 60.6538 78.9176 59.8184C79.5354 59.1501 79.9027 58.2862 79.9565 57.375C76.2021 57.4331 79.7832 51.7209 79.8554 51.7209C81.6908 49.1375 82.9281 51.8555 82.8324 53.4742C82.8042 53.9524 83.1371 53.8353 83.524 53.55Z" stroke="#120071" stroke-width="2" stroke-linecap="round" stroke-linejoin="round"/>
<path d="M92.5103 96.0457C93.4695 95.3221 94.2354 94.3702 94.7394 93.2755C95.2434 92.1807 95.4698 90.9772 95.3983 89.7727C95.3459 89.0847 95.2461 88.4012 95.0996 87.7271" stroke="#120071" stroke-width="2" stroke-linecap="round" stroke-linejoin="round"/>
<path d="M93.2702 83.1555C93.6612 83.7972 94.003 84.468 94.2924 85.1621" stroke="#120071" stroke-width="2" stroke-linecap="round" stroke-linejoin="round"/>
<path d="M110.136 84.4652C110.136 84.6502 110.063 84.8277 109.933 84.9585C109.803 85.0893 109.627 85.1628 109.443 85.1628H104.245C104.061 85.1628 103.885 85.0893 103.755 84.9585C103.625 84.8277 103.552 84.6502 103.552 84.4652V76.7295C103.552 76.5444 103.625 76.367 103.755 76.2361C103.885 76.1053 104.061 76.0318 104.245 76.0318H109.44C109.624 76.032 109.8 76.1056 109.93 76.2364C110.06 76.3672 110.133 76.5445 110.133 76.7295L110.136 84.4652Z" stroke="#120071" stroke-width="2" stroke-linecap="round" stroke-linejoin="round"/>
<path d="M125.385 83.346C125.442 83.3475 125.496 83.3689 125.537 83.4057C125.556 83.4232 125.572 83.4446 125.583 83.4686C125.594 83.4925 125.601 83.5185 125.601 83.5449V84.9624C125.601 84.9888 125.594 85.0148 125.583 85.0387C125.572 85.0627 125.556 85.0841 125.537 85.1017C125.495 85.1389 125.441 85.16 125.385 85.1613H112.317C112.261 85.16 112.207 85.1389 112.165 85.1017C112.145 85.0841 112.129 85.0627 112.118 85.0387C112.107 85.0148 112.101 84.9888 112.1 84.9624V83.5449C112.101 83.5185 112.107 83.4925 112.118 83.4686C112.129 83.4446 112.145 83.4232 112.165 83.4057C112.207 83.3684 112.261 83.3473 112.317 83.346H125.385Z" stroke="#120071" stroke-width="2" stroke-linecap="round" stroke-linejoin="round"/>
<path d="M80.3753 100.308V97.067" stroke="#120071" stroke-width="2" stroke-linecap="round" stroke-linejoin="round"/>
<path d="M108.68 39.2445L101.648 41.1776C101.522 41.2121 101.408 41.2791 101.316 41.3719C101.224 41.4647 101.159 41.5801 101.125 41.7066C101.091 41.8331 101.091 41.9662 101.125 42.0927C101.158 42.2192 101.224 42.3347 101.316 42.4276L107.64 48.7358C107.709 48.8053 107.791 48.8605 107.881 48.8981C107.971 48.9357 108.068 48.9551 108.165 48.9551C108.263 48.9551 108.359 48.9357 108.449 48.8981C108.539 48.8605 108.621 48.8053 108.69 48.7358C108.782 48.6432 108.848 48.5279 108.882 48.4015L110.759 41.1922L108.68 39.2445Z" stroke="#120071" stroke-width="2" stroke-linejoin="round"/>
</svg>
