<svg width="355" height="643" viewBox="0 0 355 643" fill="none" xmlns="http://www.w3.org/2000/svg">
<path d="M146.951 525.885C135.829 525.885 132.492 513.319 128.648 489.235C128.408 487.571 128.351 485.837 128.48 484.132C128.609 482.428 128.922 480.787 129.401 479.302C129.905 477.438 130.793 476.009 131.872 475.327C136.519 473.217 141.285 473.064 145.896 472.911C152.231 472.706 158.229 472.514 164.114 467.797C166.065 466.032 167.947 464.024 169.746 461.789C175.124 455.512 181.214 448.405 186.705 451.729C190.401 453.966 192.442 457.238 192.78 461.457C193.562 471.236 184.642 482.549 178.743 490.04C177.694 491.318 176.786 492.52 176.082 493.479C173.766 496.832 171.568 500.444 169.5 504.294C164.452 513.242 158.722 523.469 151.985 525.194C150.318 525.64 148.636 525.871 146.951 525.885ZM132.393 479.047C131.886 479.512 131.48 480.273 131.239 481.207C130.565 483.312 130.368 485.81 130.69 488.174C134.97 515.108 137.898 524.964 151.724 521.41C157.779 519.851 162.988 510.557 168.057 501.571C170.19 497.599 172.459 493.876 174.85 490.424C175.554 489.427 176.504 488.263 177.567 486.908C182.375 480.811 191.316 469.459 190.725 462.019C190.506 459.347 188.943 457.123 186.071 455.385C181.538 452.636 175.899 459.22 170.922 465.023C169.03 467.378 167.047 469.48 164.987 471.313C158.708 476.426 152.224 476.592 145.98 476.797C141.461 476.886 136.807 477.091 132.393 479.047Z" fill="#FFF1E4"/>
<path d="M334.138 274.999C331.101 274.968 328.146 273.206 325.69 269.963C316.539 258.241 312.709 229.964 311.97 216.644C310.949 198.07 314.884 183.19 318.686 168.821C320.741 161.049 322.86 153.021 324.219 144.405C325.359 137.17 325.472 127.915 325.627 118.123C325.915 95.4963 326.246 69.853 339.889 61.595C342.916 59.7542 344.113 60.8408 345.303 62.4259C345.451 62.6177 345.599 62.8222 345.76 63.014C345.831 63.0907 345.896 63.1814 345.958 63.2824L347.281 65.7368C347.329 65.8171 347.371 65.9072 347.408 66.0053C349.147 70.6967 348.4 79.9902 347.527 84.7584C343.853 104.764 340.101 128.669 340.101 154.236C340.101 166.405 343.149 175.827 346.38 185.81C351.582 201.905 357.482 220.146 350.266 252.923C347.76 264.3 343.557 271.625 338.122 274.092C336.82 274.69 335.482 274.996 334.138 274.999ZM342.494 64.4585C341.813 64.5315 341.141 64.7901 340.502 65.2255C328.267 72.6398 327.971 95.8031 327.682 118.212C327.556 128.26 327.436 137.745 326.218 145.466C324.81 154.415 322.649 162.57 320.586 170.47C316.743 185.018 313.11 198.747 314.075 216.26C314.891 231.038 319.002 256.694 326.901 266.818C328.421 268.825 330.169 270.187 332.018 270.802C333.866 271.417 335.767 271.27 337.58 270.372C343.585 267.649 346.732 258.598 348.274 251.491C355.109 220.466 349.731 203.835 344.529 187.753C341.297 177.77 337.96 167.454 337.96 154.236C337.96 128.119 341.769 103.844 345.493 83.544C346.295 79.1849 346.788 71.5404 345.676 68.2935L344.507 66.1331C344.345 65.9414 344.191 65.7368 344.036 65.5323C343.611 64.8446 343.063 64.4627 342.494 64.4585Z" fill="#FFF1E4"/>
<path d="M143.741 354.997C143.301 355 142.861 354.944 142.425 354.831C139.13 353.975 136.793 349.948 135.498 342.853C134.203 335.758 136.498 328.958 138.722 322.4C140.13 318.284 141.432 314.385 141.763 310.754C144.692 278.796 134.47 257.959 111.373 248.64L110.415 248.257C106.994 246.889 103.46 245.483 100.412 242.287C100.193 242.054 99.9918 241.771 99.8135 241.443C99.4108 240.737 99.1329 239.83 99.0153 238.836C98.8977 237.842 98.9457 236.807 99.1532 235.863C99.361 234.92 99.7189 234.11 100.181 233.537C100.644 232.964 101.19 232.655 101.749 232.648C106.931 232.406 111.387 231.715 115.322 231.114C128.338 229.133 137.737 227.701 157.617 243.744C170.781 254.367 175.216 273.261 171.541 303.212C170.413 312.542 168.336 321.408 165.417 329.354C162.566 336.807 151.957 354.997 143.741 354.997ZM126.98 233.722C123.284 233.722 119.609 234.285 115.505 234.911C111.542 235.525 107.057 236.189 101.806 236.458C101.696 236.446 101.585 236.481 101.484 236.561C101.383 236.64 101.293 236.762 101.223 236.915C101.152 237.069 101.102 237.251 101.077 237.446C101.052 237.641 101.052 237.844 101.079 238.039C101.114 238.3 101.193 238.534 101.306 238.708C101.355 238.795 101.409 238.871 101.468 238.938C104.234 241.84 107.606 243.182 110.866 244.486L111.83 244.869C136.223 254.712 147.029 277.083 143.847 311.342C143.446 315.714 141.96 320.099 140.524 324.356C138.455 330.453 136.505 336.219 137.497 341.613C138.539 347.289 140.25 350.357 142.728 351.009C149.725 352.837 160.728 334.864 163.678 327.13C166.429 319.576 168.395 311.171 169.479 302.33C172.935 274.092 169.014 257.077 156.758 247.196C143.425 236.458 135.139 233.722 126.98 233.722Z" fill="#FFF1E4"/>
<path d="M112.682 14.8977C111.176 19.5124 109.613 24.2934 109.613 30.2376C109.613 34.9035 110.69 39.0837 111.725 43.136C112.591 46.1086 113.228 49.2829 113.618 52.5701C114.428 61.5184 111.507 69.1883 108.958 74.1355C101.172 89.028 85.0864 100.201 74.5339 98.053C69.2189 96.9665 65.7201 93.7323 63.8405 88.1843C60.1658 77.3569 63.3477 59.358 66.6142 43.3405C67.1069 40.9373 67.5856 38.3039 68.0925 35.5171C69.8595 25.8402 71.8588 14.8593 75.1322 8.77447C75.4842 8.13531 75.9066 7.39388 76.3853 6.56296C77.392 4.78608 78.6099 2.65127 79.8136 0.273579H76.9344C76.2304 1.55191 75.5265 2.75354 74.9562 3.80177C74.4705 4.65825 74.034 5.42525 73.675 6.0772C70.0143 12.8012 67.9306 24.2295 66.0932 34.3155C65.5934 37.0767 65.1217 39.6717 64.643 41.9855C61.2006 58.8722 57.8567 77.8938 62.0806 90.1913C64.2981 96.7236 68.4163 100.648 74.3438 101.862C75.3047 102.054 76.2706 102.149 77.2371 102.144C88.205 102.144 103.038 91.0989 110.535 76.7688C114.696 68.8176 116.498 60.24 115.744 51.9565C115.324 48.3197 114.63 44.8054 113.682 41.5125C112.696 37.6775 111.76 34.0598 111.76 30.2376C111.76 25.3416 113.105 21.2893 114.534 16.8535C116.075 12.1237 117.779 6.86976 117.652 0.235229H115.54C115.646 5.78318 114.175 10.2318 112.682 14.8977Z" fill="#FFF1E4"/>
<path d="M36.118 15.115C38.6241 18.4386 41.9187 19.1928 45.9032 17.3648C49.2682 15.8181 53.0274 8.85115 57.2935 0.27356H54.4283C51.0141 7.01036 47.8603 12.5072 45.3893 13.6449C41.9891 15.2045 39.3703 14.6676 37.364 12.0214C35.5055 9.54145 34.2947 5.38688 33.4711 0.27356H31.2535C32.1828 6.53738 33.6611 11.8552 36.118 15.115Z" fill="#FFF1E4"/>
<path d="M133.886 28.4863C133.238 36.2841 132.224 46.3829 130.098 55.3312C126.415 70.4834 121.63 84.6712 115.871 97.5161C113.055 103.793 109.162 109.277 105.375 114.595C104.34 116.039 103.326 117.458 102.362 118.877C98.9407 123.912 95.0121 127.69 90.7957 129.998C67.7124 142.667 57.1035 108.753 46.8466 75.9507C38.9973 50.8699 31.5845 27.1185 19.0115 24.3189C12.6758 22.8872 6.3893 24.2295 0.130981 26.7478V30.685C6.34706 28.1284 12.5913 26.7222 18.7511 28.1284C30.2751 30.685 37.4345 53.6183 45.0093 77.8426C53.7033 105.646 63.39 136.646 81.4539 136.646C84.8358 136.584 88.1938 135.623 91.4222 133.795C95.8993 131.354 100.07 127.346 103.699 121.996C104.657 120.603 105.664 119.197 106.684 117.752C110.57 112.306 114.583 106.682 117.533 100.06C123.414 86.916 128.301 72.4017 132.063 56.9036C134.287 47.4951 135.329 37.0767 135.991 29.0488C136.884 19.5335 136.941 9.82124 136.16 0.27356H134.048C134.794 8.10972 134.822 17.352 133.886 28.4863Z" fill="#FFF1E4"/>
<path d="M352.117 404.226C349.489 403.862 346.851 403.802 344.219 404.047C330.027 405.568 317.285 418.109 304.958 430.176C296.06 438.907 286.852 447.945 277.285 452.572C253.709 464.001 234.814 450.591 222.657 413.788C218.792 402.104 216.11 392.887 216.736 380.436C217.63 362.54 221.214 347.2 225.008 331.029C226.895 322.975 228.845 314.64 230.436 305.961C232.625 294.021 232.956 282.58 233.308 270.461C233.42 266.626 233.533 262.536 233.723 258.522C234.047 251.35 235.3 244.089 236.539 237.071C237.542 231.65 238.36 226.121 238.989 220.517C240.925 201.214 235.603 166.955 228.239 151.372C218.947 131.673 205.487 123.172 188.239 126.1C170.711 129.078 154.787 142.935 146.853 150.938C135.061 162.839 114.189 180.339 106.945 163.9C106.503 162.92 106.18 161.781 105.998 160.558C105.816 159.335 105.779 158.056 105.889 156.805C106.501 147.985 112.569 137.63 116.054 132.849C118.771 129.155 121.686 125.473 124.502 121.919C138.271 104.56 152.506 86.5992 155.286 53.7717C157.025 33.2161 155.814 16.9302 152.302 0.324707H150.021C153.639 16.8535 154.949 32.8966 153.196 53.1837C150.528 84.3365 136.702 101.811 123.27 118.724C120.454 122.29 117.504 125.997 114.759 129.73C113.724 131.149 104.636 143.792 103.763 156.268C103.618 158.029 103.677 159.825 103.936 161.543C104.196 163.259 104.65 164.859 105.269 166.239C109.141 175.034 116.399 176.658 126.853 171.058C132.985 167.773 140.045 162.11 147.853 154.236C155.66 146.361 171.26 132.772 188.408 129.871C204.931 127.058 217.785 135.125 226.613 153.814C233.512 168.425 238.693 201.726 236.884 219.776C236.269 225.223 235.472 230.598 234.498 235.87C233.251 243.092 231.963 250.558 231.618 258.151C231.428 262.229 231.309 266.294 231.196 270.219C230.858 282.069 230.534 293.228 228.429 304.733C226.866 313.26 224.909 321.518 223.065 329.495C219.376 345.269 215.554 361.581 214.617 380.065C213.913 393.641 216.891 403.83 220.826 415.731C230.59 445.273 244.487 460.383 261.565 460.383C267.057 460.3 272.519 458.912 277.813 456.254C287.626 451.511 296.94 442.358 305.972 433.525C318.094 421.624 330.611 409.314 344.352 407.856C346.933 407.614 349.52 407.674 352.096 408.035L352.117 404.226Z" fill="#FFF1E4"/>
<path d="M352.117 340.718C341.032 347.453 330.291 355.931 320.016 366.055C316.37 369.779 312.866 373.943 309.527 378.519C305.916 383.236 302.185 388.119 298.2 391.737C285.571 403.242 262.664 403.242 252.062 386.137C237.644 362.859 241.847 334.237 245.909 306.549C247.458 296.015 250.055 282.912 252.815 269.03C262.29 221.271 274.089 161.829 261.136 126.547C246.712 87.2639 214.913 89.3987 189.964 104.496C187.979 105.697 185.515 107.717 182.925 109.865C174.864 116.474 163.847 125.55 157.765 117.266C155.941 114.786 154.949 112.153 154.723 109.315C154.287 103.665 156.885 97.4267 159.391 91.4185C160.376 89.0664 161.306 86.8293 162.073 84.5922C163.101 81.6137 164.185 78.6096 165.311 75.4266C172.527 55.1906 180.714 32.2702 179.215 7.67509C179.057 5.17576 178.796 2.70158 178.433 0.27356H176.244C176.654 2.84132 176.946 5.46672 177.117 8.12251C178.525 31.3114 170.563 53.6183 163.537 73.3173C162.397 76.5132 161.32 79.53 160.285 82.5341C159.581 84.6306 158.659 86.7909 157.708 89.0919C154.935 95.7393 152.076 102.617 152.633 109.852C152.935 113.687 154.238 117.254 156.497 120.334C163.537 129.973 174.801 120.756 183.783 113.355C186.339 111.258 188.746 109.277 190.626 108.139C214.836 93.4894 245.613 91.1884 259.376 128.682C271.738 162.353 260.143 220.786 250.823 267.726C248.056 281.685 245.437 294.878 243.867 305.564C239.644 334.365 235.265 364.163 250.661 389.001C256.011 397.642 264.473 402.794 274.469 403.51C275.244 403.51 276.018 403.599 276.792 403.599C285.029 403.599 293.237 400.519 299.143 395.162C303.283 391.404 307.084 386.432 310.759 381.625C314.024 377.155 317.448 373.081 321.009 369.43C330.976 359.625 341.383 351.371 352.117 344.758V340.718Z" fill="#FFF1E4"/>
<path d="M352.117 0.27356H351.948C351.948 5.38688 350.357 10.3724 347.267 15.2812C333.11 37.7286 313.969 33.9448 295.44 30.276C286.394 28.4863 277.046 26.6327 268.605 28.0261C261.192 29.3044 254.849 35.4916 248.711 41.5125C242.572 47.5334 236.919 53.1069 230.168 54.462C221.347 56.2516 211.865 54.8838 204.825 50.8315C195.216 45.2963 189.845 35.2231 188.859 20.8802C188.38 13.9645 189.112 7.25324 190.028 0.27356H187.859C186.979 7.11262 186.261 14.1307 186.761 21.366C188.796 51.1639 207.479 59.0767 222.326 59.0767C225.023 59.0767 227.719 58.8121 230.4 58.2842C237.56 56.8397 243.741 50.7676 249.717 44.8873C255.941 38.7769 261.819 32.9988 268.795 31.8483C277.025 30.4933 285.859 32.2318 295.208 34.0854C314.215 37.8437 333.828 41.7554 348.661 18.1574C349.983 16.1128 351.145 13.7519 352.117 11.1394V0.27356Z" fill="#FFF1E4"/>
<path d="M261.91 0.27356C260.671 1.01499 259.397 1.78199 258.088 2.60012C247.169 9.29857 234.793 16.9046 225.001 6.25614C223.545 4.75607 222.279 2.71796 221.284 0.27356H218.764C219.974 4.18837 221.767 7.40479 223.938 9.55424C227.705 13.5538 232.007 15.5844 236.37 15.4218C243.804 15.4218 251.583 10.6408 258.764 6.23058C261.023 4.8372 263.163 3.52052 265.219 2.39559C266.974 1.47053 268.762 0.761574 270.569 0.27356H261.91Z" fill="#FFF1E4"/>
<path d="M352.117 92.3134C352.033 92.8247 351.934 93.3488 351.85 93.8729C349.189 110.798 349.59 129.666 352.117 148.368V92.3134Z" fill="#FFF1E4"/>
<path d="M352.117 322.668L351.033 323.193C346.105 325.647 341.67 330.338 337.411 334.864C335.299 337.075 333.188 339.376 330.991 341.345C318.404 352.773 288.971 366.515 277.954 346.458C252.787 300.809 268.429 229.823 279.848 177.961C280.671 174.127 281.72 170.458 282.825 166.457C285.008 158.646 287.26 150.567 287.852 142.002C288.922 126.458 281.931 117.714 275.764 109.929C268.633 100.98 262.474 93.3105 266.909 77.1396C268.084 72.8572 269.943 68.8305 271.745 64.9188C272.308 63.6404 272.871 62.4772 273.406 61.2627C276.039 55.2802 280.896 56.6224 285.177 57.7985C285.923 58.003 286.641 58.2075 287.331 58.3609C296.701 60.4957 318.651 68.089 320.157 92.7097C321.269 110.824 316.581 124.105 311.625 138.154C309.599 143.697 307.733 149.427 306.035 155.322C304.458 161.113 302.917 166.457 301.431 171.57C291.526 205.586 284.987 228.059 298.799 271.944C302.086 282.401 309.161 300.783 319.587 306.459C328.175 311.138 340.234 308.402 352.124 300.068V295.849C340.417 304.299 328.408 307.277 320.192 302.803C310.47 297.511 303.761 280.011 300.629 270.052C287.394 227.995 293.378 207.414 303.297 173.372C304.796 168.259 306.345 162.89 307.936 157.125C309.592 151.341 311.415 145.721 313.399 140.289C318.327 126.227 323.438 111.808 322.248 92.3517C320.579 65.021 297.454 56.8653 287.591 54.6282C286.887 54.4748 286.183 54.2703 285.479 54.0785C280.875 52.8002 275.138 51.2151 271.738 58.9362C271.217 60.125 270.668 61.3139 270.112 62.5283C268.14 66.4767 266.428 70.8265 265.008 75.4906C259.749 94.576 267.275 104.023 274.547 113.15C280.77 120.974 286.655 128.35 285.74 141.593C285.198 149.493 283.029 157.265 280.925 164.782C279.848 168.617 278.735 172.644 277.869 176.555C266.233 229.389 250.295 301.729 276.461 349.219C280.995 357.465 288.161 360.558 296.046 360.558C308.872 360.558 323.592 352.351 331.949 344.784C334.187 342.751 336.377 340.424 338.488 338.175C342.628 333.764 346.936 329.226 351.604 326.9L352.131 326.631L352.117 322.668Z" fill="#FFF1E4"/>
<path d="M352.117 597.394C349.4 598.481 346.69 599.529 344.022 600.552C331.315 605.448 319.319 610.075 311.287 617.375C305.261 622.837 299.86 630.323 295.37 639.439H298.285C302.314 631.828 307.031 625.524 312.23 620.8C320.023 613.731 331.892 609.155 344.458 604.31C346.985 603.338 349.548 602.341 352.117 601.319V597.394Z" fill="#FFF1E4"/>
<path d="M217.074 625.76C214.646 603.722 202.488 597.394 191.731 591.821C183.678 587.628 176.068 583.678 174.083 573.847C172.435 565.73 174.589 553.727 180.672 537.159C183.453 529.373 187.346 523.104 191.935 519.02C197.961 513.549 203.297 505.444 208.239 494.233C209.788 490.73 210.879 486.282 211.935 481.987C214.448 471.76 216.863 461.994 225.163 461.994C226.41 462.007 227.655 462.195 228.887 462.556C235.223 464.32 238.517 469.791 242.016 475.582C247.331 484.39 252.829 493.479 268.816 488.66C285.12 483.725 302.607 469.561 318.094 457.072L320.826 454.86C324.082 452.088 327.246 448.972 330.301 445.529C335.363 440.07 340.6 434.407 346.493 432.285C348.386 431.595 350.28 431.084 352.124 430.738V426.903C350.111 427.274 348.084 427.811 346.049 428.552C339.826 430.802 334.434 436.631 329.217 442.256C326.232 445.624 323.141 448.672 319.96 451.383L317.221 453.595C301.896 465.995 284.515 480.056 268.471 484.901C253.512 489.439 248.619 481.347 243.445 472.77C239.869 466.851 236.173 460.741 229.218 458.785C216.222 455.142 212.921 468.59 210.013 480.453C209.137 484.498 207.991 488.332 206.599 491.868C201.847 502.632 196.744 510.404 190.999 515.619C186.096 520.018 181.932 526.724 178.94 535.037C172.365 552.934 170.197 565.717 172.119 575.177C174.477 586.822 182.587 591.041 191.168 595.502C201.812 601.038 212.822 606.764 214.998 626.515C215.465 630.781 215.778 635.098 215.934 639.439H218.046C217.887 634.845 217.563 630.276 217.074 625.76Z" fill="#FFF1E4"/>
<path d="M352.117 562.982C349.914 564.682 347.739 566.395 345.599 568.095C331.927 578.871 319.017 589.047 303.804 594.582C295.673 597.535 286.204 600.462 284.627 600.181C279.277 593.47 271.956 570.345 270.548 559.978C267.514 537.952 279.179 522.484 288.556 510.059C290.14 507.95 291.639 505.968 293.019 504.012C298.221 496.675 303.705 495.422 309.513 494.092C313.172 493.471 316.787 492.186 320.305 490.258C324.688 487.366 328.962 483.95 333.096 480.031C338.2 475.454 343.473 470.725 348.682 468.36C349.801 467.848 350.956 467.465 352.124 467.145V463.31C350.793 463.645 349.473 464.106 348.168 464.691C342.74 467.158 337.362 471.977 332.16 476.643C328.112 480.48 323.928 483.824 319.636 486.653C316.249 488.509 312.768 489.746 309.245 490.347C303.41 491.689 297.383 493.07 291.724 501.059C290.372 502.964 288.908 504.894 287.31 507.029C277.454 520.132 265.12 536.431 268.499 560.975C270.048 572.25 277.588 596.321 283.593 603.594C283.719 603.748 283.924 603.991 284.874 603.991C286.739 603.991 291.505 603.019 304.219 598.404C319.657 592.792 332.667 582.54 346.457 571.674L352.138 567.226L352.117 562.982Z" fill="#FFF1E4"/>
<path d="M352.117 535.625C349.562 537.402 347.035 539.243 344.529 541.058C334.06 548.728 323.226 556.59 311.737 558.482C303.888 559.76 299.165 558.098 298.77 553.88C297.933 544.932 312.8 524.747 321.572 520.758C329.963 516.923 338.869 512.603 347.147 506.595C348.393 505.687 350.104 504.562 352.117 503.322V499.321C349.513 500.893 347.471 502.223 346.366 503.028C338.2 508.959 329.379 513.255 321.058 517.09C312.737 520.925 295.511 541.953 296.694 554.57C297.334 561.46 302.501 562.854 306.866 562.854C308.922 562.854 310.794 562.547 311.928 562.355C323.726 560.412 334.701 552.41 345.317 544.676C347.563 543.04 349.829 541.391 352.117 539.78V535.625Z" fill="#FFF1E4"/>
<path d="M328.302 639.439H328.182C327.068 638.959 325.905 638.981 324.796 639.502L328.302 639.439Z" fill="#FFF1E4"/>
<path d="M352.117 628.368C349.792 630.864 347.967 634.644 346.908 639.157C346.888 639.249 346.872 639.343 346.859 639.439H349.154C349.863 636.929 350.876 634.743 352.117 633.047V628.368Z" fill="#FFF1E4"/>
<path d="M264.262 589.418C258.764 581.939 255.356 574.653 252.498 564.26C250.006 555.209 248.683 545.558 247.401 536.226C245.768 524.287 244.072 511.938 239.925 500.638C238.193 495.921 235.476 493.198 231.844 492.533C225.261 491.357 217.961 497.352 216.743 499.564C214.477 503.68 212.365 507.042 210.499 510.008C204.98 518.803 200.996 525.156 198.792 541.161C197.06 553.714 205.494 562.7 214.42 572.211C222.065 580.367 229.971 588.83 231.112 599.158C231.738 604.476 231.034 616.429 230.33 630.209C230.168 633.188 229.999 636.281 229.837 639.439H231.949C232.104 636.409 232.266 633.443 232.421 630.58C233.216 615.892 233.829 604.285 233.202 598.404C231.872 586.35 223.551 577.491 215.504 568.9C207.275 560.144 199.51 551.86 200.855 542.055C202.896 527.214 206.487 521.5 211.907 512.858C213.794 509.854 215.934 506.467 218.243 502.235C219.031 500.804 224.755 496.189 230.126 496.189C230.64 496.189 231.147 496.189 231.647 496.317C234.61 496.854 236.814 499.014 238.179 502.708C242.122 513.446 243.691 524.926 245.36 537.083C246.669 546.619 248.014 556.475 250.612 565.909C253.632 576.877 257.222 584.56 262.994 592.422C269.084 600.705 268.007 621.747 266.331 639.375H268.443C270.196 620.954 271.196 598.864 264.262 589.418Z" fill="#FFF1E4"/>
<path d="M207.247 421.892C198.144 410.873 184.262 425.727 170.837 439.994C163.277 448.06 156.131 455.666 150.788 457.43C136.624 462.109 123.763 460.805 108.824 457.43C105.727 456.727 102.193 454.273 98.4619 451.678C91.8797 447.101 85.0864 442.384 79.1096 446.002C72.4078 450.054 70.5704 474.125 69.0991 493.453C68.3952 502.248 67.7898 510.57 66.8535 514.06C66.4592 514.878 64.1995 517.051 62.0242 519.173C51.7251 529.132 30.2962 549.853 22.7707 586.656C20.2153 599.146 17.9344 614.665 23.0171 623.881C29.3528 635.386 42.3834 624.137 50.1693 617.426C51.4365 616.326 52.5347 615.38 53.4287 614.69C70.0143 601.779 93.1117 589.405 108.923 603.76C116.85 610.957 124.847 625.16 130.802 639.464H133.47C127.254 623.894 118.624 608.286 109.866 600.335C104.53 595.49 98.4478 593.521 92.0839 593.521C78.7084 593.521 64.108 602.201 52.598 611.162C51.6688 611.878 50.5565 612.849 49.2612 613.962C41.9751 620.238 29.7823 630.746 24.5095 621.171C20.2857 613.501 22.3976 599.44 24.7489 587.999C31.9998 552.512 52.9289 532.276 63.0168 522.535C67.0154 518.7 68.3037 517.422 68.726 515.837C69.8242 511.836 70.4578 503.552 71.1899 493.965C72.5134 476.643 74.3226 452.917 79.7784 449.619C85.0301 446.436 91.4714 450.898 97.7016 455.244C101.566 457.929 105.206 460.46 108.557 461.227C123.699 464.653 136.716 465.969 151.168 461.227C156.878 459.347 164.178 451.562 171.907 443.33C184.171 430.253 198.074 415.424 206.071 425.101C212.667 433.091 207.775 450.233 204.536 461.572C204.199 462.748 203.882 463.86 203.6 464.883C199.419 480.069 187.092 507.886 178.039 515.185L176.779 516.195C168.064 523.174 153.484 534.858 152.048 553.139C150.133 577.427 162.298 594.748 175.174 613.041C181.129 621.491 187.141 630.068 191.759 639.464H194.575C189.697 628.79 183.002 619.279 176.483 610.063C164.1 592.486 152.407 575.88 154.146 553.739C155.42 537.556 169.873 525.974 177.638 519.761L178.905 518.739C188.514 510.979 201.073 482.703 205.494 466.647L206.416 463.387C209.781 451.524 215.413 431.787 207.247 421.892Z" fill="#FFF1E4"/>
<path d="M160.489 627.128C157.539 619.624 154.921 611.315 152.386 603.275C150.809 598.276 149.176 593.048 147.458 588.19C144.431 579.395 143.08 569.271 141.777 559.466C140.327 548.652 138.835 537.466 135.09 527.943C129.901 514.737 122.995 508.768 116.322 502.887C112.274 499.346 108.078 495.678 104.206 490.411C102.953 488.698 101.573 485.374 100.116 481.859C96.4556 473.013 91.8939 462.006 85.4807 467.797C82.1579 470.814 80.1375 474.521 79.3068 479.136C77.8989 486.806 80.2853 495.141 82.3621 502.466C83.9812 508.154 85.5088 513.549 84.657 516.655C83.1576 522.101 78.6451 524.67 74.6606 526.882C72.8151 527.821 71.0123 529.018 69.2682 530.461C65.7061 533.695 34.5412 562.79 37.7231 587.705C37.8256 588.791 38.0829 589.81 38.4695 590.66C38.856 591.51 39.3584 592.161 39.9266 592.549C44.2349 595.438 53.2106 584.151 62.8127 571.316C64.5078 568.91 66.2726 566.669 68.0996 564.605C81.2357 552.691 100.412 545.571 111.471 558.124C132.105 581.543 136.997 598.136 144.403 623.242C145.882 628.253 147.458 633.597 149.268 639.362H151.703C149.648 632.893 147.895 626.962 146.262 621.465C138.969 596.73 133.703 578.858 112.591 554.89C107.937 549.623 102.355 547.591 96.5964 547.591C85.6355 547.591 74.0693 554.941 67.1562 561.205C65.2031 563.346 63.3224 565.698 61.5245 568.248C55.4773 576.34 44.2208 591.386 40.6235 588.97C40.3849 588.798 40.1768 588.51 40.0217 588.138C39.8666 587.766 39.7704 587.325 39.7436 586.861C37.4556 568.964 58.6523 544.382 70.1763 533.912C71.8233 532.573 73.5221 531.453 75.259 530.563C79.6377 528.07 84.6077 525.245 86.5225 518.342C87.8601 513.498 86.0931 507.272 84.2206 500.676C82.348 494.08 80.1868 486.486 81.2991 480.299C81.9397 476.72 83.6151 473.741 86.4029 471.21C90.8942 467.12 94.2099 473.984 98.4126 484.109C99.9614 487.854 101.426 491.395 102.918 493.428C106.952 498.925 111.239 502.67 115.385 506.288C122.115 512.168 128.472 517.716 133.351 530.116C136.871 539.064 138.236 549.38 139.687 560.323C141.031 570.422 142.425 580.853 145.635 590.172C147.304 595.017 148.923 600.155 150.486 605.128C153.048 613.246 155.695 621.644 158.708 629.301C160.185 632.861 161.811 636.207 163.572 639.311L163.615 639.387H166.557C166.071 638.454 165.572 637.534 165.086 636.626C163.425 633.673 161.889 630.498 160.489 627.128Z" fill="#FFF1E4"/>
<path d="M57.3077 635.322C54.3803 635.917 51.5186 637.304 48.8177 639.439H56.1531C56.5967 639.311 57.0402 639.196 57.4766 639.145C61.5894 638.594 65.7208 638.692 69.8243 639.439H82.2987C74.1402 635.68 65.7054 634.291 57.3077 635.322Z" fill="#FFF1E4"/>
<path d="M50.0356 433.883C47.8111 431.71 45.7132 429.652 43.8407 427.607C39.9052 423.147 36.1419 418.206 32.5771 412.816C23.8619 400.225 15.6184 388.323 0.130981 390.164V393.999C14.9144 392.184 22.4892 403.139 31.2536 415.82C34.8945 421.312 38.7352 426.351 42.7495 430.905C44.6713 432.988 46.7903 435.059 49.036 437.296C54.2876 442.41 59.7223 447.753 62.9887 453.684C63.6152 454.822 63.4885 459.437 63.4252 461.661C63.4252 462.492 63.3829 463.246 63.3829 463.847C63.3829 479.814 61.0528 493.824 49.6836 510.353C47.5717 513.421 45.0022 515.185 42.2849 517.039C39.3352 519.071 36.28 521.168 33.7879 525.118C15.1256 554.736 -4.71939 598.276 4.74904 639.439H7.05807C-2.76235 599.938 16.8222 557.14 35.217 527.968C37.4134 524.466 40.1448 522.586 43.0663 520.592C45.8188 518.7 48.6981 516.757 51.0353 513.306C59.7364 500.663 65.5301 487.42 65.5301 463.809C65.5301 463.259 65.5301 462.531 65.5723 461.815C65.6779 457.98 65.8046 453.275 64.5163 450.936C60.9965 444.608 55.428 439.163 50.0356 433.883Z" fill="#FFF1E4"/>
<path d="M0.130981 536.443V540.751C0.60057 541.262 1.03535 541.871 1.42629 542.567C1.94723 543.525 2.13026 545.686 1.8346 548.639C1.4787 552.033 0.907004 555.34 0.130981 558.495V567.302C1.94723 561.154 3.45373 554.455 3.91836 549.252C4.30554 544.919 3.96763 541.761 2.91871 539.857C2.11018 538.424 1.16578 537.267 0.130981 536.443Z" fill="#FFF1E4"/>
<path d="M23.4394 450.348C22.0315 446.027 20.5813 441.553 17.7373 438.46C13.5697 433.921 7.38182 431.352 0.137939 431.071V434.906C6.51593 435.187 12.5842 437.296 16.6602 441.732C19.0396 444.289 20.2927 448.124 21.6232 452.291C22.3639 454.698 23.1991 457.005 24.1223 459.194C29.4162 471.21 31.3028 480.926 29.7541 488.084C26.7833 501.507 12.3237 505.444 0.187218 508.371V512.206C12.9502 509.126 28.2898 505.035 31.7322 489.478C33.647 480.823 31.7322 470.124 25.8259 456.752C24.9472 454.724 24.1496 452.584 23.4394 450.348Z" fill="#FFF1E4"/>
<path d="M182.46 183.765C180.996 182.781 179.644 181.669 178.321 180.595C175.125 177.974 172.105 175.481 168.029 174.842C157.575 173.117 144.797 176.721 131.302 180.531C107.874 187.153 83.6433 193.979 66.1425 175.827C53.3443 162.545 47.0648 139.228 40.9896 116.691C35.0762 94.7677 29.5007 74.0587 18.4624 62.0169C13.3305 56.4178 6.87504 54.3469 0.15914 54.6793V58.5142C5.96692 58.2458 12.2816 59.7926 17.4135 65.315C27.9309 76.8199 33.3796 96.992 39.1452 118.391C45.3612 141.401 51.8167 165.293 65.1499 179.163C83.2983 197.993 109 190.668 131.682 184.276C145.058 180.441 157.729 176.926 167.895 178.613C171.619 179.227 174.484 181.566 177.511 184.033C178.856 185.133 180.249 186.271 181.77 187.306C196.37 197.251 204.515 206.826 209.014 219.341C213.998 233.211 214.871 251.644 211.83 279.128C210.239 293.535 207.099 304.9 203.776 316.929C201.497 324.804 199.473 332.914 197.715 341.217C196.622 347.035 195.698 352.953 194.948 358.947C193.273 371.296 191.541 384.054 186.994 393.462C173.738 420.985 153.963 436.657 129.81 438.805C109.24 440.62 86.1635 432.221 66.5086 415.795C59.2647 409.787 52.3658 401.669 45.7132 393.769C36.7376 383.159 27.5085 372.191 17.0263 365.876C12.0985 362.885 6.38226 361.939 0.130981 363.012V366.847C6.18515 365.774 11.6691 366.656 16.3787 369.506C26.5792 375.681 35.7239 386.508 44.5376 396.978C51.2746 404.929 58.2087 413.174 65.6005 419.361C83.9951 434.64 103.958 442.698 124.185 443.01C126.109 443.01 128.013 442.925 129.894 442.755C154.632 440.569 174.949 424.436 188.563 396.108C193.449 385.984 195.244 372.753 196.976 359.97C197.707 354.109 198.61 348.323 199.679 342.636C201.409 334.455 203.399 326.465 205.642 318.706C208.88 306.97 212.238 294.852 213.878 279.934C217.025 251.389 216.054 232.073 210.746 217.296C205.987 204.039 197.539 194.017 182.46 183.765Z" fill="#FFF1E4"/>
<path d="M150.577 209.92C141.475 205.791 132.344 208.411 123.509 210.942C120.869 211.697 118.145 212.476 115.484 213.064C113.252 213.55 111.007 214.061 108.754 214.573C90.6267 218.702 71.8869 222.971 54.1257 215.647C39.821 209.779 22.8271 187.728 19.1382 161.049C18.1668 153.993 18.2935 145.709 18.4343 136.761C18.7229 117.944 19.0538 96.6085 6.91728 88.3377C4.7384 86.934 2.44291 86.2206 0.130981 86.2285V90.0635C2.1945 90.058 4.24291 90.7024 6.18515 91.9682C16.9067 99.2802 16.6251 117.445 16.3294 136.71C16.1956 145.415 16.0619 154.402 17.1038 161.982C19.4128 178.741 26.0935 191.384 31.2959 199.054C37.9202 208.846 46.0793 216.247 53.6611 219.379C71.7813 226.858 90.7112 222.55 109.014 218.382C111.267 217.858 113.513 217.36 115.73 216.874C118.434 216.286 121.179 215.493 123.84 214.726C132.464 212.259 141.383 209.702 150.063 213.64C159.025 217.705 168.275 228.289 174.808 241.955C181.981 256.937 185.241 273.913 183.959 289.828C181.995 314.845 174.223 336.717 160.855 354.818C136.92 387.198 101.721 398.026 79.2646 391.992C69.1203 389.295 59.6519 380.602 50.4862 372.268C47.0437 369.11 43.4464 365.876 39.9266 362.949C34.4004 358.436 29.4726 350.165 24.2491 341.447C17.0263 329.213 9.53606 316.737 0.130981 314.487V318.399C8.81801 320.751 15.9211 332.639 22.8411 344.144C27.952 352.709 33.2459 361.568 39.0818 366.336C42.6017 369.187 46.1215 372.434 49.5358 375.578C58.8494 384.118 68.4727 392.951 78.983 395.776C101.869 401.925 137.779 390.893 162.15 357.886C175.786 339.414 184.058 316.059 186.085 290.352C187.416 273.35 183.973 255.262 176.406 239.424C169.598 225.26 159.933 214.215 150.577 209.92Z" fill="#FFF1E4"/>
<path d="M98.835 253.971C94.3648 250.724 89.6834 247.579 85.1709 244.55C76.1601 238.478 66.7972 232.201 58.5607 224.748C55.942 222.371 52.5066 222.614 49.1838 222.856C47.3075 223.119 45.4216 223.054 43.552 222.665C38.7087 221.195 32.7742 215.212 28.1421 210.175C19.976 201.227 10.064 179.777 8.30411 160.563C7.91692 156.383 7.71277 151.922 7.4875 147.205C6.84688 133.22 6.11475 117.586 0.130981 108.702V114.045C4.20698 122.213 4.8124 135.035 5.3967 147.55C5.62197 152.344 5.8402 156.869 6.23443 161.203C8.09995 181.502 18.4976 204.142 27.072 213.473C31.859 218.689 38.0188 224.889 43.2212 226.461C45.2373 226.898 47.2718 226.979 49.2965 226.704C52.3517 226.487 55.5125 226.257 57.6456 228.187C65.9524 235.729 75.3505 242.044 84.4388 248.155C88.9442 251.184 93.5904 254.316 98.0536 257.55C106.727 263.852 121.623 286.147 119.173 306.293C117.483 320.125 110.964 329.75 105.797 335.375C99.479 342.076 92.5344 346.605 85.3117 348.734C66.3819 354.026 36.5264 325.046 14.7314 303.903C10.2682 299.569 6.05843 295.491 2.48929 292.244C1.6938 291.516 0.905352 290.812 0.130981 290.122V294.405L1.53893 295.683C5.05879 298.904 9.28263 302.982 13.7247 307.29C33.9569 326.925 61.0387 353.208 80.5317 353.208C82.2353 353.219 83.9368 352.993 85.6215 352.53C98.124 349.04 117.913 334.071 121.207 307.124C123.974 284.561 108.36 260.887 98.835 253.971Z" fill="#FFF1E4"/>
<path d="M52.2672 243.156L50.8593 242.479L46.4806 240.357C34.0202 234.349 16.9559 226.129 8.46602 212.949C5.34038 207.989 2.34146 199.437 0.130981 190.591V199.169C2.15138 205.803 4.56601 211.824 7.17071 215.787C16.0056 229.529 33.3374 237.89 45.9948 243.987C47.5365 244.729 49.0008 245.432 50.3594 246.109L51.7674 246.787C59.2154 250.392 65.6497 253.511 63.9954 270.027C63.2914 276.712 61.0598 282.567 57.4414 286.965C51.9856 293.599 43.6647 296.475 37.2022 293.957C26.9735 290.058 17.0263 275.255 7.44526 260.925C4.98135 257.256 2.51745 253.626 0.130981 250.2V255.083C2.10211 257.934 4.09435 260.899 6.10771 263.891C15.9 278.502 26.0301 293.612 36.7164 297.767C38.5172 298.456 40.3532 298.794 42.1934 298.776C47.9874 298.816 53.6668 295.844 58.5607 290.212C62.6649 285.226 65.2414 278.502 66.0158 270.768C68.0362 250.826 59.6589 246.723 52.2672 243.156Z" fill="#FFF1E4"/>
</svg>
