<svg  viewBox="0 0 315 315" fill="none" xmlns="http://www.w3.org/2000/svg">
<path fill-rule="evenodd" clip-rule="evenodd" d="M182.999 295.171C186.464 291.816 198.009 279.421 201.742 276.523C201.856 276.4 202.01 276.322 202.177 276.303C202.343 276.283 202.511 276.323 202.651 276.416C202.791 276.508 202.893 276.647 202.94 276.808C202.987 276.969 202.975 277.141 202.907 277.294C201.049 280.649 184.842 295.879 183.897 296.777C183.251 297.58 180.479 300.919 179.723 301.612C179.747 302.24 179.582 302.86 179.251 303.393C178.92 303.926 178.437 304.348 177.865 304.605C175.836 305.294 173.848 306.098 171.911 307.015C171.628 307.267 171.297 307.015 171.376 306.747C172.346 305.53 173.161 304.197 173.801 302.778C173.939 301.839 174.416 300.983 175.141 300.371C175.866 299.759 176.79 299.433 177.739 299.455C177.849 299.25 182.023 295.816 182.999 295.171ZM177.691 299.707C176.841 299.756 176.035 300.109 175.423 300.701C174.81 301.294 174.43 302.087 174.352 302.935C173.997 304.004 173.465 305.005 172.777 305.896C176.762 304.243 178.117 304.479 178.983 303.14C179.257 302.695 179.429 302.195 179.487 301.675C178.384 301.376 177.613 299.518 177.691 299.707ZM182.684 295.753C181.456 296.872 180.18 298.069 178.306 299.691C178.581 300.238 178.993 300.705 179.503 301.045L183.613 296.651C183.251 296.418 182.94 296.112 182.7 295.753H182.684ZM175.675 277.2C177.471 276.019 201.836 259.985 202.072 260.773C202.309 261.56 178.164 279.83 177.959 279.956C176.935 281.122 170.084 288.508 169.186 288.823C168.044 288.782 166.961 288.302 166.162 287.485C165.067 286.365 164.257 284.998 163.8 283.5C163.501 282.429 174.699 277.609 175.675 277.2ZM164.572 284.209C164.882 285.207 165.443 286.109 166.201 286.829C166.959 287.549 167.89 288.062 168.903 288.319C167.769 287.248 165.375 284.965 164.572 284.209ZM169.297 280.57C167.567 281.395 165.908 282.359 164.335 283.453C164.54 284.13 164.335 283.453 165.91 284.76C167.189 285.763 168.309 286.952 169.234 288.288C170.021 287.705 173.218 284.524 173.029 284.697C171.849 283.251 170.587 281.873 169.249 280.57H169.297ZM175.738 277.42C173.14 278.633 171.407 279.484 169.438 280.444C171.001 281.442 172.268 282.84 173.108 284.492C174.053 283.547 177.266 280.287 177.739 279.767C177.282 279.326 176.085 277.956 175.691 277.452L175.738 277.42ZM213.901 259.418C214.704 252.362 215.885 243.589 216.846 243.542C217.807 243.495 216.767 252.362 215.775 259.465C218.925 259.733 222.673 261.466 222.075 264.458C222.103 264.991 222.034 265.525 221.87 266.033C223.445 276.727 222.043 278.932 222.154 278.759C221.236 279.864 220.088 280.755 218.791 281.37C217.493 281.984 216.077 282.308 214.641 282.319C213.199 282.326 211.772 282.027 210.455 281.44C209.138 280.854 207.961 279.993 207.002 278.917C205.695 276.948 206.53 268.632 206.782 266.317C206.642 265.829 206.563 265.327 206.545 264.82C206.355 263.992 206.463 263.123 206.849 262.366C207.234 261.609 207.874 261.011 208.656 260.678C210.267 259.814 212.073 259.38 213.901 259.418ZM221.571 273.247C220.327 275.798 216.846 276.601 214.042 276.601C214.004 277.357 213.92 278.109 213.79 278.854C213.664 279.452 213.523 279.972 212.908 279.956C212.022 279.777 211.241 279.256 210.735 278.507C210.325 277.893 210.42 277.578 210.94 276.223C210.257 276.045 209.622 275.721 209.078 275.272C208.534 274.823 208.094 274.261 207.79 273.625C207.796 275.032 207.939 276.435 208.215 277.814C208.547 278.441 209.022 278.98 209.601 279.389C213.16 282.287 217.476 281.468 221.083 278.365C221.24 277.2 221.461 274.916 221.571 273.247ZM207.112 266.947C207.002 268.852 206.577 276.901 207.648 278.476C208.472 279.434 209.515 280.179 210.688 280.649C209.458 280.049 208.458 279.065 207.837 277.846C207.566 276.159 207.476 274.448 207.569 272.743C207.47 272.265 207.488 271.77 207.622 271.301C207.757 270.832 208.003 270.402 208.341 270.049C209.459 268.758 209.727 269.498 208.703 268.789C208.033 268.337 207.487 267.726 207.112 267.01V266.947ZM211.349 276.239C211.158 276.75 211.016 277.277 210.924 277.814C210.924 278.35 212.341 279.547 212.971 279.484C213.192 279.484 213.255 279.153 213.334 278.759C213.473 278.047 213.568 277.326 213.617 276.601C212.852 276.586 212.092 276.486 211.349 276.302V276.239ZM221.681 266.569C221.14 267.567 220.312 268.379 219.303 268.9C221.114 269.467 222.311 270.679 221.823 272.522C221.823 273.514 221.823 274.491 221.728 275.373C221.571 278.665 221.461 278.523 221.618 278.287C222.358 275.483 221.98 269.593 221.681 266.632V266.569ZM219.035 269.041C217.562 269.754 215.947 270.126 214.31 270.128C214.312 271.069 214.19 272.007 213.948 272.916C214.012 273.965 214.012 275.017 213.948 276.066C215.92 276.133 217.871 275.636 219.571 274.633C222.075 273.058 222.469 270.207 219.035 269.104V269.041ZM212.53 272.979C212.436 273.199 211.648 275.389 211.507 275.782C212.213 275.954 212.937 276.044 213.664 276.05C213.664 275.278 213.822 273.798 213.806 273.026C213.386 273.118 212.952 273.124 212.53 273.042V272.979ZM209.585 269.325C206.561 271.404 207.837 274.711 211.16 275.719C211.544 274.774 211.954 273.839 212.389 272.916C212.432 271.976 212.537 271.039 212.704 270.112C211.627 270.03 210.572 269.764 209.585 269.325ZM212.845 270.128L212.704 272.68C212.971 272.68 213.838 272.806 213.743 272.68C213.649 272.554 213.948 271.199 214.058 270.16C213.649 270.191 213.239 270.175 212.845 270.144V270.128ZM221.413 265.954C218.61 269.467 210.136 269.514 207.238 265.954C207.545 266.744 208.049 267.441 208.703 267.979C209.356 268.517 210.138 268.877 210.971 269.026C214.562 270.002 219.964 269.215 221.413 265.97V265.954ZM215.539 261.103C215.066 264.364 214.657 267.01 214.515 267.876C216.893 267.876 220.075 267.01 221.177 265.088C220.831 262.631 218.027 261.355 215.539 261.119V261.103ZM213.712 261.103C212.411 261.167 211.152 261.58 210.066 262.298C208.98 263.015 208.107 264.012 207.538 265.183C208.546 266.758 211.081 267.624 213.034 267.813C213.113 266.947 213.365 264.332 213.712 261.119V261.103ZM213.869 259.717C212.152 259.78 210.479 260.273 209.002 261.151C207.601 262.048 206.656 263.434 207.427 264.931C207.965 263.69 208.841 262.626 209.955 261.86C211.069 261.093 212.377 260.657 213.727 260.599L213.869 259.717ZM215.775 259.875C215.775 260.143 215.696 260.41 215.649 260.678C218.248 260.914 220.972 262.253 221.398 264.773C221.965 263.34 221.02 262.048 219.697 261.214C218.501 260.49 217.163 260.034 215.775 259.875ZM230.863 266.269C230.123 262.6 224.138 235.258 226.138 233.667C226.849 233.275 227.621 233.009 228.422 232.879C230.627 232.407 244.692 230.517 245.338 232.423C245.983 234.328 242.188 263.356 241.904 264.915C241.904 265.97 241.51 268.915 241.51 268.915C241.102 269.77 240.496 270.514 239.743 271.089C238.991 271.664 238.113 272.051 237.181 272.22C236.249 272.389 235.291 272.335 234.384 272.062C233.478 271.788 232.649 271.304 231.966 270.648C231.44 269.233 231.07 267.765 230.863 266.269ZM244.534 235.919C238.503 236 232.486 236.526 226.532 237.494C227.02 244.109 229.887 259.544 231.131 266.128C232.771 267.024 234.64 267.414 236.501 267.249C238.363 267.084 240.133 266.37 241.589 265.198C241.762 263.86 244.408 237.683 244.534 235.919ZM243.117 245.054C243.117 245.054 243.211 243.983 241.888 244.251C240.565 244.519 238.156 246.787 235.195 246.535C232.234 246.283 229.414 244.629 228.532 245.731C227.65 246.834 231.383 250.315 236.218 249.496C241.762 248.566 243.227 246.283 243.117 245.054ZM227.524 233.872C227.288 233.872 226.642 234.124 226.579 234.328C226.445 235.327 226.445 236.338 226.579 237.337L228.154 237.037C227.798 236.017 227.586 234.951 227.524 233.872ZM230.249 233.289C229.446 233.431 228.501 233.604 227.729 233.809C227.963 234.848 228.137 235.9 228.249 236.959C228.847 236.848 230.517 236.565 231.005 236.518C230.958 236.407 230.58 235.1 230.249 233.289ZM233.257 232.895C232.265 233.005 231.32 233.131 230.454 233.257C230.84 234.311 231.073 235.414 231.147 236.533L233.793 236.203C233.698 235.683 233.368 234.045 233.257 232.895ZM236.203 232.612C235.667 232.612 234.533 232.738 233.462 232.864C233.794 233.94 233.958 235.061 233.95 236.187L236.785 235.919C236.738 235.651 236.407 234.234 236.25 232.612H236.203ZM239.353 232.407L236.407 232.596C236.747 233.666 236.928 234.781 236.943 235.903C237.856 235.903 238.864 235.777 239.762 235.746C239.762 235.714 239.4 232.612 239.4 232.407H239.353ZM243.164 232.407C243.107 233.51 242.986 234.609 242.802 235.699H244.55C244.55 235.305 244.818 232.659 244.55 232.549C244.094 232.459 243.629 232.416 243.164 232.423V232.407ZM242.959 232.407H239.573C239.878 233.492 239.995 234.621 239.92 235.746H242.66C242.613 234.625 242.713 233.502 242.959 232.407ZM124.425 254.095C126.488 254.095 128.173 254.851 128.173 255.811C128.173 256.772 126.488 257.528 124.425 257.528C122.362 257.528 120.692 256.756 120.692 255.811C120.692 254.866 122.299 254.095 124.425 254.095ZM84.609 245.023C84.609 245.369 83.9632 245.684 83.1442 245.716C82.3252 245.747 81.5692 245.479 81.5692 245.117C81.6007 244.282 84.5775 244.125 84.609 245.023Z" fill="#100259"/>
<path d="M97.6973 283.689C97.6973 283.977 97.8898 284.254 98.2324 284.457C98.575 284.661 99.0397 284.776 99.5243 284.776C100.009 284.776 100.474 284.661 100.816 284.457C101.159 284.254 101.351 283.977 101.351 283.689C101.351 283.401 101.159 283.124 100.816 282.92C100.474 282.717 100.009 282.602 99.5243 282.602C99.0397 282.602 98.575 282.717 98.2324 282.92C97.8898 283.124 97.6973 283.401 97.6973 283.689Z" fill="#100259"/>
<path fill-rule="evenodd" clip-rule="evenodd" d="M178.18 231.525C179.755 231.525 181.109 231.982 181.109 232.533C181.109 233.084 179.802 233.557 178.18 233.557C176.557 233.557 175.266 233.1 175.266 232.533C175.266 231.966 176.573 231.525 178.18 231.525ZM77.8995 191.315C77.8995 191.709 77.6632 194.686 77.7892 199.033C77.7892 199.615 77.8995 201.6 77.8995 201.6C77.8995 201.6 78.0885 201.71 78.0885 201.6C78.0885 201.49 78.183 199.615 78.1987 199.033C78.2932 195.41 78.0885 191.158 78.0885 191.315C78.0885 191.29 78.0785 191.266 78.0608 191.248C78.0431 191.231 78.019 191.221 77.994 191.221C77.9689 191.221 77.9449 191.231 77.9271 191.248C77.9094 191.266 77.8995 191.29 77.8995 191.315ZM143.498 19.215C145.467 19.7505 148.948 20.8687 150.208 22.491C150.253 22.5505 150.278 22.6231 150.278 22.6979C150.279 22.7727 150.255 22.8456 150.211 22.9059C150.167 22.9662 150.104 23.0105 150.033 23.0322C149.961 23.0539 149.884 23.0519 149.814 23.0265C143.514 20.4592 133.481 23.7352 127.118 26.3812C124.598 27.4365 139.718 10.3792 150.586 13.0567C150.66 13.0794 150.725 13.1252 150.771 13.1876C150.817 13.25 150.842 13.3256 150.842 13.4032C150.842 13.4808 150.817 13.5564 150.771 13.6188C150.725 13.6812 150.66 13.7271 150.586 13.7497C148.116 14.329 145.689 15.0816 143.325 16.002C145.136 16.0807 149.31 16.3485 150.712 17.577C150.767 17.625 150.808 17.6882 150.828 17.7588C150.848 17.8295 150.847 17.9045 150.826 17.9746C150.804 18.0448 150.762 18.1071 150.706 18.154C150.649 18.2008 150.58 18.2302 150.507 18.2385C148.155 18.4428 145.816 18.7687 143.498 19.215ZM148.727 13.4977C145.633 13.4864 142.591 14.2904 139.907 15.8287C135.104 18.3768 130.829 21.8134 127.307 25.956C133.339 23.3415 141.923 20.3805 148.365 21.861C146.333 20.8231 144.172 20.0604 141.939 19.593C141.858 19.5757 141.785 19.5311 141.733 19.4666C141.68 19.4021 141.652 19.3216 141.652 19.2386C141.652 19.1556 141.68 19.0751 141.733 19.0105C141.785 18.946 141.858 18.9014 141.939 18.8842C144.339 18.2376 146.789 17.7951 149.263 17.5612C146.847 16.9916 144.373 16.7062 141.892 16.7107C141.811 16.713 141.732 16.6882 141.666 16.6403C141.601 16.5923 141.554 16.5239 141.532 16.446C141.511 16.3681 141.516 16.2851 141.547 16.2104C141.577 16.1356 141.632 16.0733 141.703 16.0335C143.942 14.9278 146.298 14.0772 148.727 13.4977ZM42.3675 145.246C40.8011 145.452 39.2222 145.547 37.6425 145.53C37.5622 145.533 37.4834 145.508 37.4194 145.46C37.3554 145.411 37.3102 145.342 37.2916 145.264C37.2731 145.186 37.2822 145.104 37.3174 145.032C37.3527 144.959 37.4119 144.902 37.485 144.868C39.438 143.813 44.037 142.774 46.3995 141.136L52.2427 137.23C52.2545 137.216 52.2691 137.206 52.2854 137.198C52.3017 137.191 52.3193 137.187 52.3372 137.187C52.3551 137.187 52.3728 137.191 52.3891 137.198C52.4054 137.206 52.4199 137.216 52.4317 137.23C52.605 137.434 52.2427 137.45 50.274 140.049C48.9671 141.658 47.9056 143.452 47.124 145.372C46.2793 147.381 45.5381 149.431 44.9032 151.515C44.9032 151.987 43.7692 152.334 44.0842 149.751C44.2146 148.787 44.3933 147.83 44.6197 146.884C42.9857 148.064 41.2639 149.117 39.4695 150.034C39.4048 150.072 39.3303 150.088 39.2561 150.081C39.1818 150.074 39.1115 150.045 39.0547 149.997C38.9978 149.948 38.9572 149.884 38.9385 149.812C38.9197 149.739 38.9236 149.663 38.9497 149.593C39.7553 147.911 40.9223 146.426 42.3675 145.246ZM51.282 138.269C43.5645 143.703 47.0137 141.734 39.312 144.805C40.7858 144.802 42.2509 144.579 43.659 144.144L43.8322 144.002C44.1787 143.734 44.793 144.27 44.1157 144.711C42.6018 145.901 41.2653 147.301 40.1467 148.869C41.891 147.976 43.5244 146.882 45.0135 145.609C45.0689 145.544 45.1452 145.501 45.229 145.488C45.3129 145.474 45.3989 145.49 45.4721 145.533C45.5453 145.576 45.601 145.644 45.6294 145.724C45.6579 145.804 45.6573 145.891 45.6277 145.971C45.302 147.159 45.0391 148.362 44.8402 149.578C46.0852 145.361 48.2901 141.491 51.282 138.269ZM52.353 130.914C55.0239 126.586 58.8395 123.081 63.378 120.787C69.489 117.904 71.7255 120.976 68.9535 126.488C66.593 130.892 63.2189 134.671 59.1097 137.513C59.5723 139.129 59.7587 140.812 59.661 142.49C59.2515 144.065 51.5497 146.711 50.4945 146.585C50.4145 146.581 50.3371 146.556 50.2705 146.512C50.2039 146.467 50.1507 146.406 50.1165 146.333C49.959 145.971 50.3212 145.64 50.6677 145.372C52.5905 143.968 54.6059 142.694 56.7 141.561L56.5897 138.946L55.692 139.387C55.6335 139.404 55.5717 139.403 55.5133 139.387C55.455 139.37 55.4024 139.338 55.3612 139.293L50.4 134.458C50.3767 134.432 50.3639 134.398 50.3639 134.363C50.3639 134.328 50.3767 134.295 50.4 134.269C50.4 134.269 50.5575 133.938 50.8882 133.355H48.132C47.7225 134.206 44.982 139.75 44.1 140.128C44.0366 140.158 43.9668 140.173 43.8965 140.172C43.8261 140.17 43.7572 140.151 43.6955 140.117C43.6339 140.083 43.5812 140.035 43.542 139.977C43.5027 139.918 43.478 139.851 43.47 139.781C43.281 138.6 45.612 130.898 47.1555 130.441C48.8693 130.284 50.5973 130.401 52.2742 130.788C52.299 130.798 52.32 130.815 52.3341 130.838C52.3483 130.861 52.3549 130.887 52.353 130.914ZM58.7632 137.623C58.138 138.04 57.4914 138.424 56.826 138.773L57.1567 141.75C57.1567 141.986 57.1567 141.844 54.0067 143.923C53.046 144.538 52.0695 145.183 51.408 145.672C53.7978 145.013 56.1025 144.078 58.275 142.884C58.4482 142.774 58.905 142.459 58.968 142.254C59.1344 140.709 59.0654 139.148 58.7632 137.623ZM51.8175 132.473C51.2032 133.387 50.8252 134.048 50.6835 134.316L55.566 138.836C56.133 138.553 56.7472 138.206 57.393 137.812C55.3587 136.226 53.4906 134.437 51.8175 132.473ZM52.2112 131.134C50.5866 130.904 48.9376 130.904 47.313 131.134C46.7617 131.323 45.8167 133.828 45.6435 134.284C45.0873 135.767 44.6399 137.288 44.3047 138.836C45.2497 137.434 47.8327 132.851 47.7225 133.072C47.7438 133.028 47.7776 132.991 47.8195 132.966C47.8615 132.941 47.9098 132.928 47.9587 132.93L51.03 133.087C51.345 132.489 51.723 131.875 52.2112 131.134ZM60.8895 122.96C57.3194 125.383 54.2852 128.514 51.975 132.158C54.0664 133.764 55.978 135.591 57.6765 137.608C61.2705 135.239 64.3549 132.176 66.7485 128.599L60.8895 122.96ZM58.0702 126.913C57.7622 127.23 57.5199 127.604 57.3574 128.015C57.1949 128.426 57.1155 128.865 57.1236 129.306C57.1317 129.748 57.2273 130.183 57.4048 130.588C57.5823 130.992 57.8382 131.357 58.1577 131.662C58.4772 131.967 58.854 132.206 59.2662 132.364C59.6785 132.523 60.1181 132.598 60.5596 132.585C61.001 132.573 61.4357 132.473 61.8383 132.292C62.241 132.11 62.6037 131.851 62.9055 131.528C63.5072 130.885 63.8309 130.031 63.806 129.15C63.7811 128.27 63.4098 127.435 62.7727 126.827C62.1356 126.219 61.2842 125.887 60.4036 125.903C59.5231 125.919 58.6845 126.282 58.0702 126.913ZM62.4645 127.165C62.9715 127.686 63.2552 128.384 63.2552 129.111C63.2552 129.837 62.9715 130.535 62.4645 131.056C61.9674 131.517 61.313 131.771 60.635 131.766C59.957 131.761 59.3064 131.498 58.816 131.029C58.3257 130.561 58.0325 129.923 57.9963 129.246C57.9602 128.569 58.1838 127.904 58.6215 127.386C59.1088 126.859 59.7817 126.541 60.4985 126.5C61.2153 126.459 61.9201 126.697 62.4645 127.165ZM61.5982 128.063C61.8127 128.286 61.957 128.566 62.0131 128.87C62.0692 129.174 62.0346 129.488 61.9137 129.772C61.7928 130.057 61.591 130.299 61.3332 130.47C61.0755 130.64 60.7733 130.731 60.4642 130.731C60.1552 130.731 59.853 130.64 59.5952 130.47C59.3375 130.299 59.1356 130.057 59.0147 129.772C58.8938 129.488 58.8593 129.174 58.9154 128.87C58.9715 128.566 59.1158 128.286 59.3302 128.063C59.4771 127.911 59.6533 127.79 59.8481 127.707C60.043 127.624 60.2525 127.581 60.4642 127.581C60.6759 127.581 60.8855 127.624 61.0803 127.707C61.2752 127.79 61.4513 127.911 61.5982 128.063Z" fill="#100259"/>
<path fill-rule="evenodd" clip-rule="evenodd" d="M111.463 21.0891C111.319 20.967 111.206 20.8124 111.133 20.6382C111.06 20.464 111.029 20.275 111.044 20.0867C111.058 19.8983 111.116 19.7161 111.214 19.5547C111.312 19.3933 111.447 19.2575 111.608 19.1582C111.769 19.0589 111.951 18.9991 112.139 18.9836C112.327 18.968 112.516 18.9972 112.691 19.0688C112.866 19.1404 113.021 19.2523 113.144 19.3954C113.267 19.5385 113.355 19.7087 113.4 19.8921C113.411 20.0904 113.376 20.2885 113.296 20.4703C113.216 20.6522 113.094 20.8126 112.941 20.9385C112.787 21.0644 112.606 21.1523 112.412 21.1949C112.218 21.2375 112.017 21.2336 111.825 21.1836C111.825 21.3411 111.589 23.0894 111.116 25.1369C113.305 25.1452 115.417 25.9389 117.07 27.3734C117.094 27.3295 117.133 27.2959 117.18 27.2789C129.465 25.5464 130.741 29.6099 126.787 32.8701C122.346 36.5399 108.706 40.7451 101.178 39.7529C99.2092 39.5166 96.1537 38.6031 96.1222 36.7446C96.1222 34.3506 102.532 31.6889 102.784 31.5629C103.811 28.9627 105.795 26.8547 108.328 25.6724C107.21 24.4596 106.045 22.6956 105.777 22.3964C104.438 23.1209 103.178 21.4041 104.202 20.5221C104.428 20.3244 104.721 20.2227 105.021 20.2386C105.271 20.1881 105.53 20.2231 105.758 20.3381C105.985 20.4531 106.167 20.6412 106.274 20.8723C106.382 21.1034 106.408 21.3639 106.349 21.6118C106.29 21.8598 106.15 22.0807 105.95 22.2389C106.48 22.6206 106.952 23.0768 107.352 23.5934C109.62 26.3339 107.698 25.3889 110.502 25.1684C110.585 23.7635 110.91 22.3835 111.463 21.0891ZM102.517 32.0039C101.099 32.6969 96.5317 35.1539 96.5947 36.7289C96.5947 37.2486 97.0514 37.7684 97.8862 38.2251C103.745 41.3751 121.18 36.4296 126.236 32.3189C129.118 30.0036 128.819 27.7829 123.338 27.3891C121.236 27.2939 119.13 27.3571 117.038 27.5781C116.644 28.4916 112.849 35.6736 102.517 32.0039ZM100.942 35.7524C100.873 35.8981 100.836 36.0566 100.833 36.2176C100.829 36.3787 100.86 36.5386 100.922 36.6871C100.984 36.8356 101.077 36.9693 101.195 37.0796C101.312 37.1899 101.451 37.2743 101.603 37.3274C101.754 37.365 101.911 37.3725 102.065 37.3492C102.219 37.326 102.367 37.2726 102.5 37.1922C102.633 37.1117 102.749 37.0056 102.841 36.8802C102.933 36.7547 103 36.6123 103.036 36.4611C103.13 36.1834 103.11 35.8796 102.98 35.6167C102.85 35.3539 102.621 35.1534 102.343 35.0594C102.066 34.9654 101.762 34.9856 101.499 35.1156C101.236 35.2455 101.036 35.4746 100.942 35.7524ZM102.233 35.3114C102.926 35.6264 102.454 36.8864 101.792 36.6974C101.131 36.5084 101.477 35.1696 102.233 35.3114ZM113.101 34.4136C112.989 34.3307 112.861 34.2737 112.724 34.247C112.588 34.2203 112.448 34.2244 112.313 34.2592C112.179 34.2939 112.054 34.3584 111.947 34.4478C111.841 34.5372 111.756 34.6493 111.699 34.7759C111.578 35.0582 111.566 35.3753 111.665 35.666C111.764 35.9568 111.967 36.2007 112.234 36.3509C112.362 36.4301 112.506 36.4797 112.656 36.4959C112.806 36.5122 112.957 36.4948 113.099 36.445C113.241 36.3951 113.37 36.3141 113.477 36.2079C113.583 36.1017 113.665 35.9729 113.715 35.8311C113.803 35.5606 113.79 35.2671 113.676 35.006C113.563 34.7449 113.358 34.5342 113.101 34.4136ZM112.975 34.6341C113.605 35.1066 113.195 36.2091 112.534 35.8311C111.872 35.4531 112.219 34.3191 112.975 34.6499V34.6341ZM121.401 30.1296C121.309 30.044 121.2 29.98 121.08 29.9425C120.96 29.905 120.834 29.895 120.71 29.9132C120.586 29.9313 120.467 29.9772 120.363 30.0474C120.259 30.1176 120.173 30.2103 120.109 30.3186C119.988 30.5708 119.962 30.8587 120.037 31.1284C120.113 31.3981 120.284 31.631 120.519 31.7834C120.624 31.8689 120.747 31.9301 120.878 31.9624C121.01 31.9947 121.147 31.9974 121.279 31.9703C121.412 31.9432 121.537 31.8869 121.645 31.8055C121.753 31.7242 121.842 31.6198 121.905 31.4999C121.963 31.377 121.996 31.2438 122.002 31.1081C122.008 30.9723 121.987 30.8367 121.94 30.7091C121.893 30.5816 121.821 30.4647 121.729 30.3652C121.636 30.2657 121.525 30.1856 121.401 30.1296ZM121.275 30.3344C121.747 30.7754 121.417 31.6574 120.865 31.2794C120.314 30.9014 120.629 30.0194 121.275 30.3344ZM105.021 20.4749C105.225 20.4824 105.418 20.5657 105.564 20.7084C105.71 20.8511 105.797 21.0431 105.808 21.2466C105.8 21.4291 105.722 21.6014 105.59 21.7276C105.458 21.8537 105.282 21.9241 105.1 21.9239C104.908 21.9343 104.719 21.868 104.576 21.7395C104.433 21.6111 104.346 21.4309 104.336 21.2388C104.325 21.0466 104.392 20.8582 104.52 20.7149C104.649 20.5717 104.829 20.4853 105.021 20.4749ZM111.998 19.1361C112.202 19.1437 112.396 19.2269 112.541 19.3697C112.687 19.5124 112.774 19.7043 112.786 19.9079C112.778 20.0904 112.699 20.2626 112.567 20.3888C112.435 20.515 112.26 20.5853 112.077 20.5851C111.975 20.6049 111.871 20.6026 111.77 20.5785C111.669 20.5544 111.575 20.509 111.493 20.4454C111.412 20.3818 111.345 20.3014 111.297 20.2097C111.249 20.118 111.221 20.017 111.215 19.9137C111.21 19.8104 111.226 19.707 111.264 19.6106C111.301 19.5141 111.359 19.4269 111.433 19.3547C111.508 19.2825 111.596 19.2271 111.694 19.1921C111.791 19.1571 111.895 19.1434 111.998 19.1519V19.1361ZM189.724 97.3349C190.463 95.9654 191.675 94.9115 193.134 94.3699C194.593 93.8282 196.199 93.8357 197.653 94.3909C199.107 94.9462 200.309 96.0113 201.035 97.3876C201.761 98.764 201.962 100.357 201.6 101.871C203.917 102.998 206.13 104.326 208.215 105.84C209.128 106.659 209.002 107.415 207.38 107.305C204.563 107.053 201.778 106.526 199.064 105.73C198.196 106.364 197.182 106.769 196.116 106.909C195.05 107.049 193.966 106.918 192.964 106.529C191.961 106.14 191.073 105.505 190.38 104.683C189.688 103.861 189.213 102.877 189 101.824C187.425 101.068 181.96 98.2484 181.629 96.6576C181.519 96.0749 182.086 95.8072 182.684 95.7441C185.104 95.8714 187.485 96.4094 189.724 97.3349ZM201.474 102.202C201.167 103.272 200.586 104.243 199.789 105.021C202.465 105.792 205.207 106.32 207.979 106.596C207.081 105.43 202.765 102.942 201.474 102.202ZM189.567 102.06C189.822 102.946 190.279 103.761 190.901 104.443C191.522 105.124 192.293 105.653 193.152 105.988C194.011 106.323 194.936 106.456 195.855 106.375C196.774 106.295 197.662 106.004 198.45 105.525C195.407 104.592 192.438 103.433 189.567 102.06ZM199.3 104.879C200.407 103.893 201.112 102.534 201.281 101.061C201.449 99.5879 201.07 98.1046 200.214 96.8939C199.765 96.2327 199.186 95.67 198.513 95.2402C197.839 94.8104 197.085 94.5226 196.296 94.3943C195.507 94.266 194.701 94.3 193.925 94.4942C193.15 94.6884 192.423 95.0387 191.788 95.5236C190.932 96.1533 190.257 96.9972 189.832 97.9705C189.406 98.9437 189.244 100.012 189.362 101.068C192.567 102.604 195.89 103.878 199.3 104.879ZM189.567 97.6499C188.401 97.2719 183.267 95.7914 182.338 96.5159C182.7 97.6499 187.819 100.312 189 100.8C188.91 99.7184 189.106 98.6323 189.567 97.6499ZM75.3794 194.717C77.281 195.967 79.2829 197.058 81.3644 197.977C81.3847 197.984 81.4064 197.983 81.4262 197.975C81.446 197.968 81.4627 197.954 81.4736 197.936C81.4845 197.918 81.489 197.896 81.4863 197.875C81.4837 197.854 81.474 197.835 81.459 197.82C79.5552 196.573 77.5536 195.483 75.4739 194.56C75.4537 194.553 75.432 194.554 75.4122 194.562C75.3924 194.569 75.3757 194.583 75.3648 194.601C75.3539 194.619 75.3494 194.641 75.352 194.662C75.3547 194.683 75.3644 194.702 75.3794 194.717ZM41.2334 56.4321C41.2334 52.6206 41.4539 49.0296 41.4539 49.1871C41.4643 49.1556 41.4843 49.1282 41.5112 49.1087C41.5381 49.0893 41.5704 49.0788 41.6036 49.0788C41.6367 49.0788 41.6691 49.0893 41.6959 49.1087C41.7228 49.1282 41.7428 49.1556 41.7532 49.1871C41.7532 50.3369 41.9579 51.3606 41.9737 56.6841C43.1376 55.9266 44.3416 55.2326 45.5804 54.6051C45.597 54.5934 45.6157 54.5852 45.6356 54.581C45.6554 54.5768 45.6759 54.5766 45.6958 54.5806C45.7157 54.5846 45.7345 54.5926 45.7512 54.6041C45.7679 54.6157 45.782 54.6305 45.7928 54.6477C45.8035 54.6649 45.8106 54.6841 45.8137 54.7041C45.8167 54.7242 45.8157 54.7446 45.8105 54.7642C45.8054 54.7838 45.7963 54.8022 45.7838 54.8182C45.7714 54.8342 45.7557 54.8474 45.7379 54.8571C44.7297 55.6842 43.6782 56.457 42.5879 57.1724C44.8559 58.4166 45.3127 58.7474 46.3994 59.4089C47.4862 60.0704 47.5019 60.0704 47.4232 60.2279C47.3444 60.3854 47.2657 60.3224 46.1789 59.8184C45.0922 59.3144 44.3519 58.9994 41.9737 57.6921C41.9737 63.7244 41.7374 66.4806 41.7374 66.3231C41.7271 66.3547 41.707 66.3821 41.6802 66.4015C41.6533 66.421 41.621 66.4315 41.5878 66.4315C41.5547 66.4315 41.5223 66.421 41.4955 66.4015C41.4686 66.3821 41.4486 66.3547 41.4382 66.3231C41.4382 65.1891 41.2177 64.1969 41.2177 58.0544C39.9887 58.8685 38.7164 59.6151 37.4062 60.2909C37.3897 60.3026 37.3709 60.3108 37.3511 60.3151C37.3312 60.3193 37.3108 60.3194 37.2909 60.3154C37.271 60.3114 37.2521 60.3034 37.2355 60.2919C37.2188 60.2804 37.2046 60.2656 37.1939 60.2484C37.1831 60.2312 37.176 60.212 37.173 60.1919C37.1699 60.1719 37.171 60.1514 37.1761 60.1318C37.1812 60.1122 37.1903 60.0938 37.2028 60.0779C37.2153 60.0619 37.2309 60.0486 37.2487 60.0389C38.4888 59.0234 39.7878 58.082 41.1389 57.2196C39.8632 56.5109 39.4537 56.2589 38.4457 55.6446C37.4377 55.0304 37.1069 54.8414 37.1857 54.6681C37.2154 54.6464 37.2513 54.6347 37.2881 54.6347C37.3249 54.6347 37.3607 54.6464 37.3904 54.6681C39.3749 55.4084 40.5562 56.0856 41.2334 56.4321Z" fill="#100259"/>
<path fill-rule="evenodd" clip-rule="evenodd" d="M75.474 197.977C77.2384 197.052 78.9103 195.961 80.4667 194.717C80.577 194.717 80.4667 194.497 80.3722 194.56C78.6091 195.487 76.9374 196.578 75.3795 197.82C75.285 197.883 75.3795 198.04 75.474 197.977ZM124.299 103.005C124.299 107.431 124.456 108.139 124.456 108.943C124.45 108.959 124.447 108.978 124.449 108.995C124.451 109.013 124.457 109.031 124.468 109.045C124.478 109.06 124.491 109.073 124.507 109.081C124.523 109.089 124.541 109.094 124.559 109.094C124.577 109.094 124.595 109.089 124.611 109.081C124.626 109.073 124.64 109.06 124.65 109.045C124.66 109.031 124.667 109.013 124.668 108.995C124.67 108.978 124.668 108.959 124.661 108.943C124.661 109.1 124.834 106.549 124.834 102.737C126.055 103.428 127.312 104.053 128.599 104.611C128.725 104.611 128.835 104.485 128.709 104.422C127.6 103.682 126.454 102.998 125.275 102.375C126.056 101.893 126.808 101.367 127.528 100.8C127.549 100.784 127.564 100.76 127.569 100.734C127.574 100.707 127.57 100.68 127.556 100.657C127.543 100.634 127.521 100.616 127.495 100.608C127.47 100.599 127.442 100.6 127.417 100.611C127.417 100.611 126.126 101.272 124.834 102.107C124.834 98.1855 124.677 97.3822 124.677 96.7207C124.677 96.6915 124.665 96.6634 124.645 96.6428C124.624 96.6221 124.596 96.6105 124.567 96.6105C124.537 96.6105 124.509 96.6221 124.489 96.6428C124.468 96.6634 124.456 96.6915 124.456 96.7207C124.456 96.5632 124.315 99.2565 124.299 101.934C123.842 101.698 122.929 101.209 121.543 100.611C121.417 100.611 121.306 100.737 121.432 100.8C121.558 100.863 122.598 101.603 124.236 102.501C123.266 103.088 122.33 103.73 121.432 104.422C121.306 104.422 121.432 104.69 121.543 104.611C121.385 104.69 122.566 104.107 124.299 103.005ZM163.894 214.294C162.178 213.586 144.065 212.467 143.908 212.452C143.419 212.452 139.891 213.16 139.655 213.223C139.419 213.286 139.655 213.223 139.655 213.302C141.032 213.931 142.453 214.458 143.908 214.877C145.483 215.208 148.633 215.239 163.564 216.846C163.847 216.846 164.446 215.869 164.099 214.452C164.083 214.405 163.973 214.342 163.894 214.294ZM143.829 214.72L141.451 213.885C141.543 213.76 141.602 213.614 141.624 213.46C141.646 213.306 141.63 213.149 141.577 213.003C142.347 212.848 143.125 212.737 143.908 212.672C144.286 213.05 143.278 213.192 144.034 213.68C144.128 213.68 144.144 213.68 144.034 213.79C143.994 213.81 143.958 213.838 143.929 213.872C143.9 213.906 143.878 213.946 143.865 213.989C143.852 214.031 143.848 214.076 143.852 214.121C143.857 214.165 143.87 214.208 143.892 214.247C144.018 214.468 144.16 214.562 143.829 214.72ZM144.018 214.72C144.459 214.483 143.86 214.121 144.16 213.932C144.821 213.475 141.671 213.601 162.477 215.507C162.433 215.831 162.506 216.161 162.682 216.436L144.018 214.72ZM162.493 215.381C161.784 215.302 144.349 213.649 144.238 213.554C144.128 213.46 143.845 213.381 143.986 213.192C144.128 213.003 144.207 212.83 143.986 212.641C144.144 212.641 159.595 213.869 162.886 214.42C162.657 214.703 162.519 215.049 162.493 215.413V215.381ZM163.501 216.468C163.39 216.358 163.375 216.389 163.264 216.074C163.154 215.759 163.264 214.688 163.768 214.688C163.846 214.993 163.862 215.31 163.816 215.621C163.77 215.932 163.663 216.23 163.501 216.499V216.468ZM174.447 169.99C174.429 169.932 174.399 169.878 174.359 169.834C174.318 169.789 174.268 169.753 174.212 169.73C174.156 169.707 174.096 169.696 174.035 169.699C173.975 169.702 173.916 169.718 173.862 169.747C173.809 169.775 173.762 169.815 173.726 169.864C173.69 169.913 173.665 169.969 173.653 170.028C173.642 170.087 173.643 170.149 173.658 170.207C173.672 170.266 173.7 170.321 173.738 170.368C173.896 170.62 174.053 170.872 174.226 171.124C174.25 171.178 174.286 171.227 174.33 171.266C174.375 171.305 174.427 171.334 174.484 171.351C174.541 171.368 174.601 171.373 174.66 171.364C174.719 171.356 174.775 171.334 174.825 171.302C174.875 171.27 174.917 171.227 174.948 171.176C174.98 171.126 175 171.07 175.008 171.011C175.015 170.952 175.01 170.892 174.992 170.835C174.974 170.779 174.944 170.727 174.904 170.683C174.825 170.462 174.589 170.226 174.447 169.99ZM154.822 136.537C154.917 135.796 155.783 132.032 155.452 131.953C155.434 131.946 155.414 131.943 155.394 131.944C155.374 131.944 155.355 131.95 155.337 131.958C155.319 131.967 155.303 131.98 155.291 131.995C155.278 132.011 155.269 132.029 155.263 132.048C154.817 133.148 154.474 134.286 154.24 135.45C154.15 135.86 154.092 136.276 154.066 136.694C154.069 136.758 154.087 136.821 154.12 136.876C154.153 136.931 154.2 136.977 154.255 137.009C154.65 137.211 155.076 137.344 155.515 137.403C155.862 137.403 157.09 137.497 156.949 137.167C156.807 136.836 156.618 137.434 154.822 136.537ZM161.894 134.253V133.434C161.894 132.867 161.107 132.788 161.091 133.434V134.332C161.087 134.391 161.095 134.451 161.116 134.507C161.138 134.563 161.171 134.613 161.213 134.655C161.256 134.696 161.307 134.728 161.364 134.748C161.42 134.768 161.48 134.775 161.539 134.769C161.599 134.763 161.656 134.745 161.707 134.714C161.759 134.684 161.803 134.643 161.837 134.594C161.871 134.544 161.893 134.488 161.903 134.43C161.913 134.371 161.91 134.311 161.894 134.253ZM162.934 138.6C162.43 140.49 161.752 140.773 160.933 140.868C160.766 140.881 160.597 140.881 160.429 140.868C160.393 140.858 160.353 140.862 160.319 140.88C160.285 140.898 160.26 140.929 160.248 140.965C160.236 141.001 160.238 141.041 160.254 141.076C160.27 141.11 160.299 141.137 160.335 141.151C161.705 141.939 163.579 140.978 163.233 138.6C163.223 138.568 163.203 138.541 163.176 138.522C163.149 138.502 163.117 138.492 163.083 138.492C163.05 138.492 163.018 138.502 162.991 138.522C162.964 138.541 162.944 138.568 162.934 138.6ZM168.856 158.287C168.846 158.236 168.827 158.186 168.799 158.142C168.77 158.098 168.733 158.06 168.69 158.03C168.647 158 168.599 157.979 168.547 157.967C168.496 157.956 168.443 157.955 168.391 157.965C168.339 157.974 168.29 157.993 168.246 158.022C168.202 158.05 168.163 158.087 168.133 158.13C168.103 158.173 168.082 158.222 168.071 158.273C168.06 158.324 168.059 158.378 168.068 158.429C168.136 158.723 168.22 159.012 168.32 159.295C168.325 159.356 168.343 159.415 168.373 159.467C168.403 159.52 168.445 159.565 168.495 159.6C168.545 159.634 168.602 159.658 168.661 159.668C168.721 159.677 168.783 159.674 168.841 159.657C168.899 159.641 168.953 159.611 168.999 159.571C169.044 159.531 169.081 159.481 169.105 159.426C169.129 159.37 169.14 159.31 169.138 159.249C169.136 159.188 169.12 159.129 169.092 159.075C168.997 158.807 168.919 158.539 168.856 158.287ZM153.358 131.906C153.37 131.847 153.368 131.786 153.353 131.727C153.339 131.668 153.311 131.613 153.273 131.567C153.234 131.52 153.186 131.482 153.131 131.456C153.076 131.43 153.017 131.417 152.956 131.417C152.896 131.417 152.836 131.43 152.781 131.456C152.726 131.482 152.678 131.52 152.64 131.567C152.601 131.613 152.574 131.668 152.559 131.727C152.544 131.786 152.543 131.847 152.554 131.906V132.804C152.543 132.863 152.544 132.925 152.559 132.983C152.574 133.042 152.601 133.097 152.64 133.144C152.678 133.19 152.726 133.228 152.781 133.254C152.836 133.28 152.896 133.293 152.956 133.293C153.017 133.293 153.076 133.28 153.131 133.254C153.186 133.228 153.234 133.19 153.273 133.144C153.311 133.097 153.339 133.042 153.353 132.983C153.368 132.925 153.37 132.863 153.358 132.804C153.339 132.505 153.339 132.205 153.358 131.906Z" fill="#100259"/>
<path fill-rule="evenodd" clip-rule="evenodd" d="M285.721 196.875C283.972 196.024 279.814 196.733 277.846 197.143C277.122 196.335 276.21 195.719 275.19 195.351C274.17 194.982 273.075 194.873 272.002 195.032C270.238 195.473 269.813 197.647 269.892 199.474C268.758 199.269 267.529 199.127 266.395 199.017C266.49 198.67 266.789 198.182 266.695 197.836C266.644 197.712 266.566 197.601 266.468 197.51C266.37 197.419 266.254 197.35 266.127 197.308C265.999 197.266 265.865 197.252 265.732 197.267C265.599 197.282 265.471 197.326 265.356 197.395C265.042 197.645 264.752 197.925 264.49 198.229C264.49 197.678 264.946 196.796 264.395 196.654C263.844 196.513 262.127 198.056 261.639 198.607C258.022 198.209 254.373 198.209 250.756 198.607C246.02 198.947 241.557 200.95 238.156 204.262C257.308 182.212 265.718 167.06 265.498 148.176C265.277 129.292 242.833 120.283 233.604 120.046C224.642 119.826 215.397 124.771 214.924 124.771C206.829 126.346 185.598 124 181.141 125.858C181.195 123.863 180.838 121.877 180.09 120.026C179.342 118.175 178.22 116.498 176.794 115.101C174.242 112.313 170.163 111.274 166.021 111.447C160.114 111.715 154.255 114.187 151.326 119.322C150.355 120.985 149.783 122.85 149.656 124.771C149.656 125.26 148.648 133.292 151.231 139.372C151.814 140.911 152.746 142.294 153.954 143.412C155.162 144.53 156.613 145.352 158.193 145.813C155.647 149.189 153.311 152.718 151.2 156.382C150.712 157.405 151.074 157.957 151.783 157.957C152.491 157.957 153.436 157.768 154.098 157.799C153.058 160.65 150.412 168.084 149.767 171.029C146.529 173.21 143.613 175.834 141.104 178.825C136.379 184.243 134.174 190.118 128.819 193.252L127.244 194.134C129.386 187.63 133.434 174.715 131.969 174.699C130.504 174.683 126.945 187.11 124.677 195.536C122.251 196.875 121.023 197.725 120.172 200.371C119.895 201.041 119.752 201.758 119.752 202.482C119.752 203.206 119.895 203.923 120.172 204.592C120.273 204.807 120.428 204.992 120.621 205.13C120.814 205.268 121.039 205.354 121.275 205.38C121.464 205.38 121.464 205.207 120.944 206.356C120.697 206.428 120.462 206.539 120.251 206.687L112.675 202.072C112.502 202.072 114.676 201.773 68.5755 207.774C67.7092 207.128 66.7957 206.451 65.8507 205.711C43.2022 188.086 117.164 169.171 123.086 145.089C128.394 123.527 97.8862 119.18 104.659 98.9257C111.431 78.6712 155.72 84.3412 197.41 81.9157C239.101 79.4902 255.685 37.4062 225.335 15.4822C194.985 -6.4418 163.8 24.696 156.429 32.6497C149.058 40.6035 140.553 51.0142 116.676 49.9747C92.799 48.9352 61.551 52.983 50.1007 87.6015C44.5882 104.17 49.5337 115.794 56.889 125.008C59.3524 122.501 62.3992 120.645 65.7562 119.605C67.7092 119.133 69.6465 119.385 70.1977 121.322C71.2372 124.882 66.9217 130.41 64.4175 133.166C70.7175 139.246 76.7655 144.38 79.1437 149.688C83.1127 158.602 64.0867 165.202 56.0542 170.415C48.0217 175.628 35.7525 191.756 43.281 207.412C43.8465 208.611 44.4775 209.778 45.171 210.908C29.2005 212.971 28.6492 212.971 28.4917 213.066C28.3342 213.16 28.3815 213.444 28.4917 213.601H28.3815C29.799 215.176 71.5207 274.806 97.1302 305.109L97.587 305.203C103.131 302.542 203.742 253.701 198.387 250.693C198.387 250.693 124.834 209.632 123.086 208.593C123.36 208.124 123.597 207.634 123.795 207.128C123.882 207.122 123.964 207.085 124.027 207.025C124.09 206.964 124.131 206.884 124.141 206.797V205.947C125.118 206.278 126.646 205.333 127.433 204.624C129.008 203.175 131.371 199.143 133.119 198.607C136.605 197.739 140.044 196.688 143.419 195.457C157.453 190.197 163.28 184.306 169.391 174.793C170.401 173.307 171.261 171.724 171.958 170.068C175.524 173.92 179.86 176.979 184.684 179.046C171.958 193.741 173.959 203.065 178.558 208.152C182.763 212.798 189.583 211.16 190.701 210.814C190.701 217.807 193.063 233.336 193.851 234.895C194.26 235.793 192.89 236.47 192.607 238.25C192.458 239.155 192.575 240.083 192.944 240.922C193.313 241.761 193.918 242.474 194.686 242.975C196.434 244.078 199.411 244.141 198.245 242.392C197.856 241.893 197.419 241.434 196.938 241.022C197.395 241.164 197.899 241.353 198.513 241.573C204.262 243.826 205.018 244.849 206.073 244.55C206.215 244.517 206.347 244.454 206.462 244.364C206.576 244.274 206.669 244.16 206.734 244.03C206.86 244.117 207.003 244.177 207.153 244.205C207.303 244.233 207.458 244.229 207.606 244.194C207.755 244.158 207.895 244.091 208.016 243.998C208.137 243.905 208.237 243.787 208.309 243.652C208.363 243.55 208.391 243.437 208.391 243.322C208.391 243.206 208.363 243.093 208.309 242.991C208.509 242.655 208.577 242.256 208.498 241.873C208.498 240.455 203.08 235.825 201.978 234.911C202.135 233.336 202.97 229.84 205.049 220.547C215.791 232.659 251.905 215.822 253.874 214.972C254.205 215.318 267.545 209.632 269.089 208.813C268.931 208.813 286.004 201.096 286.65 198.261C286.65 197.599 286.225 197.174 285.721 196.875ZM224.8 54.2745C225.06 54.2827 225.307 54.393 225.487 54.5816C225.666 54.7702 225.765 55.0219 225.76 55.2825C225.765 55.412 225.743 55.5411 225.697 55.6622C225.651 55.7833 225.581 55.894 225.491 55.9878C225.402 56.0816 225.295 56.1567 225.176 56.2087C225.057 56.2606 224.929 56.2884 224.8 56.2905C224.669 56.2884 224.541 56.2607 224.421 56.2089C224.302 56.1572 224.193 56.0823 224.103 55.9887C224.012 55.8951 223.941 55.7846 223.893 55.6634C223.845 55.5422 223.821 55.4128 223.823 55.2825C223.821 55.1521 223.845 55.0227 223.893 54.9015C223.941 54.7803 224.012 54.6698 224.103 54.5762C224.193 54.4826 224.302 54.4077 224.421 54.356C224.541 54.3042 224.669 54.2765 224.8 54.2745ZM215.901 26.775C216.028 26.7749 216.155 26.8003 216.272 26.8496C216.39 26.8988 216.497 26.971 216.586 27.0619C216.675 27.1528 216.746 27.2606 216.793 27.379C216.841 27.4973 216.864 27.624 216.862 27.7515C216.879 27.8869 216.868 28.0244 216.828 28.155C216.788 28.2856 216.72 28.4062 216.63 28.5087C216.54 28.6112 216.429 28.6933 216.305 28.7496C216.18 28.8059 216.045 28.835 215.909 28.835C215.772 28.835 215.637 28.8059 215.513 28.7496C215.389 28.6933 215.278 28.6112 215.187 28.5087C215.097 28.4062 215.03 28.2856 214.99 28.155C214.95 28.0244 214.939 27.8869 214.956 27.7515C214.954 27.6253 214.977 27.4999 215.023 27.3826C215.069 27.2652 215.138 27.1581 215.226 27.0674C215.314 26.9768 215.419 26.9043 215.535 26.8541C215.65 26.8039 215.775 26.777 215.901 26.775ZM186.291 70.2292C186.178 70.2087 186.077 70.1495 186.003 70.0617C185.93 69.9739 185.89 69.8632 185.89 69.7488C185.89 69.6345 185.93 69.5238 186.003 69.436C186.077 69.3482 186.178 69.2889 186.291 69.2685C186.423 69.2685 186.549 69.3207 186.642 69.4138C186.735 69.5068 186.787 69.633 186.787 69.7646C186.787 69.8962 186.735 70.0224 186.642 70.1154C186.549 70.2084 186.423 70.2607 186.291 70.2607V70.2292ZM182.007 26.964C182.007 26.334 183.582 26.019 184.275 25.9245C185.42 25.7732 186.579 25.7732 187.724 25.9245C188.434 24.6217 189.307 23.4149 190.323 22.3335C190.654 22.0657 190.953 21.9712 191.252 22.3335C191.964 23.7718 192.422 25.3224 192.607 26.9167C195.048 27.5467 198.45 28.7122 196.402 30.177C195.772 30.6337 194.654 31.1062 193.441 31.752C193.577 33.0229 193.619 34.3021 193.567 35.5792C193.567 36.162 193.41 37.044 192.827 37.1542C191.646 37.3589 190.732 35.721 188.874 34.1145C187.094 34.9965 183.535 36.9495 183.456 35.0752C183.649 33.4766 184.123 31.9249 184.858 30.492C183.046 28.7752 181.897 27.9405 182.007 26.9955V26.964ZM180.432 55.9282C180.428 57.0276 180.141 58.1074 179.599 59.0635C179.056 60.0197 178.276 60.8197 177.334 61.3865C176.392 61.9533 175.32 62.2676 174.221 62.2992C173.122 62.3308 172.034 62.0785 171.061 61.5667L180.227 54.2902C180.368 54.8357 180.442 55.3963 180.448 55.9597L180.432 55.9282ZM180.038 53.7075C177.518 55.6447 174.132 58.4325 170.746 61.3777C170.491 61.2241 170.248 61.0503 170.021 60.858C173.313 57.5347 176.542 53.7862 178.542 51.408C179.201 52.073 179.715 52.8664 180.054 53.739L180.038 53.7075ZM178.195 51.0772C177.565 51.7545 172.084 57.9285 169.722 60.5272C169.049 59.9097 168.513 59.1587 168.147 58.3222C170.541 56.5897 173.801 54.18 177.424 51.3292L177.991 50.8725L178.195 51.0772ZM174.053 49.5022C175.317 49.5009 176.551 49.8795 177.597 50.589L175.376 52.164C174.872 52.542 171.045 55.5502 168.021 57.9127C167.7 56.9528 167.611 55.9305 167.761 54.9296C167.912 53.9286 168.297 52.9775 168.885 52.154C169.474 51.3305 170.249 50.658 171.147 50.1916C172.045 49.7252 173.041 49.4782 174.053 49.4707V49.5022ZM158.87 46.9192C159.061 46.9129 159.25 46.9639 159.412 47.0656C159.574 47.1673 159.702 47.315 159.78 47.4899C159.858 47.6648 159.881 47.8589 159.848 48.0473C159.814 48.2357 159.725 48.4098 159.592 48.5474C159.459 48.6849 159.288 48.7796 159.101 48.8193C158.914 48.859 158.719 48.8419 158.542 48.7702C158.364 48.6985 158.212 48.5755 158.105 48.4168C157.998 48.2582 157.941 48.0713 157.941 47.88C157.957 47.6404 158.064 47.4159 158.239 47.2521C158.415 47.0883 158.646 46.9974 158.886 46.998L158.87 46.9192ZM150.192 70.7647C150.56 70.7771 150.916 70.8974 151.216 71.1107C151.515 71.3241 151.746 71.6209 151.878 71.9643C152.01 72.3077 152.038 72.6824 151.959 73.0417C151.88 73.401 151.697 73.7291 151.432 73.9849C151.168 74.2408 150.834 74.4131 150.472 74.4805C150.11 74.5478 149.737 74.5072 149.398 74.3637C149.059 74.2202 148.77 73.9801 148.567 73.6734C148.363 73.3667 148.255 73.0069 148.255 72.639C148.267 72.1348 148.477 71.6558 148.84 71.3052C149.202 70.9545 149.688 70.7604 150.192 70.7647ZM125.685 66.3232C126.362 66.3232 126.362 67.536 125.685 67.536C125.008 67.536 124.992 66.3232 125.685 66.3232ZM61.6297 101.146C61.555 101.16 61.4783 101.156 61.405 101.137C61.3317 101.117 61.2636 101.081 61.2055 101.033C61.1473 100.984 61.1006 100.923 61.0685 100.854C61.0365 100.785 61.0198 100.71 61.0198 100.635C61.0198 100.559 61.0365 100.484 61.0685 100.415C61.1006 100.346 61.1473 100.285 61.2055 100.236C61.2636 100.188 61.3317 100.152 61.405 100.133C61.4783 100.113 61.555 100.11 61.6297 100.123C61.7045 100.11 61.7812 100.113 61.8545 100.133C61.9278 100.152 61.9959 100.188 62.054 100.236C62.1121 100.285 62.1589 100.346 62.1909 100.415C62.223 100.484 62.2396 100.559 62.2396 100.635C62.2396 100.71 62.223 100.785 62.1909 100.854C62.1589 100.923 62.1121 100.984 62.054 101.033C61.9959 101.081 61.9278 101.117 61.8545 101.137C61.7812 101.156 61.7045 101.16 61.6297 101.146ZM95.4922 162.981C95.2806 162.957 95.0805 162.871 94.9163 162.736C94.752 162.6 94.6305 162.42 94.5666 162.217C94.5026 162.013 94.4989 161.796 94.5559 161.591C94.6129 161.385 94.7282 161.201 94.8878 161.06C95.0473 160.919 95.2444 160.827 95.4551 160.795C95.6658 160.764 95.8811 160.794 96.075 160.882C96.2689 160.97 96.4331 161.113 96.5477 161.293C96.6623 161.472 96.7224 161.681 96.7207 161.894C96.7004 162.201 96.56 162.487 96.33 162.69C96.0999 162.894 95.7989 162.998 95.4922 162.981ZM99.225 57.645C99.4406 57.6418 99.6522 57.7029 99.833 57.8204C100.014 57.9379 100.155 58.1065 100.24 58.3048C100.325 58.5031 100.349 58.7221 100.308 58.9339C100.268 59.1457 100.166 59.3408 100.015 59.4944C99.8634 59.648 99.6698 59.753 99.4586 59.7963C99.2474 59.8395 99.0281 59.8189 98.8286 59.7371C98.6291 59.6554 98.4584 59.5161 98.3383 59.3371C98.2181 59.158 98.154 58.9473 98.154 58.7317C98.1539 58.4462 98.2663 58.1721 98.4667 57.9688C98.6671 57.7654 98.9395 57.6491 99.225 57.645ZM100.138 114.203C100.137 114.357 100.091 114.507 100.007 114.636C99.9228 114.765 99.8033 114.866 99.6628 114.929C99.5223 114.992 99.3668 115.013 99.2147 114.99C99.0626 114.967 98.9204 114.9 98.8048 114.799C98.6893 114.697 98.6054 114.565 98.563 114.417C98.5207 114.269 98.5217 114.112 98.566 113.965C98.6102 113.817 98.6958 113.686 98.8127 113.586C98.9295 113.486 99.0726 113.421 99.225 113.4C99.3356 113.391 99.4469 113.406 99.5517 113.442C99.6566 113.478 99.7527 113.536 99.8341 113.612C99.9155 113.687 99.9804 113.779 100.025 113.881C100.069 113.982 100.092 114.092 100.091 114.203H100.138ZM100.501 137.466C101.446 136.726 104.233 134.426 105.068 135.151C105.903 135.875 105.178 137.403 105.068 139.576C106.816 140.411 110.439 142.002 109.021 143.01C107.633 143.688 106.144 144.135 104.611 144.333C104.344 146.617 104.359 147.782 103.588 148.176C103.052 148.428 101.871 147.467 101.43 147.058C100.583 146.335 99.8405 145.497 99.225 144.569C97.7864 144.743 96.3323 144.743 94.8937 144.569C94.5157 144.475 94.2322 144.301 94.311 143.923C94.4842 143.057 96.4372 141.214 97.083 140.6C96.6735 139.702 95.7127 137.45 96.0435 136.552C96.516 135.308 98.5477 136.678 100.453 137.466H100.501ZM95.382 86.7195C95.7127 86.7195 95.886 86.9557 95.8387 87.3652C95.5091 88.534 95.0103 89.6483 94.3582 90.6727C95.0336 91.3799 95.611 92.1745 96.075 93.0352C97.65 96.075 95.4607 95.3032 92.2162 94.6102C91.4512 95.7476 90.4787 96.7308 89.3497 97.5082C87.885 98.2327 87.5542 95.1457 87.3022 93.3975C85.0815 92.8147 83.3175 92.8934 82.8607 91.9957C82.404 91.0979 85.806 89.7277 86.7825 89.2867C86.6722 87.7117 85.995 85.6012 87.3495 85.6642C88.7222 86.079 89.9825 86.8007 91.035 87.7747C92.419 87.1951 93.8862 86.8389 95.382 86.7195ZM75.3165 130.725C75.1408 130.753 74.9611 130.743 74.7898 130.695C74.6184 130.648 74.4595 130.563 74.324 130.448C74.1886 130.332 74.0798 130.189 74.0051 130.027C73.9305 129.866 73.8919 129.69 73.8919 129.512C73.8919 129.334 73.9305 129.158 74.0051 128.997C74.0798 128.835 74.1886 128.692 74.324 128.577C74.4595 128.461 74.6184 128.377 74.7898 128.329C74.9611 128.281 75.1408 128.271 75.3165 128.299C75.4921 128.271 75.6718 128.281 75.8432 128.329C76.0145 128.377 76.1734 128.461 76.3089 128.577C76.4444 128.692 76.5532 128.835 76.6278 128.997C76.7024 129.158 76.7411 129.334 76.7411 129.512C76.7411 129.69 76.7024 129.866 76.6278 130.027C76.5532 130.189 76.4444 130.332 76.3089 130.448C76.1734 130.563 76.0145 130.648 75.8432 130.695C75.6718 130.743 75.4921 130.753 75.3165 130.725ZM66.4335 83.1442C66.3754 83.1298 66.3239 83.0964 66.287 83.0493C66.2502 83.0022 66.2302 82.9441 66.2302 82.8843C66.2302 82.8245 66.2502 82.7665 66.287 82.7194C66.3239 82.6723 66.3754 82.6388 66.4335 82.6245C69.8827 82.3882 73.8045 82.278 77.2537 82.278C74.3791 80.2617 71.3016 78.5515 68.0715 77.175C68.0031 77.1539 67.9451 77.1078 67.9093 77.0458C67.8735 76.9838 67.8625 76.9106 67.8784 76.8408C67.8944 76.771 67.9361 76.7098 67.9953 76.6696C68.0545 76.6293 68.1267 76.6129 68.1975 76.6237C71.7776 76.6619 75.2994 77.5356 78.4822 79.1752C76.3887 77.089 74.1747 75.1274 71.8515 73.3005C71.8017 73.2601 71.768 73.2033 71.7566 73.1403C71.7451 73.0773 71.7566 73.0122 71.789 72.957C71.8214 72.9017 71.8725 72.8599 71.9331 72.8391C71.9937 72.8183 72.0597 72.82 72.1192 72.8437C76.0893 74.1239 79.8162 76.0619 83.1442 78.5767C86.4295 80.984 89.2792 83.935 91.5705 87.3022C91.5705 87.444 91.4287 87.5542 91.3342 87.4125C89.0445 84.0671 86.2001 81.1374 82.9237 78.75C80.0051 76.6094 76.7897 74.9062 73.3792 73.6942C74.529 74.6235 79.191 78.4192 79.8052 79.821C79.9312 80.073 79.6162 80.3092 79.3485 80.1517C77.6664 79.2148 75.8795 78.48 74.025 77.9625C72.5797 77.5301 71.0893 77.2659 69.5835 77.175C71.3947 78.0412 77.0175 80.7975 78.1672 82.4355C78.1966 82.4793 78.2132 82.5305 78.2151 82.5832C78.217 82.636 78.2042 82.6883 78.178 82.7341C78.1518 82.7799 78.1133 82.8176 78.0669 82.8427C78.0205 82.8679 77.9679 82.8795 77.9152 82.8765C77.742 82.8765 73.395 82.8765 68.7802 83.034C74.2297 84.0735 81.3802 86.0737 85.932 89.334C86.058 89.4285 85.932 89.6175 85.7745 89.523C80.829 86.0737 72.2767 83.9317 66.4335 83.1442ZM155.61 115.668C160.981 111.62 171.628 110.549 176.29 115.668C177.663 117.007 178.742 118.617 179.458 120.396C180.173 122.175 180.511 124.083 180.448 126C180.081 129.473 178.587 132.731 176.195 135.277C175.912 135.56 175.912 135.277 176.006 135.135C176.277 134.746 176.457 134.3 176.531 133.832C176.606 133.364 176.574 132.885 176.438 132.43C176.302 131.976 176.065 131.558 175.744 131.209C175.424 130.859 175.029 130.586 174.589 130.41C171.612 129.055 170.714 134.048 168.541 134.662C166.651 135.214 167.359 130.804 167.501 127.858C167.699 126.564 167.401 125.242 166.666 124.157C165.358 122.753 163.74 121.675 161.941 121.007C158.787 119.737 155.363 119.287 151.987 119.7C152.909 118.124 154.141 116.752 155.61 115.668ZM151.877 139.151C149.278 133.009 150.412 124.85 150.412 124.85C150.539 123.194 151.017 121.583 151.814 120.125C155.218 119.779 158.653 120.322 161.784 121.7C163.487 122.338 165.022 123.356 166.273 124.677C167.848 126.756 166.273 130.725 166.777 133.828C166.966 135.04 167.533 135.812 168.714 135.403C171.155 134.71 171.974 130.079 174.321 131.15C176.668 132.221 176.242 135.292 173.47 136.458C172.399 136.915 172.494 137.938 173.313 138.033C173.738 138.033 174.573 137.797 175.849 136.773C177.717 134.947 179.186 132.754 180.164 130.331C182.354 130.794 184.473 131.546 186.464 132.568C189.268 133.843 192.575 135.623 195.19 137.151C191.205 138.101 187.573 140.165 184.717 143.101C181.862 146.038 179.9 149.726 179.062 153.736C178.463 153.736 178.51 152.885 178.101 152.57C177.691 152.255 177.439 152.57 176.951 152.728C176.961 152.34 176.874 151.956 176.699 151.609C176.699 150.696 175.203 151.231 174.337 151.515C174.347 151.124 174.288 150.735 174.163 150.365C174.526 149.2 172.415 149.782 171.234 150.113C171.323 149.666 171.323 149.206 171.234 148.759C171.344 147.845 169.344 148.428 168.509 148.759C168.581 148.233 168.549 147.697 168.415 147.184C167.974 146.569 165.643 147.861 165.548 147.278C165.556 146.846 165.641 146.42 165.8 146.018C166.068 145.057 164.761 145.656 164.383 145.593C164.368 145.601 164.352 145.606 164.335 145.606C164.319 145.606 164.303 145.601 164.288 145.593V145.404C165.605 145.043 166.871 144.514 168.052 143.829C168.653 144.714 169.554 145.352 170.588 145.624C171.528 145.904 172.528 145.907 173.469 145.632C174.41 145.357 175.251 144.815 175.892 144.073C176.532 143.331 176.945 142.42 177.08 141.449C177.215 140.478 177.066 139.489 176.652 138.6C176.652 138.427 176.305 138.6 176.384 138.71C176.588 139.314 176.668 139.952 176.619 140.587C176.57 141.222 176.393 141.841 176.099 142.406C175.804 142.971 175.399 143.47 174.907 143.875C174.414 144.279 173.846 144.579 173.234 144.758L169.423 142.411C169.281 142.317 169.297 142.411 168.462 142.947C167.938 141.913 167.798 140.727 168.066 139.599C168.334 138.472 168.993 137.476 169.927 136.789C171.027 136.051 172.336 135.686 173.659 135.749C173.691 135.739 173.718 135.719 173.738 135.692C173.757 135.665 173.768 135.633 173.768 135.6C173.768 135.566 173.757 135.534 173.738 135.507C173.718 135.48 173.691 135.46 173.659 135.45C172.241 135.278 170.806 135.583 169.58 136.316C168.467 137.056 167.668 138.182 167.339 139.478C167.011 140.773 167.175 142.144 167.8 143.325C165.008 144.913 161.806 145.632 158.602 145.388C157.067 144.957 155.656 144.166 154.487 143.082C153.317 141.997 152.423 140.65 151.877 139.151ZM176.4 153.137C176.814 153.049 177.216 152.911 177.597 152.728C178.29 152.476 178.101 153.862 178.983 153.877C178.825 154.618 178.731 155.2 178.684 155.563C177.943 155.295 177.25 154.996 176.557 154.712C176.588 154.182 176.535 153.651 176.4 153.137ZM176.4 152.791C176.4 152.791 176.4 152.712 176.557 152.176C176.596 152.375 176.677 152.563 176.794 152.728L176.4 152.775V152.791ZM176.242 153.09C176.162 153.612 176.162 154.143 176.242 154.665C175.14 154.208 174.116 153.736 173.092 153.263C173.092 152.966 173.033 152.672 172.919 152.397C173.644 152.397 176.069 151.231 176.179 151.578C176.29 151.924 175.723 152.775 176.242 153.09ZM172.762 152.287C172.759 152.533 172.796 152.777 172.872 153.011C172.462 152.822 170.777 151.972 170.352 151.751C170.344 151.415 170.291 151.081 170.194 150.759C171.139 150.629 172.071 150.423 172.982 150.145C173.092 150.145 173.801 150.05 173.738 150.145C173.675 150.601 172.069 151.924 172.762 152.287ZM170.005 151.562C169.202 151.137 168.43 150.727 167.832 150.349C167.843 150.015 167.784 149.683 167.659 149.373C167.913 149.416 168.174 149.372 168.399 149.247C169.123 148.918 169.904 148.73 170.698 148.696C170.365 149.08 170.08 149.503 169.848 149.956C169.786 150.496 169.839 151.044 170.005 151.562ZM167.47 150.145L165.721 149.089C165.757 148.623 165.709 148.153 165.58 147.703C166.084 147.814 167.391 147.294 167.989 147.341C167.705 147.727 167.447 148.132 167.218 148.554C167.218 149.094 167.303 149.631 167.47 150.145ZM168.147 147.861C168.108 148.175 168.108 148.492 168.147 148.806C168.037 148.806 167.674 148.979 167.643 148.806C167.611 148.633 167.958 148.05 168.147 147.861ZM170.919 149.215C170.909 149.524 170.947 149.832 171.029 150.129C170.787 150.218 170.531 150.266 170.273 150.271C170.273 150.271 170.21 150.05 170.919 149.215ZM173.943 150.79C173.964 151.05 174.022 151.304 174.116 151.546C173.802 151.666 173.482 151.766 173.155 151.846C173.344 151.562 173.596 151.2 173.943 150.775V150.79ZM165.265 147.514C165.257 147.987 165.315 148.459 165.438 148.916C165.17 148.752 164.907 148.579 164.65 148.396L164.288 145.75C164.682 145.75 165.501 145.514 165.501 145.75C165.501 145.987 164.839 147.026 165.265 147.499V147.514ZM168.635 143.262C168.856 143.12 169.092 142.947 169.312 142.774L172.777 144.9C172.009 145.055 171.212 144.989 170.479 144.71C169.746 144.432 169.107 143.951 168.635 143.325V143.262ZM151.767 157.248C151.389 157.138 153.562 153.767 153.814 153.373C154.586 152.129 158.319 146.365 158.634 145.892C159.936 145.969 161.242 145.889 162.524 145.656C162.776 154.98 164.461 158.854 166.509 162.493C165.454 162.162 164.383 162.65 163.453 162.319C162.146 161.878 162.193 159.988 160.303 159.878C159.069 160.024 157.881 160.438 156.823 161.091C156.397 161.264 156.303 161.091 156.193 160.902C156.037 159.837 155.805 158.784 155.5 157.752C154.775 156.508 152.507 157.5 151.767 157.248ZM112.502 202.482L119.936 206.971C119.503 207.38 119.034 207.749 118.534 208.073C117.322 208.719 116.062 208.231 116.046 209.191C109.258 211.79 99.036 223.776 111.778 234.722C128.063 248.692 146.601 254.268 129.355 267.592C124.63 271.294 119.763 270.742 114.14 267.104C107.966 263.056 108.029 245.227 102.107 234.218C92.2635 215.901 88.2 222.075 69.174 208.309L112.502 202.482ZM134.379 268.632C134.337 268.632 134.297 268.615 134.268 268.586C134.238 268.556 134.221 268.516 134.221 268.474C134.221 268.433 134.238 268.393 134.268 268.363C134.297 268.334 134.337 268.317 134.379 268.317C134.41 268.327 134.438 268.347 134.457 268.374C134.477 268.401 134.487 268.433 134.487 268.467C134.487 268.5 134.477 268.532 134.457 268.559C134.438 268.586 134.41 268.606 134.379 268.616V268.632ZM126.315 273.357C126.249 273.369 126.181 273.367 126.116 273.35C126.051 273.333 125.991 273.302 125.939 273.26C125.887 273.217 125.846 273.163 125.817 273.102C125.789 273.042 125.774 272.975 125.774 272.908C125.774 272.841 125.789 272.775 125.817 272.714C125.846 272.653 125.887 272.599 125.939 272.556C125.991 272.514 126.051 272.483 126.116 272.466C126.181 272.449 126.249 272.447 126.315 272.459C126.442 272.459 126.565 272.51 126.655 272.6C126.745 272.69 126.795 272.812 126.795 272.94C126.795 273.067 126.745 273.189 126.655 273.279C126.565 273.369 126.442 273.42 126.315 273.42V273.357ZM106.029 272.254C106.19 271.787 106.43 271.35 106.738 270.963C106.029 269.986 105.604 269.498 106.832 269.561C107.192 269.588 107.547 269.662 107.887 269.782C109.147 268.396 109.368 268.49 109.321 270.38C109.636 270.538 110.376 270.916 110.518 271.231C110.659 271.546 109.856 271.735 109.289 271.908C109.289 272.286 109.147 273.483 108.785 273.483C108.423 273.483 108.218 272.9 107.746 272.302C107.1 272.475 105.95 272.884 106.029 272.317V272.254ZM105.824 252.189C105.758 252.201 105.69 252.199 105.625 252.182C105.56 252.165 105.5 252.134 105.448 252.092C105.396 252.049 105.355 251.995 105.326 251.934C105.298 251.874 105.283 251.807 105.283 251.74C105.283 251.673 105.298 251.607 105.326 251.546C105.355 251.485 105.396 251.431 105.448 251.388C105.5 251.346 105.56 251.315 105.625 251.298C105.69 251.281 105.758 251.279 105.824 251.291C105.952 251.291 106.074 251.342 106.164 251.432C106.254 251.522 106.305 251.644 106.305 251.772C106.305 251.899 106.254 252.021 106.164 252.111C106.074 252.201 105.952 252.252 105.824 252.252V252.189ZM86.7982 229.351C86.7322 229.364 86.6643 229.362 86.5993 229.345C86.5343 229.328 86.4739 229.297 86.4222 229.254C86.3705 229.211 86.3289 229.158 86.3004 229.097C86.2718 229.036 86.257 228.97 86.257 228.903C86.257 228.835 86.2718 228.769 86.3004 228.708C86.3289 228.648 86.3705 228.594 86.4222 228.551C86.4739 228.508 86.5343 228.477 86.5993 228.46C86.6643 228.444 86.7322 228.441 86.7982 228.454C86.8642 228.441 86.9321 228.444 86.9971 228.46C87.0621 228.477 87.1226 228.508 87.1743 228.551C87.2259 228.594 87.2675 228.648 87.2961 228.708C87.3246 228.769 87.3394 228.835 87.3394 228.903C87.3394 228.97 87.3246 229.036 87.2961 229.097C87.2675 229.158 87.2259 229.211 87.1743 229.254C87.1226 229.297 87.0621 229.328 86.9971 229.345C86.9321 229.362 86.8642 229.364 86.7982 229.351ZM80.4982 219.523C80.4322 219.536 80.3643 219.534 80.2993 219.517C80.2343 219.5 80.1739 219.469 80.1222 219.426C80.0705 219.383 80.0289 219.33 80.0004 219.269C79.9718 219.208 79.957 219.142 79.957 219.075C79.957 219.007 79.9718 218.941 80.0004 218.88C80.0289 218.82 80.0705 218.766 80.1222 218.723C80.1739 218.68 80.2343 218.649 80.2993 218.632C80.3643 218.616 80.4322 218.613 80.4982 218.626C80.5633 218.61 80.6309 218.61 80.6964 218.623C80.7618 218.637 80.8234 218.665 80.8769 218.705C80.9304 218.745 80.9744 218.796 81.0058 218.855C81.0373 218.914 81.0554 218.98 81.0589 219.046C81.0624 219.113 81.0513 219.18 81.0262 219.242C81.0011 219.304 80.9627 219.359 80.9137 219.405C80.8648 219.45 80.8064 219.485 80.7428 219.505C80.6791 219.526 80.6118 219.532 80.5455 219.523H80.4982ZM62.0235 216.373C62.0894 216.361 62.1574 216.363 62.2223 216.38C62.2873 216.397 62.3478 216.428 62.3995 216.471C62.4512 216.514 62.4928 216.567 62.5213 216.628C62.5499 216.689 62.5647 216.755 62.5647 216.822C62.5647 216.889 62.5499 216.956 62.5213 217.017C62.4928 217.077 62.4512 217.131 62.3995 217.174C62.3478 217.217 62.2873 217.248 62.2223 217.264C62.1574 217.281 62.0894 217.284 62.0235 217.271C61.9571 217.28 61.8898 217.273 61.8262 217.253C61.7625 217.232 61.7042 217.198 61.6552 217.153C61.6062 217.107 61.5679 217.051 61.5428 216.989C61.5177 216.928 61.5065 216.861 61.51 216.794C61.5135 216.727 61.5316 216.662 61.5631 216.603C61.5946 216.544 61.6386 216.493 61.692 216.453C61.7455 216.413 61.8072 216.385 61.8726 216.371C61.938 216.357 62.0056 216.358 62.0707 216.373H62.0235ZM51.6442 184.873C52.2956 184.349 53.0376 183.949 53.8335 183.692C53.8335 181.645 53.676 180.542 55.2982 181.755C55.772 182.141 56.1953 182.586 56.5582 183.078C57.2893 182.857 58.0469 182.735 58.8105 182.716C59.031 182.716 59.1727 182.842 59.157 183.062C58.8878 183.875 58.4831 184.637 57.96 185.314C58.4143 186.021 58.695 186.825 58.779 187.661C58.6372 188.433 57.4245 187.756 56.448 187.472C56.0227 187.976 54.7155 189.646 54.2272 189.268C53.739 188.89 54.0067 187.913 53.9437 186.59C52.983 186.244 51.03 185.614 51.6915 184.873H51.6442ZM45.8482 198.765C45.9142 198.753 45.9821 198.755 46.0471 198.772C46.1121 198.788 46.1726 198.819 46.2243 198.862C46.2759 198.905 46.3175 198.959 46.3461 199.02C46.3746 199.08 46.3894 199.147 46.3894 199.214C46.3894 199.281 46.3746 199.347 46.3461 199.408C46.3175 199.469 46.2759 199.523 46.2243 199.565C46.1726 199.608 46.1121 199.639 46.0471 199.656C45.9821 199.673 45.9142 199.675 45.8482 199.663C45.7819 199.671 45.7146 199.665 45.6509 199.644C45.5873 199.624 45.5289 199.59 45.48 199.544C45.431 199.499 45.3926 199.443 45.3675 199.381C45.3424 199.319 45.3312 199.252 45.3348 199.186C45.3383 199.119 45.3564 199.054 45.3879 198.995C45.4193 198.936 45.4633 198.884 45.5168 198.844C45.5703 198.804 45.6319 198.776 45.6973 198.762C45.7628 198.749 45.8304 198.75 45.8955 198.765H45.8482ZM197.757 251.071C191.992 258.583 105.919 300.352 97.5397 304.4C77.868 281.043 47.25 238.455 29.295 213.601L45.5175 211.475C55.629 227.43 71.127 223.729 79.443 228.8C88.7985 234.517 93.618 238.833 96.453 249.921C100.312 264.994 95.445 271.498 106.722 276.302C117.526 280.885 138.978 279.043 147.672 264.127C156.366 249.212 139.34 242.692 124.047 235.777C108.754 228.863 111.447 219.287 113.526 216.578C115.113 214.517 116.955 212.665 119.007 211.066C119.783 211.068 120.546 210.868 121.22 210.483C121.895 210.099 122.456 209.545 122.85 208.876C124.693 209.869 194.591 249.259 197.804 251.071H197.757ZM139.482 269.64C139.524 269.64 139.564 269.657 139.593 269.686C139.623 269.716 139.639 269.756 139.639 269.797C139.639 269.839 139.623 269.879 139.593 269.909C139.564 269.938 139.524 269.955 139.482 269.955C139.44 269.953 139.401 269.934 139.373 269.903C139.345 269.872 139.33 269.831 139.332 269.79C139.334 269.748 139.353 269.709 139.384 269.681C139.415 269.652 139.456 269.638 139.498 269.64H139.482ZM143.514 253.685C143.325 253.811 143.041 253.685 142.6 253.465C141.907 254.236 141.577 254.457 141.655 253.15C140.978 252.929 140.6 252.819 141.23 252.457C141.419 252.354 141.62 252.274 141.829 252.22C142.002 251.134 142.144 251.118 142.742 252.031C143.032 251.96 143.335 251.96 143.624 252.031C143.845 252.157 143.482 252.457 143.23 252.756C143.325 252.976 143.703 253.575 143.53 253.685H143.514ZM120.267 210.121C119.659 210.321 119.007 210.346 118.386 210.193C117.765 210.04 117.199 209.715 116.755 209.254H116.896C119.873 208.798 119.432 207.569 120.976 206.813C121.117 206.971 120.976 206.923 123.48 207.112C122.848 208.5 121.693 209.581 120.267 210.121ZM123.905 203.821C123.677 204.245 123.589 204.73 123.653 205.207C123.653 205.317 123.543 205.821 123.48 206.293L121.779 206.152C121.779 206.073 122.897 203.411 122.976 203.159H124.047L123.905 203.821ZM123.59 199.395C122.503 201.427 122.015 205.207 121.054 204.545C120.719 204.198 120.527 203.736 120.519 203.254C120.468 202.345 120.597 201.435 120.897 200.576C121.154 199.674 121.606 198.84 122.221 198.132C122.836 197.425 123.599 196.861 124.456 196.481C123.622 199.694 123.858 198.97 123.59 199.458V199.395ZM124.724 201.773C124.976 201.033 125.323 199.946 125.811 198.529C126.016 198.418 126.063 198.529 126.331 199.19C126.756 200.293 124.267 203.096 124.267 203.096C124.425 202.639 124.598 202.198 124.724 201.836V201.773ZM169.202 174.478C163.642 182.842 159.516 186.59 153.027 190.228C146.701 193.594 139.975 196.144 133.009 197.82C130.205 198.686 127.858 204.907 124.787 205.191C124.441 205.191 124.204 205.191 124.488 204.403C125.197 202.435 127.764 200.797 127.024 198.922C126.93 198.641 126.803 198.371 126.646 198.119C126.518 197.913 126.323 197.758 126.094 197.678C126.189 197.363 126.504 196.45 126.929 195.158C127.291 194.906 127.543 194.827 129.197 193.851C134.741 190.575 136.915 184.7 141.577 179.203C144.039 176.191 146.913 173.54 150.113 171.328C150.349 171.187 149.956 171.423 151.783 165.658C152.838 162.335 154.066 158.823 154.429 157.783C154.497 157.793 154.562 157.818 154.619 157.856C154.677 157.894 154.725 157.945 154.759 158.004C155.169 158.776 155.09 160.256 155.437 161.154C156.256 163.138 158.287 160.477 160.162 160.524C161.737 160.524 161.737 162.335 163.312 162.792C164.493 163.138 165.674 162.414 166.777 162.934C168.221 165.39 169.921 167.686 171.848 169.785C171.133 171.457 170.246 173.051 169.202 174.541V174.478ZM178.873 174.982C174.105 171.575 170.121 167.187 167.186 162.115C165.249 158.744 163.453 154.98 162.839 145.53C163.211 145.465 163.579 145.381 163.942 145.278L164.272 148.428C166.007 149.741 167.84 150.921 169.753 151.956C169.753 151.956 168.415 159.532 174.478 169.281C177.392 174.069 178.873 175.045 178.873 175.045V174.982ZM208.152 195.3C208.435 198.733 205.317 217.476 204.892 220.027C204.867 220.037 204.844 220.052 204.825 220.071C204.806 220.09 204.791 220.113 204.781 220.138C204.986 219.366 201.442 231.289 201.175 235.021C201.175 235.321 201.175 235.179 203.868 237.51C204.781 238.313 207.916 240.975 208.073 241.904C208.145 242.146 208.145 242.403 208.073 242.644C206.666 241.154 204.988 239.946 203.128 239.085C203.111 239.073 203.092 239.065 203.073 239.061C203.053 239.057 203.032 239.056 203.012 239.06C202.993 239.064 202.974 239.072 202.957 239.084C202.94 239.095 202.926 239.11 202.915 239.127C202.905 239.145 202.898 239.164 202.894 239.184C202.891 239.204 202.893 239.224 202.898 239.244C202.903 239.264 202.912 239.282 202.924 239.298C202.937 239.314 202.952 239.327 202.97 239.337L204.246 240.376C205.522 241.243 206.695 242.252 207.742 243.385C207.585 243.778 207.238 243.81 206.829 243.7C206.829 242.881 203.238 240.896 202.104 240.219C201.931 240.124 201.773 240.376 201.946 240.471C203.528 241.384 205.002 242.473 206.341 243.715C205.837 244.849 204.309 243.227 198.749 240.943C197.747 240.493 196.687 240.185 195.599 240.03C195.526 240.025 195.452 240.044 195.39 240.083C195.327 240.123 195.279 240.182 195.253 240.25C195.111 240.66 195.552 240.644 196.969 242.077C197.271 242.342 197.531 242.65 197.741 242.991C196.797 243.102 195.844 242.879 195.048 242.361C194.417 241.939 193.919 241.346 193.612 240.652C193.305 239.957 193.202 239.19 193.315 238.439C193.583 236.864 195.142 236.061 194.497 234.659C193.851 233.257 192.528 224.154 192.339 222.847C190.591 211.018 191.252 210.766 190.921 210.672C190.921 194.26 191.441 194.197 191.315 193.347C191.315 193.174 187.787 168.95 187.756 168.761C188.795 168.761 189.535 169.911 190.118 170.856C190.969 172.21 191.693 173.092 193.394 172.573C195.095 172.053 196.544 170.62 198.119 170.053C199.694 169.486 200.529 170.053 202.246 170.604C202.907 170.92 203.654 171.009 204.371 170.858C205.089 170.707 205.737 170.325 206.215 169.769C208.955 167.485 207.664 166.918 213.271 169.123C212.184 173.36 209.743 185.33 209.695 185.519C208.7 188.685 208.18 191.981 208.152 195.3ZM187.567 167.989C186.331 168.435 185.127 168.961 183.96 169.564C183.692 169.564 183.582 169.564 183.503 169.249C183.015 166.997 188.748 140.332 203.033 139.324C209.554 138.883 214.058 150.586 216.027 156.823C217.322 160.787 218.327 164.84 219.035 168.95C219.319 171.801 211.003 166.462 208.609 167.013C207.664 167.233 207.238 168.037 205.884 169.171C204.529 170.305 203.836 170.305 202.639 169.879C201.225 169.105 199.568 168.902 198.009 169.312C196.339 169.911 194.953 171.313 193.284 171.832C191.866 172.289 191.425 171.313 190.622 170.053C189.819 168.793 189 167.722 187.567 167.926V167.989ZM211.034 182.857C211.696 180.243 212.861 174.825 213.727 169.155C215.176 169.722 218.342 171.108 219.397 170.1C219.555 169.931 219.668 169.727 219.729 169.505C219.789 169.283 219.794 169.049 219.744 168.824C219.173 165.5 218.384 162.217 217.381 158.996C215.271 151.987 210.341 138.521 203.002 138.978C188.102 140.017 182.29 166.903 182.794 169.328C182.809 169.484 182.859 169.635 182.941 169.768C183.023 169.901 183.134 170.014 183.267 170.098C183.399 170.182 183.549 170.234 183.705 170.251C183.86 170.267 184.018 170.248 184.165 170.194C185.062 169.974 186.338 168.997 187.504 168.73C187.677 171.596 188.008 175.408 188.701 180.337C186.044 179.292 183.478 178.028 181.03 176.557C176.089 171.758 172.605 165.659 170.982 158.965C170.428 156.774 170.112 154.53 170.037 152.271C172.897 153.868 175.865 155.263 178.92 156.445C178.971 156.465 179.025 156.472 179.08 156.467C179.134 156.462 179.186 156.444 179.232 156.415C179.278 156.386 179.317 156.346 179.345 156.299C179.372 156.253 179.389 156.2 179.392 156.145C179.968 151.696 181.854 147.519 184.81 144.144C187.822 140.806 191.824 138.521 196.229 137.623C196.3 137.612 196.366 137.578 196.417 137.527C196.468 137.476 196.502 137.411 196.514 137.34C196.527 137.269 196.516 137.196 196.485 137.131C196.454 137.066 196.403 137.012 196.339 136.978C193.22 135.177 190.002 133.553 186.7 132.111C184.656 131.161 182.511 130.442 180.306 129.969C180.733 128.794 181.018 127.573 181.156 126.331C184.306 124.992 200.198 126.961 210.908 125.842C212.531 125.742 214.14 125.484 215.712 125.071C225.367 124.803 239.904 136.678 242.581 142.033C245.259 147.388 244.834 154.082 238.896 162.414C233.305 170.21 213.208 181.582 211.05 182.794L211.034 182.857ZM253.89 214.657C256.079 207.758 252.614 201.301 251.37 199.3L261.796 199.017C263.139 199.811 264.163 201.047 264.694 202.513C265.549 204.709 266.003 207.04 266.033 209.396C262.915 210.798 257.134 213.444 253.89 214.594V214.657ZM266.71 208.971C266.624 206.664 266.089 204.396 265.135 202.293C264.504 200.809 263.395 199.579 261.985 198.796C262.614 198.122 263.375 197.586 264.222 197.221C264.222 197.725 263.608 198.796 264.348 198.907C265.088 199.017 265.167 198.292 265.624 198.056C265.813 197.962 266.191 197.946 266.033 198.355C265.876 198.765 265.529 199.379 265.891 199.93C266.158 200.244 266.526 200.456 266.931 200.529C267.025 200.529 266.395 200.97 266.222 201.474C266.181 201.593 266.188 201.724 266.24 201.838C266.293 201.953 266.388 202.042 266.506 202.088C267.041 202.293 267.97 201.757 268.553 202.34C268.789 202.592 268.663 202.828 268.364 203.002C267.64 203.458 267.545 203.994 268.222 204.577C268.563 204.813 268.865 205.1 269.12 205.427C268.626 205.424 268.144 205.584 267.75 205.884C267.675 205.941 267.614 206.015 267.572 206.1C267.53 206.185 267.508 206.278 267.508 206.372C267.508 206.467 267.53 206.56 267.572 206.645C267.614 206.729 267.675 206.803 267.75 206.86C268.096 207.16 268.947 207.475 269.136 207.742C268.386 208.242 267.569 208.634 266.71 208.908V208.971ZM285.815 198.072C285.169 200.702 270.994 207.049 269.986 207.522C269.813 206.908 268.821 206.608 268.411 206.309C268.852 206.073 269.734 206.167 269.908 205.616C270.081 205.065 268.852 204.151 268.569 203.789C268.837 203.537 269.797 203.08 269.372 202.214C269.179 201.888 268.887 201.632 268.539 201.482C268.191 201.332 267.805 201.296 267.435 201.379H267.199C267.545 200.938 268.112 200.371 267.592 199.993C267.073 199.615 266.726 199.993 266.458 199.474C267.955 199.663 269.183 199.867 270.128 200.072C270.16 200.077 270.192 200.074 270.222 200.065C270.253 200.056 270.281 200.041 270.305 200.02C270.329 199.999 270.348 199.973 270.361 199.944C270.374 199.915 270.381 199.883 270.38 199.852C270.38 200.482 269.939 196.213 272.176 195.709C273.174 195.604 274.184 195.746 275.115 196.122C276.046 196.498 276.87 197.098 277.515 197.867C277.552 197.913 277.601 197.948 277.657 197.967C277.712 197.987 277.772 197.99 277.83 197.977C278.413 197.867 283.248 196.875 285.185 197.584C285.406 197.568 285.862 197.788 285.815 198.009V198.072Z" fill="#100259"/>
<path d="M91.8011 176C89.1893 177.882 93.8905 179.765 92.8458 182.118L91.2787 184" stroke="#100259" stroke-width="0.5"/>
<path d="M89.8011 176C87.1893 177.882 91.8905 179.765 90.8458 182.118L89.2788 184" stroke="#100259" stroke-width="0.5"/>
<path d="M33.3351 110.335C29.7087 113.961 24.5077 114.64 21.7183 111.85C18.9288 109.061 19.6072 103.86 23.2335 100.234C26.8598 96.6072 32.0608 95.9288 34.8502 98.7183C37.6398 101.508 36.9614 106.709 33.3351 110.335Z" stroke="#120071" stroke-width="1.42857" stroke-linecap="round" stroke-linejoin="round"/>
<path d="M34.8502 98.7184C34.8502 98.7184 34.3451 102.254 32.3249 104.274C30.3046 106.295 26.2639 104.274 24.2436 106.295C22.2233 108.315 21.7183 111.85 21.7183 111.85" stroke="#120071" stroke-width="1.42857" stroke-linecap="round" stroke-linejoin="round"/>
<path d="M210.03 57.7159C211.117 60.4434 210.298 63.3326 208.2 64.1693C206.102 65.006 203.52 63.4733 202.432 60.7458C201.344 58.0184 202.163 55.1291 204.261 54.2924C206.359 53.4557 208.942 54.9884 210.03 57.7159Z" stroke="#FBECD1" stroke-width="1.42857" stroke-linecap="round" stroke-linejoin="round"/>
<path d="M204.261 54.2925C204.261 54.2925 206.007 55.3576 206.613 56.8771C207.219 58.3966 205.243 60.0654 205.849 61.5849C206.455 63.1044 208.2 64.1695 208.2 64.1695" stroke="#FBECD1" stroke-width="1.42857" stroke-linecap="round" stroke-linejoin="round"/>
<g clip-path="url(#clip0_358_32)">
<path d="M96.5413 187.945L85.7869 188.808C85.1269 188.861 84.6417 189.524 84.7031 190.29L84.9255 193.062C84.9869 193.827 85.5717 194.405 86.2316 194.352L96.9861 193.489C97.646 193.437 98.1312 192.773 98.0698 192.007L97.8474 189.235C97.786 188.47 97.2013 187.892 96.5413 187.945Z" stroke="#100259" stroke-width="0.5" stroke-linecap="round" stroke-linejoin="round"/>
<path d="M96.5413 187.945L95.0684 184.575L86.7039 185.246L85.7869 188.808" stroke="#100259" stroke-width="0.5" stroke-linecap="round" stroke-linejoin="round"/>
<path d="M96.986 193.489L96.5138 202.595L88.1492 203.266L86.2316 194.352" stroke="#100259" stroke-width="0.5" stroke-linecap="round" stroke-linejoin="round"/>
</g>
<defs>
<clipPath id="clip0_358_32">
<rect width="16.7829" height="19.4682" fill="white" transform="translate(82.4659 184.889) rotate(-4.58603)"/>
</clipPath>
</defs>
</svg>
